<svg id="Ebene_1" data-name="Ebene 1" xmlns="http://www.w3.org/2000/svg" viewBox="0 0 6621 3738.15"><rect x="4" y="1024.04" width="1876.11" height="2039" style="fill:#e5efdb;stroke:gray;stroke-miterlimit:10;stroke-width:3px"/><rect x="2378.5" y="1023.54" width="1877" height="2039" style="fill:#e1eaf6;stroke:gray;stroke-miterlimit:10"/><rect x="4742.5" y="1023.54" width="1877" height="2039" style="fill:#f8e5d8;stroke:gray;stroke-miterlimit:10;stroke-width:3px"/><rect x="7.5" y="3148.54" width="1877" height="320.5" style="fill:#ddd;stroke:gray;stroke-miterlimit:10"/><rect x="2378" y="3148.04" width="4242" height="321" style="fill:#ddd;stroke:gray;stroke-miterlimit:10"/><rect x="7.5" y="409.54" width="1877" height="128" style="fill:#fff;stroke:gray;stroke-miterlimit:10;stroke-width:2px"/><rect x="4846.5" y="409.54" width="1677" height="128" style="fill:#fff;stroke:gray;stroke-miterlimit:10;stroke-width:2px"/><rect x="107.92" y="637.54" width="381.83" height="127.57" style="fill:#ddd;stroke:gray;stroke-miterlimit:10"/><rect x="971.77" y="637.64" width="381.83" height="127.57" style="fill:#e5efdb;stroke:gray;stroke-miterlimit:10"/><rect x="1402.77" y="637.64" width="381.83" height="127.57" style="fill:#e5efdb;stroke:gray;stroke-miterlimit:10"/><rect x="539.77" y="637.64" width="381.83" height="127.57" style="fill:#ddd;stroke:gray;stroke-miterlimit:10"/><rect x="4846.8" y="637.54" width="814.2" height="127.64" style="fill:#ddd;stroke:#000;stroke-miterlimit:10"/><rect x="5708.98" y="637.75" width="814.2" height="127.64" style="fill:#ddd;stroke:#000;stroke-miterlimit:10"/><text transform="translate(462.15 110.56)" style="font-size:130px;font-family:Poppins-Regular, Poppins">Garden Cluster</text><text transform="translate(2909.78 110.37)" style="font-size:130px;font-family:Poppins-Regular, Poppins">Seed Cluster</text><text transform="translate(5258.86 110.37)" style="font-size:130px;font-family:Poppins-Regular, Poppins">Shoot Cluster</text><text transform="translate(5456.43 510.3)" style="font-size:100px;font-family:Poppins-Regular, Poppins">End-User</text><text transform="translate(210.89 718.81)" style="font-size:48px;font-family:Poppins-Regular, Poppins">kubectl</text><text transform="translate(594.75 690.01)" style="font-size:48px;font-family:Poppins-Regular, Poppins">Kubernetes<tspan x="2.11" y="57.6">Dashboard</tspan></text><text transform="translate(1045.85 718.81)" style="font-size:48px;font-family:Poppins-Regular, Poppins">gardenctl</text><text transform="translate(1479.78 690.01)" style="font-size:48px;font-family:Poppins-Regular, Poppins">Gardener<tspan x="-19.92" y="57.6">Dashboard</tspan></text><text transform="translate(5143.46 723.39)" style="font-size:60px;font-family:Poppins-Regular, Poppins">kubectl</text><text transform="translate(5770.19 723.89)" style="font-size:60px;font-family:Poppins-Regular, Poppins">Kubernetes Dashboard</text><rect x="4846.5" y="1578.54" width="1668" height="1431" style="fill:#ddd;stroke:gray;stroke-miterlimit:10"/><rect x="2483.5" y="1578.54" width="1668" height="1431.23" style="fill:#ddd;stroke:gray;stroke-miterlimit:10"/><rect x="115.5" y="1578.54" width="1668" height="1431.13" style="fill:#ddd;stroke:gray;stroke-miterlimit:10"/><text transform="translate(5556.64 1689.75)" style="font-size:72px;font-family:Poppins-Regular, Poppins">Worker</text><text transform="translate(5440.73 1132.48)" style="font-size:72px;font-family:Poppins-Regular, Poppins">Shoot Cluster</text><rect x="5761.2" y="1183.94" width="139" height="1352.18" transform="translate(7598.44 -4019.66) rotate(90)" style="fill:#fff;stroke:gray;stroke-miterlimit:10"/><text transform="translate(5334.17 1827.06)" style="font-size:48px;font-family:Poppins-Regular, Poppins">Kubelet + Container Runtime</text><rect x="4943.5" y="1741.73" width="139" height="1228.82" style="fill:#fff;stroke:gray;stroke-miterlimit:10"/><rect x="4847" y="1189.54" width="1668" height="131" style="fill:#f1ccb1;stroke:gray;stroke-miterlimit:10"/><text transform="translate(5372.64 1277.24)" style="font-size:60px;font-family:Poppins-Regular, Poppins">Shoot Cluster VPN LB</text><text transform="translate(862.45 3335.93) scale(1.12 1)" style="font-size:72px;font-family:Poppins-Regular, Poppins">IaaS</text><text transform="translate(4420.34 3334.68)" style="font-size:72px;font-family:Poppins-Regular, Poppins">IaaS</text><rect x="5128.5" y="1930.46" width="1231.87" height="125.45" style="fill:#f8e5d8;stroke:gray;stroke-miterlimit:10"/><rect x="5128.5" y="2628.27" width="1231.87" height="125.45" style="fill:#f8e5d8;stroke:gray;stroke-miterlimit:10"/><rect x="5128.5" y="2453.82" width="1231.87" height="125.45" style="fill:#f8e5d8;stroke:gray;stroke-miterlimit:10"/><rect x="5128.5" y="2279.36" width="1231.87" height="125.45" style="fill:#f8e5d8;stroke:gray;stroke-miterlimit:10"/><rect x="5128.5" y="2104.91" width="1231.87" height="125.45" style="fill:#f8e5d8;stroke:gray;stroke-miterlimit:10"/><rect x="5128.63" y="2802.9" width="1231.87" height="125.45" style="fill:#f8e5d8;stroke:gray;stroke-miterlimit:10"/><text transform="translate(5620.38 2014.05) scale(1.04 1)" style="font-size:57.570098876953125px;font-family:Poppins-Regular, Poppins">VPN</text><text transform="translate(5428.07 2711.86) scale(1.04 1)" style="font-size:57.570098876953125px;font-family:Poppins-Regular, Poppins">Optional Addons</text><text transform="translate(5539.06 2537.41) scale(1.04 1)" style="font-size:57.570098876953125px;font-family:Poppins-Regular, Poppins">Core DNS</text><text transform="translate(5516.05 2362.96) scale(1.04 1)" style="font-size:57.570098876953125px;font-family:Poppins-Regular, Poppins">Kube Proxy</text><text transform="translate(5583.52 2188.51) scale(1.04 1)" style="font-size:57.570098876953125px;font-family:Poppins-Regular, Poppins">Calico</text><text transform="translate(5432.48 2887.47) scale(1.04 1)" style="font-size:57.570098876953125px;font-family:Poppins-Regular, Poppins">Actual Workload</text><rect x="2771.96" y="1929.6" width="1231.87" height="125.45" style="fill:#e5efdb;stroke:gray;stroke-miterlimit:10"/><text transform="translate(3183.23 2010.65)" style="font-size:57.56999969482422px;font-family:Poppins-Regular, Poppins">Gardenlet</text><rect x="6230.01" y="1930.46" width="129.99" height="125.69" style="fill:#f8e5d8;stroke:gray;stroke-miterlimit:10"/><rect x="6229.05" y="2104.13" width="131.45" height="126.65" style="fill:#f8e5d8;stroke:gray;stroke-miterlimit:10"/><rect x="6229.05" y="2278.76" width="130.95" height="126.65" style="fill:#f8e5d8;stroke:gray;stroke-miterlimit:10"/><rect x="6229.05" y="2453.39" width="131.45" height="126.65" style="fill:#f8e5d8;stroke:gray;stroke-miterlimit:10"/><text transform="translate(6268.43 2016.95)" style="font-size:69.0841064453125px;font-family:Poppins-Regular, Poppins">D</text><text transform="translate(6249.12 2193.46)" style="font-size:69.0841064453125px;font-family:Poppins-Regular, Poppins">DS</text><text transform="translate(6247.68 2365.73)" style="font-size:69.0841064453125px;font-family:Poppins-Regular, Poppins">DS</text><text transform="translate(6267.95 2540.36)" style="font-size:69.0841064453125px;font-family:Poppins-Regular, Poppins">D</text><rect x="6229.05" y="2628.04" width="130.95" height="124.71" style="fill:#f8e5d8;stroke:gray;stroke-miterlimit:10"/><rect x="6229.05" y="2803.54" width="131.45" height="123.84" style="fill:#f8e5d8;stroke:gray;stroke-miterlimit:10"/><rect x="3887.01" y="1930.02" width="126.65" height="125.52" style="fill:#e5efdb;stroke:gray;stroke-miterlimit:10"/><text transform="translate(3930.1 2013.93)" style="font-size:57.56999969482422px;font-family:Poppins-Regular, Poppins">D</text><text transform="translate(5129.5 2972.94)" style="font-size:60px;font-family:Poppins-Regular, Poppins">...</text><text transform="translate(4845.48 3039.48)" style="font-size:60px;font-family:Poppins-Regular, Poppins">...</text><text transform="translate(3088.82 1141.32)" style="font-size:72px;font-family:Poppins-Regular, Poppins">Seed Cluster</text><rect x="2483" y="1189.54" width="720.5" height="131" style="fill:#c3d6ec;stroke:gray;stroke-miterlimit:10"/><rect x="3431" y="1190.04" width="721" height="131" style="fill:#c3d6ec;stroke:gray;stroke-miterlimit:10"/><rect x="3430" y="1372.04" width="725" height="131" rx="65.5" style="fill:#a5c2e3;stroke:gray;stroke-miterlimit:10"/><text transform="translate(2562.24 1277.24)" style="font-size:60px;font-family:Poppins-Regular, Poppins">Seed Cluster API LB</text><text transform="translate(3498.63 1277.24)" style="font-size:60px;font-family:Poppins-Regular, Poppins">Shoot Cluster API LB</text><rect x="2483" y="1372.54" width="721.5" height="131" style="fill:#a5c2e3;stroke:gray;stroke-miterlimit:10"/><text transform="translate(3674.4 1420.13)" style="font-size:60px;font-family:Poppins-Regular, Poppins">Storage</text><text transform="translate(3677.93 1461.04)" style="font-size:24px;font-family:Poppins-Regular, Poppins">[K8s] DS, RS, SS, J, ...<tspan x="-51.78" y="30">[CRD] Machine Deployment</tspan></text><text transform="translate(2654.93 1429.78)" style="font-size:60px;font-family:Poppins-Regular, Poppins">Seed Cluster<tspan x="-11.88" y="60">Control Plane</tspan></text><rect x="3404.71" y="1179.61" width="139" height="1352.18" transform="translate(5237.62 -1667.5) rotate(90)" style="fill:#fff;stroke:gray;stroke-miterlimit:10"/><rect x="2569.01" y="1737.4" width="139" height="1228.82" style="fill:#fff;stroke:gray;stroke-miterlimit:10"/><text transform="translate(2973.43 1827.08)" style="font-size:48px;font-family:Poppins-Regular, Poppins">Kubelet + Container Runtime</text><rect x="2774.5" y="2104.54" width="823" height="672" style="fill:#d67131;stroke:gray;stroke-miterlimit:10"/><rect x="2826.5" y="2472.8" width="723" height="75.49" style="fill:#ebb48b;stroke:gray;stroke-miterlimit:10"/><rect x="2826.5" y="2564.93" width="723" height="75.49" style="fill:#ebb48b;stroke:gray;stroke-miterlimit:10"/><rect x="2826.5" y="2657.05" width="723" height="75.49" style="fill:#ebb48b;stroke:gray;stroke-miterlimit:10"/><rect x="2775.69" y="2893.13" width="821.81" height="75.49" style="fill:#f9da78;stroke:gray;stroke-miterlimit:10"/><rect x="3471" y="2203.04" width="75" height="75" style="fill:#ebb48b;stroke:gray;stroke-miterlimit:10"/><rect x="3471.5" y="2290.04" width="75" height="75.5" style="fill:#ebb48b;stroke:gray;stroke-miterlimit:10"/><rect x="3472" y="2381.29" width="75" height="75.25" style="fill:#ebb48b;stroke:gray;stroke-miterlimit:10"/><rect x="3474.5" y="2473.04" width="75" height="74.83" style="fill:#ebb48b;stroke:gray;stroke-miterlimit:10"/><rect x="3474.5" y="2565.22" width="75" height="75.33" style="fill:#ebb48b;stroke:gray;stroke-miterlimit:10"/><rect x="3474.5" y="2657.04" width="75" height="75.5" style="fill:#ebb48b;stroke:gray;stroke-miterlimit:10"/><rect x="2827.5" y="2202.54" width="323.5" height="75" style="fill:#ebb48b;stroke:gray;stroke-miterlimit:10"/><rect x="3150.5" y="2202.54" width="324.5" height="75" style="fill:#ebb48b;stroke:gray;stroke-miterlimit:10"/><rect x="2826.5" y="2381.54" width="324.5" height="75" style="fill:#ebb48b;stroke:gray;stroke-miterlimit:10"/><rect x="3150.5" y="2381.54" width="323.5" height="75" style="fill:#ebb48b;stroke:gray;stroke-miterlimit:10"/><rect x="3188.25" y="2797.54" width="411.5" height="75" style="fill:#f9da78;stroke:gray;stroke-miterlimit:10"/><text transform="translate(2899.27 2253.36)" style="font-size:36px;font-family:Poppins-Regular, Poppins">etcd Main</text><text transform="translate(3245.54 2252.92)" style="font-size:36px;font-family:Poppins-Regular, Poppins">Backup</text><text transform="translate(3491.11 2252.63)" style="font-size:36px;font-family:Poppins-Regular, Poppins">SS</text><rect x="2827.25" y="2289.93" width="647.25" height="75.49" style="fill:#ebb48b;stroke:gray;stroke-miterlimit:10"/><text transform="translate(3047.43 2341.86)" style="font-size:36px;font-family:Poppins-Regular, Poppins">etcd Events</text><text transform="translate(3491.01 2341.83)" style="font-size:36px;font-family:Poppins-Regular, Poppins">SS</text><text transform="translate(2900.18 2432.29)" style="font-size:36px;font-family:Poppins-Regular, Poppins">API Server</text><text transform="translate(3276.63 2433.29)" style="font-size:36px;font-family:Poppins-Regular, Poppins">VPN</text><text transform="translate(3060.59 2524.54)" style="font-size:36px;font-family:Poppins-Regular, Poppins">Scheduler</text><text transform="translate(2976.1 2615.54)" style="font-size:36px;font-family:Poppins-Regular, Poppins">Controller Manager</text><text transform="translate(2980.28 2708.54)" style="font-size:36px;font-family:Poppins-Regular, Poppins">Machine Controller</text><text transform="translate(3499.41 2429.83)" style="font-size:36px;font-family:Poppins-Regular, Poppins">D</text><text transform="translate(3499.03 2523.29)" style="font-size:36px;font-family:Poppins-Regular, Poppins">D</text><text transform="translate(3499.03 2615.29)" style="font-size:36px;font-family:Poppins-Regular, Poppins">D</text><text transform="translate(3501.03 2707.29)" style="font-size:36px;font-family:Poppins-Regular, Poppins">D</text><text transform="translate(2940.39 2169.05)" style="font-size:36px;fill:#fff;font-family:Poppins-Regular, Poppins">Shoot Cluster Control Plane</text><text transform="translate(3297.63 2843.97)" style="font-size:36px;font-family:Poppins-Regular, Poppins">Monitoring</text><text transform="translate(3113.75 2943.97)" style="font-size:36px;font-family:Poppins-Regular, Poppins">Logging</text><rect x="3643" y="2203.04" width="377" height="76" rx="33.5" style="fill:#ebb48b;stroke:gray;stroke-miterlimit:10"/><rect x="3643" y="2287.04" width="363" height="76" rx="33.5" style="fill:#ebb48b;stroke:gray;stroke-miterlimit:10"/><path d="M3943.5,2202.54h42.74a33.08,33.08,0,0,1,33.08,33.08v9.47a33.45,33.45,0,0,1-33.45,33.45H3943.5a0,0,0,0,1,0,0v-76A0,0,0,0,1,3943.5,2202.54Z" style="fill:#ebb48b;stroke:gray;stroke-miterlimit:10"/><path d="M3944.33,2286.68h42.32a33.5,33.5,0,0,1,33.5,33.5v9a33.5,33.5,0,0,1-33.5,33.5h-42.32a0,0,0,0,1,0,0v-76A0,0,0,0,1,3944.33,2286.68Z" style="fill:#ebb48b;stroke:gray;stroke-miterlimit:10"/><text transform="translate(3966.87 2249.42)" style="font-size:24px;font-family:Poppins-Regular, Poppins">PV</text><text transform="translate(3965.79 2333.49)" style="font-size:24px;font-family:Poppins-Regular, Poppins">PV</text><text transform="translate(3750.39 2253.93)" style="font-size:36px;font-family:Poppins-Regular, Poppins">Main</text><text transform="translate(3735.54 2338.47)" style="font-size:36px;font-family:Poppins-Regular, Poppins">Events</text><text transform="translate(3632.67 2993.8)" style="font-size:60px;font-family:Poppins-Regular, Poppins">...</text><text transform="translate(3192.61 1687.87)" style="font-size:72px;font-family:Poppins-Regular, Poppins">Worker</text><text transform="translate(2483.26 3036.64)" style="font-size:60px;font-family:Poppins-Regular, Poppins">...</text><text transform="translate(2377.71 3110.04)" style="font-size:60px;font-family:Poppins-Regular, Poppins">...</text><text transform="translate(111.67 3039.62)" style="font-size:60px;font-family:Poppins-Regular, Poppins">...</text><text transform="translate(648.87 1141.04)" style="font-size:72px;font-family:Poppins-Regular, Poppins">Garden Cluster</text><rect x="115" y="1189.54" width="720.5" height="131" style="fill:#cbdfb8;stroke:gray;stroke-miterlimit:10"/><rect x="1057.5" y="1371.54" width="722.5" height="131" rx="65.5" style="fill:#b1cf95;stroke:gray;stroke-miterlimit:10"/><rect x="1057.5" y="1190.54" width="725.5" height="131" style="fill:#cbdfb8;stroke:gray;stroke-miterlimit:10"/><text transform="translate(1275.89 1277.24)" style="font-size:60px;font-family:Poppins-Regular, Poppins">Ingress LB</text><text transform="translate(312.78 1429.78)" style="font-size:60px;font-family:Poppins-Regular, Poppins">Seed Cluster<tspan x="-11.88" y="60">Control Plane</tspan></text><rect x="115" y="1372.54" width="721.5" height="131" style="fill:#b1cf95;stroke:gray;stroke-miterlimit:10"/><text transform="translate(1305.43 1420.05)" style="font-size:60px;font-family:Poppins-Regular, Poppins">Storage</text><text transform="translate(1302.83 1458.95)" style="font-size:24px;font-family:Poppins-Regular, Poppins">[K8s] DS, RS, SS, J, ...<tspan x="-7.03" y="30">[CRD] Shoot, Seed, ...</tspan></text><text transform="translate(249.03 1427.56)" style="font-size:60px;font-family:Poppins-Regular, Poppins">Garden Cluster<tspan x="25.92" y="60">Control Plane</tspan></text><text transform="translate(156.69 1277.57)" style="font-size:60px;font-family:Poppins-Regular, Poppins">Garden Cluster API LB</text><text transform="translate(795.28 1690.54)" style="font-size:72px;font-family:Poppins-Regular, Poppins">Worker</text><rect x="1032.37" y="1186.46" width="139" height="1352.18" transform="translate(2872.13 711.7) rotate(90)" style="fill:#fff;stroke:gray;stroke-miterlimit:10"/><text transform="translate(605.34 1829.59)" style="font-size:48px;font-family:Poppins-Regular, Poppins">Kubelet + Container Runtime</text><rect x="214.67" y="1744.26" width="139" height="1228.82" style="fill:#fff;stroke:gray;stroke-miterlimit:10"/><rect x="408.66" y="1931.12" width="1231.87" height="125.45" style="fill:#e5efdb;stroke:gray;stroke-miterlimit:10"/><rect x="408.63" y="2099.54" width="1231.87" height="125.45" style="fill:#e5efdb;stroke:gray;stroke-miterlimit:10"/><rect x="408.63" y="2271.54" width="1231.87" height="125.45" style="fill:#e5efdb;stroke:gray;stroke-miterlimit:10"/><rect x="408.17" y="2440.44" width="1231.87" height="125.45" style="fill:#e5efdb;stroke:gray;stroke-miterlimit:10"/><text transform="translate(411.18 2621.84)" style="font-size:60px;font-family:Poppins-Regular, Poppins">...</text><rect x="408" y="2657.04" width="1232" height="313" style="fill:#fff"/><polygon points="1470 2593.91 1398 2718.61 1542 2718.61 1470 2593.91" style="fill:#fff"/><rect x="1513.11" y="1931.54" width="128.39" height="125" style="fill:#e5efdb;stroke:gray;stroke-miterlimit:10"/><rect x="1513.11" y="2099.54" width="127.39" height="126" style="fill:#e5efdb;stroke:gray;stroke-miterlimit:10"/><rect x="1512.55" y="2272.65" width="128.39" height="125" style="fill:#e5efdb;stroke:gray;stroke-miterlimit:10"/><rect x="1512.55" y="2440.65" width="127.39" height="126" style="fill:#e5efdb;stroke:gray;stroke-miterlimit:10"/><text transform="translate(446.5 2701.52)" style="font-size:27px;font-family:Poppins-Regular, Poppins">New Shoot Clusters can be created via the Gardener dashboard or by uploading a <tspan x="0" y="47">new Shoot resource to the Garden Cluster. The Gardener Scheduler finds the best </tspan><tspan x="0" y="94">seed cluster for the shoot. Then, the Gardenlet picks it up and starts a Terraform job to </tspan><tspan x="0" y="141">create the necessary IaaS components. Then it deploys the Shoot Cluster Control </tspan><tspan x="0" y="188">Plane into the Seed Cluster and required add-ons into the Shoot Cluster. Update or </tspan><tspan x="0" y="235">delete operations are handled by the Gardenlet fully automatically as well.</tspan></text><text transform="translate(1557.32 2015.42)" style="font-size:57.56999969482422px;font-family:Poppins-Regular, Poppins">D</text><text transform="translate(1557.32 2183.42)" style="font-size:57.56999969482422px;font-family:Poppins-Regular, Poppins">D</text><text transform="translate(1557.32 2356.42)" style="font-size:57.56999969482422px;font-family:Poppins-Regular, Poppins">D</text><text transform="translate(1556.32 2525.42)" style="font-size:57.56999969482422px;font-family:Poppins-Regular, Poppins">D</text><text transform="translate(655.86 2014.76)" style="font-size:57.56999969482422px;font-family:Poppins-Regular, Poppins">Gardener Dashboard</text><text transform="translate(676.6 2183.18)" style="font-size:57.56999969482422px;font-family:Poppins-Regular, Poppins">Gardener API Server</text><text transform="translate(537.34 2355.18)" style="font-size:57.56999969482422px;font-family:Poppins-Regular, Poppins">Gardener Controller Manager</text><text transform="translate(673.23 2524.08)" style="font-size:57.56999969482422px;font-family:Poppins-Regular, Poppins">Gardener Scheduler</text><line x1="8.5" y1="935.04" x2="6620.5" y2="934.54" style="fill:none;stroke:gray;stroke-miterlimit:10;stroke-width:3px;stroke-dasharray:12"/><line x1="2129" y1="3469.04" x2="2129" y2="408.04" style="fill:none;stroke:gray;stroke-miterlimit:10;stroke-width:3px;stroke-dasharray:12"/><text transform="translate(5.19 915.57)" style="font-size:48px;font-family:Poppins-Regular, Poppins">HTTPS</text><line x1="2752.5" y1="2994.54" x2="2752.5" y2="2080.54" style="fill:none;stroke:gray;stroke-miterlimit:10;stroke-width:2px;stroke-dasharray:12"/><line x1="2762.5" y1="2992.54" x2="3613.5" y2="2992.54" style="fill:none;stroke:gray;stroke-miterlimit:10;stroke-width:2px;stroke-dasharray:12"/><line x1="3619.5" y1="2994.54" x2="3619.5" y2="2080.54" style="fill:none;stroke:gray;stroke-miterlimit:10;stroke-width:2px;stroke-dasharray:12"/><line x1="2768.5" y1="2080.54" x2="3619.5" y2="2080.54" style="fill:none;stroke:gray;stroke-miterlimit:10;stroke-width:2px;stroke-dasharray:12"/><rect x="303" y="1744.54" width="111" height="138" style="fill:#fff"/><rect x="2676.5" y="1738.54" width="111" height="137" style="fill:#fff"/><rect x="2777.25" y="2797.84" width="411.5" height="74.21" style="fill:#f9da78;stroke:gray;stroke-miterlimit:10"/><text transform="translate(2946.96 2846.86)" style="font-size:36px;font-family:Poppins-Regular, Poppins">VPN</text><rect x="5027.5" y="1742.54" width="111" height="137" style="fill:#fff"/><circle cx="5253.5" cy="588.54" r="6" style="fill:none;stroke:#000;stroke-miterlimit:10;stroke-width:3px"/><polygon points="5228 612.37 5238.5 594.19 5217.5 594.19 5228 612.37"/><text transform="translate(5221.11 583.3)" style="font-size:24px;font-family:Poppins-Regular, Poppins">R</text><line x1="6118.55" y1="583.57" x2="6118.55" y2="538.57" style="fill:none;stroke:#000;stroke-miterlimit:10;stroke-width:3px"/><circle cx="6118.55" cy="589.57" r="6" style="fill:none;stroke:#000;stroke-miterlimit:10;stroke-width:3px"/><line x1="6118.55" y1="638.57" x2="6118.55" y2="595.57" style="fill:none;stroke:#000;stroke-miterlimit:10;stroke-width:3px"/><polygon points="6093.05 613.4 6103.55 595.22 6082.55 595.22 6093.05 613.4"/><text transform="translate(6086.16 584.33)" style="font-size:24px;font-family:Poppins-Regular, Poppins">R</text><circle cx="5253.95" cy="794.7" r="6" style="fill:none;stroke:#000;stroke-miterlimit:10;stroke-width:3px"/><polygon points="5228.45 818.53 5238.95 800.34 5217.95 800.34 5228.45 818.53"/><text transform="translate(5221.55 789.46)" style="font-size:24px;font-family:Poppins-Regular, Poppins">R</text><circle cx="6115.4" cy="791.75" r="6" style="fill:none;stroke:#000;stroke-miterlimit:10;stroke-width:3px"/><line x1="6115.4" y1="825.54" x2="6115.4" y2="797.75" style="fill:none;stroke:#000;stroke-miterlimit:10;stroke-width:3px"/><line x1="6115.73" y1="786.84" x2="6115.73" y2="765.54" style="fill:none;stroke:#000;stroke-miterlimit:10;stroke-width:3px"/><polygon points="6089.9 815.58 6100.4 797.39 6079.4 797.39 6089.9 815.58"/><text transform="translate(6083 786.51)" style="font-size:24px;font-family:Poppins-Regular, Poppins">R</text><circle cx="4332.64" cy="1659.85" r="6" style="fill:none;stroke:#000;stroke-miterlimit:10;stroke-width:3px"/><polygon points="4307.14 1659.43 4296.64 1677.62 4317.64 1677.62 4307.14 1659.43"/><text transform="translate(4300.25 1654.61)" style="font-size:24px;font-family:Poppins-Regular, Poppins">R</text><circle cx="4206.64" cy="1346.02" r="6" style="fill:none;stroke:#000;stroke-miterlimit:10;stroke-width:3px"/><polygon points="4181.14 1369.85 4191.64 1351.66 4170.64 1351.66 4181.14 1369.85"/><text transform="translate(4174.24 1340.78)" style="font-size:24px;font-family:Poppins-Regular, Poppins">R</text><circle cx="2323.7" cy="881.2" r="6" style="fill:none;stroke:#000;stroke-miterlimit:10;stroke-width:3px"/><polygon points="2286.08 892.9 2304.26 903.4 2304.26 882.4 2286.08 892.9"/><text transform="translate(2291.31 875.96)" style="font-size:24px;font-family:Poppins-Regular, Poppins">R</text><circle cx="4046.48" cy="2693.59" r="6" style="fill:none;stroke:#000;stroke-miterlimit:10;stroke-width:3px"/><polygon points="4020.98 2717.42 4031.48 2699.24 4010.48 2699.24 4020.98 2717.42"/><text transform="translate(4014.09 2688.35)" style="font-size:24px;font-family:Poppins-Regular, Poppins">R</text><circle cx="3686.74" cy="2447.33" r="6" style="fill:none;stroke:#000;stroke-miterlimit:10;stroke-width:3px"/><polygon points="3673.36 2459.04 3655.17 2448.54 3655.17 2469.54 3673.36 2459.04"/><text transform="translate(3654.34 2442.09)" style="font-size:24px;font-family:Poppins-Regular, Poppins">R</text><circle cx="3680.78" cy="2695.66" r="6" style="fill:none;stroke:#000;stroke-miterlimit:10;stroke-width:3px"/><polygon points="3667.4 2707.37 3649.22 2696.87 3649.22 2717.87 3667.4 2707.37"/><text transform="translate(3648.39 2690.42)" style="font-size:24px;font-family:Poppins-Regular, Poppins">R</text><line x1="1590.21" y1="580" x2="1590.21" y2="537.54" style="fill:none;stroke:#000;stroke-miterlimit:10;stroke-width:3px"/><circle cx="1590.21" cy="586" r="6" style="fill:none;stroke:#000;stroke-miterlimit:10;stroke-width:3px"/><line x1="1590.21" y1="637.54" x2="1590.21" y2="592" style="fill:none;stroke:#000;stroke-miterlimit:10;stroke-width:3px"/><polygon points="1564.71 609.83 1575.21 591.64 1554.21 591.64 1564.71 609.83"/><text transform="translate(1557.82 580.76)" style="font-size:24px;font-family:Poppins-Regular, Poppins">R</text><line x1="1160.21" y1="580" x2="1160.21" y2="537.54" style="fill:none;stroke:#000;stroke-miterlimit:10;stroke-width:3px"/><circle cx="1160.21" cy="586" r="6" style="fill:none;stroke:#000;stroke-miterlimit:10;stroke-width:3px"/><line x1="1160.21" y1="637.54" x2="1160.21" y2="592" style="fill:none;stroke:#000;stroke-miterlimit:10;stroke-width:3px"/><polygon points="1134.71 609.83 1145.21 591.64 1124.21 591.64 1134.71 609.83"/><text transform="translate(1127.82 580.76)" style="font-size:24px;font-family:Poppins-Regular, Poppins">R</text><line x1="735.21" y1="581" x2="735.21" y2="538.54" style="fill:none;stroke:#000;stroke-miterlimit:10;stroke-width:3px"/><circle cx="735.21" cy="587" r="6" style="fill:none;stroke:#000;stroke-miterlimit:10;stroke-width:3px"/><line x1="735.21" y1="638.54" x2="735.21" y2="593" style="fill:none;stroke:#000;stroke-miterlimit:10;stroke-width:3px"/><polygon points="709.71 610.83 720.21 592.64 699.21 592.64 709.71 610.83"/><text transform="translate(702.82 581.76)" style="font-size:24px;font-family:Poppins-Regular, Poppins">R</text><line x1="305.21" y1="579" x2="305.21" y2="536.54" style="fill:none;stroke:#000;stroke-miterlimit:10;stroke-width:3px"/><circle cx="305.21" cy="585" r="6" style="fill:none;stroke:#000;stroke-miterlimit:10;stroke-width:3px"/><line x1="305.21" y1="636.54" x2="305.21" y2="591" style="fill:none;stroke:#000;stroke-miterlimit:10;stroke-width:3px"/><polygon points="279.71 608.83 290.21 590.64 269.21 590.64 279.71 608.83"/><text transform="translate(272.82 579.76)" style="font-size:24px;font-family:Poppins-Regular, Poppins">R</text><line x1="1211.16" y1="785.51" x2="1211.16" y2="765.54" style="fill:none;stroke:#000;stroke-miterlimit:10;stroke-width:3px"/><circle cx="1211.16" cy="791.51" r="6" style="fill:none;stroke:#000;stroke-miterlimit:10;stroke-width:3px"/><line x1="1211.16" y1="825.04" x2="1211.16" y2="797.51" style="fill:none;stroke:#000;stroke-miterlimit:10;stroke-width:3px"/><polygon points="1185.66 815.34 1196.16 797.15 1175.16 797.15 1185.66 815.34"/><text transform="translate(1178.77 786.27)" style="font-size:24px;font-family:Poppins-Regular, Poppins">R</text><line x1="1586.62" y1="786.73" x2="1586.62" y2="764.54" style="fill:none;stroke:#000;stroke-miterlimit:10;stroke-width:3px"/><circle cx="1586.62" cy="792.73" r="6" style="fill:none;stroke:#000;stroke-miterlimit:10;stroke-width:3px"/><line x1="1586.62" y1="823.04" x2="1586.62" y2="798.73" style="fill:none;stroke:#000;stroke-miterlimit:10;stroke-width:3px"/><polygon points="1561.12 816.56 1571.62 798.38 1550.62 798.38 1561.12 816.56"/><text transform="translate(1554.23 787.49)" style="font-size:24px;font-family:Poppins-Regular, Poppins">R</text><line x1="506.33" y1="1337.81" x2="506.33" y2="1320.54" style="fill:none;stroke:#000;stroke-miterlimit:10;stroke-width:3px"/><circle cx="506.33" cy="1343.81" r="6" style="fill:none;stroke:#000;stroke-miterlimit:10;stroke-width:3px"/><line x1="506.33" y1="1373.54" x2="506.33" y2="1349.81" style="fill:none;stroke:#000;stroke-miterlimit:10;stroke-width:3px"/><polygon points="480.83 1367.64 491.33 1349.45 470.33 1349.45 480.83 1367.64"/><text transform="translate(473.94 1338.57)" style="font-size:24px;font-family:Poppins-Regular, Poppins">R</text><circle cx="1831.23" cy="1347.36" r="6" style="fill:none;stroke:#000;stroke-miterlimit:10;stroke-width:3px"/><polygon points="1805.73 1371.19 1816.23 1353 1795.23 1353 1805.73 1371.19"/><text transform="translate(1798.84 1342.12)" style="font-size:24px;font-family:Poppins-Regular, Poppins">R</text><line x1="324.33" y1="1530.93" x2="324.33" y2="1502.54" style="fill:none;stroke:#000;stroke-miterlimit:10;stroke-width:3px"/><circle cx="324.33" cy="1536.93" r="6" style="fill:none;stroke:#000;stroke-miterlimit:10;stroke-width:3px"/><line x1="324.33" y1="1743.54" x2="324.33" y2="1542.93" style="fill:none;stroke:#000;stroke-miterlimit:10;stroke-width:3px"/><polygon points="298.83 1536.51 288.33 1554.69 309.33 1554.69 298.83 1536.51"/><text transform="translate(291.94 1531.69)" style="font-size:24px;font-family:Poppins-Regular, Poppins">R</text><line x1="506.51" y1="1529.71" x2="506.51" y2="1503.54" style="fill:none;stroke:#000;stroke-miterlimit:10;stroke-width:3px"/><circle cx="506.51" cy="1535.71" r="6" style="fill:none;stroke:#000;stroke-miterlimit:10;stroke-width:3px"/><line x1="506.51" y1="1714.04" x2="506.51" y2="1541.71" style="fill:none;stroke:#000;stroke-miterlimit:10;stroke-width:3px"/><polygon points="481.01 1535.29 470.51 1553.47 491.51 1553.47 481.01 1535.29"/><text transform="translate(474.12 1530.47)" style="font-size:24px;font-family:Poppins-Regular, Poppins">R</text><polygon points="480.58 1576.9 491.08 1558.71 470.08 1558.71 480.58 1576.9"/><line x1="736.51" y1="1531.71" x2="736.51" y2="1505.04" style="fill:none;stroke:#000;stroke-miterlimit:10;stroke-width:3px"/><circle cx="736.51" cy="1537.71" r="6" style="fill:none;stroke:#000;stroke-miterlimit:10;stroke-width:3px"/><line x1="736.51" y1="1716.04" x2="736.51" y2="1543.71" style="fill:none;stroke:#000;stroke-miterlimit:10;stroke-width:3px"/><polygon points="711.01 1537.29 700.51 1555.47 721.51 1555.47 711.01 1537.29"/><text transform="translate(704.12 1532.47)" style="font-size:24px;font-family:Poppins-Regular, Poppins">R</text><line x1="3759" y1="825.04" x2="6569" y2="825.04" style="fill:none;stroke:#000;stroke-miterlimit:10;stroke-width:3px"/><circle cx="5253.74" cy="1429.24" r="6" style="fill:none;stroke:#000;stroke-miterlimit:10;stroke-width:3px"/><polygon points="5228.24 1453.07 5238.74 1434.88 5217.74 1434.88 5228.24 1453.07"/><text transform="translate(5221.35 1424)" style="font-size:24px;font-family:Poppins-Regular, Poppins">R</text><line x1="5254" y1="1321.04" x2="5254" y2="1423.04" style="fill:none;stroke:#000;stroke-miterlimit:10;stroke-width:3px"/><line x1="5254" y1="1435.04" x2="5254" y2="1535.04" style="fill:none;stroke:#000;stroke-miterlimit:10;stroke-width:3px"/><line x1="5254" y1="1534.04" x2="6466" y2="1534.04" style="fill:none;stroke:#000;stroke-miterlimit:10;stroke-width:3px"/><line x1="6466" y1="1534.54" x2="6466" y2="1993.54" style="fill:none;stroke:#000;stroke-miterlimit:10;stroke-width:3px"/><line x1="6361" y1="1993.04" x2="6466" y2="1993.04" style="fill:none;stroke:#000;stroke-miterlimit:10;stroke-width:3px"/><line x1="3759" y1="825.04" x2="3759" y2="1189.04" style="fill:none;stroke:#000;stroke-miterlimit:10;stroke-width:3px"/><circle cx="6466.61" cy="2175.56" r="6" style="fill:none;stroke:#000;stroke-miterlimit:10;stroke-width:3px"/><polygon points="6453.24 2187.27 6435.05 2176.77 6435.05 2197.77 6453.24 2187.27"/><text transform="translate(6434.22 2170.32)" style="font-size:24px;font-family:Poppins-Regular, Poppins">R</text><line x1="6361" y1="2175.04" x2="6461" y2="2175.04" style="fill:none;stroke:#000;stroke-miterlimit:10;stroke-width:3px"/><line x1="6472.5" y1="2175.04" x2="6569" y2="2175.04" style="fill:none;stroke:#000;stroke-miterlimit:10;stroke-width:3px"/><line x1="5254" y1="881.04" x2="4656.5" y2="881.04" style="fill:none;stroke:#000;stroke-miterlimit:10;stroke-width:3px"/><line x1="4658" y1="881.04" x2="4658" y2="2447.04" style="fill:none;stroke:#000;stroke-miterlimit:10;stroke-width:3px"/><line x1="3547" y1="2395.05" x2="4206" y2="2395.05" style="fill:none;stroke:#000;stroke-miterlimit:10;stroke-width:3px"/><line x1="4943" y1="1811.04" x2="4332" y2="1811.04" style="fill:none;stroke:#000;stroke-miterlimit:10;stroke-width:3px"/><line x1="4332" y1="1667.04" x2="4332" y2="1811.04" style="fill:none;stroke:#000;stroke-miterlimit:10;stroke-width:3px"/><line x1="4333" y1="1653.54" x2="4333" y2="881.04" style="fill:none;stroke:#000;stroke-miterlimit:10;stroke-width:3px"/><line x1="4333" y1="881.04" x2="3818.5" y2="881.04" style="fill:none;stroke:#000;stroke-miterlimit:10;stroke-width:3px"/><line x1="3818" y1="881.04" x2="3818" y2="1189.04" style="fill:none;stroke:#000;stroke-miterlimit:10;stroke-width:3px"/><line x1="5253.5" y1="537.54" x2="5253.5" y2="582.54" style="fill:none;stroke:#000;stroke-miterlimit:10;stroke-width:3px"/><line x1="5253.5" y1="594.54" x2="5253.5" y2="637.54" style="fill:none;stroke:#000;stroke-miterlimit:10;stroke-width:3px"/><line x1="5253.5" y1="765.54" x2="5253.5" y2="788.54" style="fill:none;stroke:#000;stroke-miterlimit:10;stroke-width:3px"/><line x1="5253.5" y1="800.54" x2="5253.5" y2="824.54" style="fill:none;stroke:#000;stroke-miterlimit:10;stroke-width:3px"/><line x1="4206" y1="2395.54" x2="4206" y2="1352.04" style="fill:none;stroke:#000;stroke-miterlimit:10;stroke-width:3px"/><line x1="3699.5" y1="1188.54" x2="3699.5" y2="825.04" style="fill:none;stroke:#000;stroke-miterlimit:10;stroke-width:3px"/><line x1="3700" y1="824.54" x2="1211" y2="824.54" style="fill:none;stroke:#000;stroke-miterlimit:10;stroke-width:3px"/><line x1="1586.6" y1="823.04" x2="1586.6" y2="1190.04" style="fill:none;stroke:#000;stroke-miterlimit:10;stroke-width:3px"/><line x1="1128.7" y1="783.67" x2="1128.7" y2="764.04" style="fill:none;stroke:#000;stroke-miterlimit:10;stroke-width:3px"/><circle cx="1128.7" cy="789.57" r="5.9" style="fill:none;stroke:#000;stroke-miterlimit:10;stroke-width:3px"/><line x1="1128.7" y1="822.54" x2="1128.7" y2="795.47" style="fill:none;stroke:#000;stroke-miterlimit:10;stroke-width:3px"/><polygon points="1103.2 813.83 1113.7 795.64 1092.7 795.64 1103.2 813.83"/><text transform="translate(1096.31 784.76)" style="font-size:24px;font-family:Poppins-Regular, Poppins">R</text><circle cx="2869.43" cy="1345.76" r="6" style="fill:none;stroke:#000;stroke-miterlimit:10;stroke-width:3px"/><polygon points="2843.93 1369.59 2854.43 1351.4 2833.43 1351.4 2843.93 1369.59"/><text transform="translate(2837.04 1340.51)" style="font-size:24px;font-family:Poppins-Regular, Poppins">R</text><line x1="2870" y1="1320.04" x2="2870" y2="1340.04" style="fill:none;stroke:#000;stroke-miterlimit:10;stroke-width:3px"/><line x1="2870" y1="1372.04" x2="2870" y2="1352.04" style="fill:none;stroke:#000;stroke-miterlimit:10;stroke-width:3px"/><circle cx="2870.03" cy="1660.26" r="6" style="fill:none;stroke:#000;stroke-miterlimit:10;stroke-width:3px"/><polygon points="2844.53 1659.84 2834.03 1678.03 2855.03 1678.03 2844.53 1659.84"/><text transform="translate(2837.64 1655.02)" style="font-size:24px;font-family:Poppins-Regular, Poppins">R</text><line x1="2870.6" y1="1502.04" x2="2870.6" y2="1654.55" style="fill:none;stroke:#000;stroke-miterlimit:10;stroke-width:3px"/><line x1="2870.6" y1="1736.04" x2="2870.6" y2="1666.55" style="fill:none;stroke:#000;stroke-miterlimit:10;stroke-width:3px"/><path d="M2989.79,1497" transform="translate(-92.29 -48.98)" style="fill:none;stroke:gray;stroke-miterlimit:10"/><path d="M2771.29,1491" transform="translate(-92.29 -48.98)" style="fill:none;stroke:gray;stroke-miterlimit:10"/><path d="M2862.79,1533.53" transform="translate(-92.29 -48.98)" style="fill:none"/><path d="M2775.79,1481.53" transform="translate(-92.29 -48.98)" style="fill:none"/><path d="M2857.79,1523.53" transform="translate(-92.29 -48.98)" style="fill:none"/><path d="M3296.79,1515.33c75.15,48.13,146.23,49,213.86,9.55" transform="translate(-92.29 -48.98)" style="fill:none;stroke:#000;stroke-miterlimit:10;stroke-width:3px"/><polygon points="3416.99 1489.68 3415.14 1477.75 3405.27 1470.8 3433.5 1466.34 3416.99 1489.68"/><path d="M3522.79,1458c-74.08-47.34-144.16-48.27-210.83-9.53" transform="translate(-92.29 -48.98)" style="fill:none;stroke:#000;stroke-miterlimit:10;stroke-width:3px"/><polygon points="3221.04 1385.68 3222.88 1397.61 3232.74 1404.57 3204.5 1408.99 3221.04 1385.68"/><path d="M3642.36,2303c27.52,17.63,53.71,19.88,78.76,8.76" transform="translate(-92.29 -48.98)" style="fill:none;stroke:#000;stroke-miterlimit:10;stroke-width:3px"/><polygon points="3626.54 2276.26 3625.42 2264.24 3616 2256.71 3644.45 2253.99 3626.54 2276.26"/><path d="M3735.51,2279.33c-27.08-17.3-52.85-19.56-77.5-8.72" transform="translate(-92.29 -48.98)" style="fill:none;stroke:#000;stroke-miterlimit:10;stroke-width:3px"/><polygon points="3568.04 2208.12 3569.12 2220.14 3578.53 2227.7 3550.07 2230.35 3568.04 2208.12"/><path d="M3642.06,2389.84c27.52,17.62,53.71,19.88,78.76,8.76" transform="translate(-92.29 -48.98)" style="fill:none;stroke:#000;stroke-miterlimit:10;stroke-width:3px"/><polygon points="3626.24 2363.13 3625.12 2351.11 3615.7 2343.57 3644.15 2340.85 3626.24 2363.13"/><path d="M3735.21,2366.2c-27.08-17.3-52.85-19.56-77.51-8.72" transform="translate(-92.29 -48.98)" style="fill:none;stroke:#000;stroke-miterlimit:10;stroke-width:3px"/><polygon points="3567.74 2294.99 3568.82 2307.01 3578.23 2314.57 3549.77 2317.22 3567.74 2294.99"/><line x1="4015" y1="1993.04" x2="4105" y2="1993.04" style="fill:none;stroke:#000;stroke-miterlimit:10;stroke-width:3px"/><line x1="4105.5" y1="1993.54" x2="4105.5" y2="1534.04" style="fill:none;stroke:#000;stroke-miterlimit:10;stroke-width:3px"/><line x1="3323" y1="1534.04" x2="4105" y2="1534.04" style="fill:none;stroke:#000;stroke-miterlimit:10;stroke-width:3px"/><line x1="3324" y1="1534.54" x2="3324" y2="1506.54" style="fill:none;stroke:#000;stroke-miterlimit:10;stroke-width:3px"/><line x1="3324" y1="1501.54" x2="3324" y2="1375.04" style="fill:none;stroke:#000;stroke-miterlimit:10;stroke-width:3px"/><line x1="3324" y1="1369.54" x2="3324" y2="1161.54" style="fill:none;stroke:#000;stroke-miterlimit:10;stroke-width:3px"/><line x1="2878.5" y1="1161.04" x2="3324.5" y2="1161.04" style="fill:none;stroke:#000;stroke-miterlimit:10;stroke-width:3px"/><line x1="2878" y1="1161.54" x2="2878" y2="880.04" style="fill:none;stroke:#000;stroke-miterlimit:10;stroke-width:3px"/><line x1="2328.5" y1="881.04" x2="2877.5" y2="879.54" style="fill:none;stroke:#000;stroke-miterlimit:10;stroke-width:3px"/><line x1="2316.5" y1="880.04" x2="1685.5" y2="879.04" style="fill:none;stroke:#000;stroke-miterlimit:10;stroke-width:3px"/><line x1="1686" y1="1067.04" x2="1686" y2="879.04" style="fill:none;stroke:#000;stroke-miterlimit:10;stroke-width:3px"/><line x1="564" y1="1067.04" x2="1686" y2="1067.04" style="fill:none;stroke:#000;stroke-miterlimit:10;stroke-width:3px"/><line x1="564" y1="1189.04" x2="564" y2="1067.04" style="fill:none;stroke:#000;stroke-miterlimit:10;stroke-width:3px"/><line x1="3547" y1="2447.04" x2="3679.5" y2="2447.04" style="fill:none;stroke:#000;stroke-miterlimit:10;stroke-width:3px"/><line x1="3550" y1="2695.04" x2="3675" y2="2695.04" style="fill:none;stroke:#000;stroke-miterlimit:10;stroke-width:3px"/><line x1="3687" y1="2695.04" x2="3823" y2="2695.04" style="fill:none;stroke:#000;stroke-miterlimit:10;stroke-width:3px"/><line x1="3823" y1="2695.04" x2="3823" y2="3249.04" style="fill:none;stroke:#000;stroke-miterlimit:10;stroke-width:3px"/><line x1="3823.5" y1="3249.04" x2="5683.5" y2="3249.04" style="fill:none;stroke:#000;stroke-miterlimit:10;stroke-width:3px"/><line x1="5683" y1="3010.04" x2="5683" y2="3249.04" style="fill:none;stroke:#000;stroke-miterlimit:10;stroke-width:3px"/><line x1="3308" y1="2203.04" x2="3308" y2="2186.04" style="fill:none;stroke:#000;stroke-miterlimit:10;stroke-width:3px"/><line x1="4044" y1="2186.04" x2="3308" y2="2186.04" style="fill:none;stroke:#000;stroke-miterlimit:10;stroke-width:3px"/><line x1="4044" y1="2688.04" x2="4044" y2="2186.04" style="fill:none;stroke:#000;stroke-miterlimit:10;stroke-width:3px"/><line x1="4046" y1="2700.04" x2="4046" y2="3149.04" style="fill:none;stroke:#000;stroke-miterlimit:10;stroke-width:3px"/><line x1="308.67" y1="787.42" x2="308.67" y2="765.04" style="fill:none;stroke:#000;stroke-miterlimit:10;stroke-width:3px"/><circle cx="308.67" cy="793.42" r="6" style="fill:none;stroke:#000;stroke-miterlimit:10;stroke-width:3px"/><line x1="308.67" y1="822.48" x2="308.67" y2="798.98" style="fill:none;stroke:#000;stroke-miterlimit:10;stroke-width:3px"/><polygon points="283.17 817.25 293.67 799.06 272.67 799.06 283.17 817.25"/><text transform="translate(276.27 788.18)" style="font-size:24px;font-family:Poppins-Regular, Poppins">R</text><line x1="735.09" y1="787.53" x2="735.09" y2="765.16" style="fill:none;stroke:#000;stroke-miterlimit:10;stroke-width:3px"/><circle cx="735.09" cy="793.53" r="6" style="fill:none;stroke:#000;stroke-miterlimit:10;stroke-width:3px"/><line x1="735.09" y1="822.16" x2="735.09" y2="799.53" style="fill:none;stroke:#000;stroke-miterlimit:10;stroke-width:3px"/><polygon points="709.59 817.36 720.09 799.18 699.09 799.18 709.59 817.36"/><text transform="translate(702.7 788.29)" style="font-size:24px;font-family:Poppins-Regular, Poppins">R</text><line x1="1129" y1="821.04" x2="309" y2="821.04" style="fill:none;stroke:#000;stroke-miterlimit:10;stroke-width:3px"/><line x1="735" y1="822.04" x2="735" y2="963.04" style="fill:none;stroke:#000;stroke-miterlimit:10;stroke-width:3px"/><line x1="428" y1="963.04" x2="735" y2="963.04" style="fill:none;stroke:#000;stroke-miterlimit:10;stroke-width:3px"/><line x1="428" y1="1189.04" x2="428" y2="963.04" style="fill:none;stroke:#000;stroke-miterlimit:10;stroke-width:3px"/><line x1="504" y1="1714.04" x2="1744" y2="1714.04" style="fill:none;stroke:#000;stroke-miterlimit:10;stroke-width:3px"/><line x1="1744" y1="2504.54" x2="1744" y2="1714.54" style="fill:none;stroke:#000;stroke-miterlimit:10;stroke-width:3px"/><line x1="1641.62" y1="2503.04" x2="1743.5" y2="2503.04" style="fill:none;stroke:#000;stroke-miterlimit:10;stroke-width:3px"/><line x1="1641.62" y1="2334.04" x2="1743.5" y2="2334.04" style="fill:none;stroke:#000;stroke-miterlimit:10;stroke-width:3px"/><line x1="1640" y1="2162.04" x2="1743.5" y2="2162.04" style="fill:none;stroke:#000;stroke-miterlimit:10;stroke-width:3px"/><line x1="1641.62" y1="2015.04" x2="1743.5" y2="2015.04" style="fill:none;stroke:#000;stroke-miterlimit:10;stroke-width:3px"/><line x1="1641" y1="1972.04" x2="1832" y2="1972.04" style="fill:none;stroke:#000;stroke-miterlimit:10;stroke-width:3px"/><line x1="1783" y1="1258.04" x2="1832" y2="1258.04" style="fill:none;stroke:#000;stroke-miterlimit:10;stroke-width:3px"/><line x1="1831" y1="1341.04" x2="1831" y2="1258.04" style="fill:none;stroke:#000;stroke-miterlimit:10;stroke-width:3px"/><line x1="6569" y1="2515.04" x2="6569" y2="825.04" style="fill:none;stroke:#000;stroke-miterlimit:10;stroke-width:3px"/><line x1="1831" y1="1354.54" x2="1831" y2="1972.04" style="fill:none;stroke:#000;stroke-miterlimit:10;stroke-width:3px"/><line x1="4152.5" y1="1251.04" x2="4207.5" y2="1251.04" style="fill:none;stroke:#000;stroke-miterlimit:10;stroke-width:3px"/><text transform="translate(545.61 3680.3)" style="font-size:72px;font-family:Poppins-Regular, Poppins">D = Deployment</text><text transform="translate(2171.65 3685.59)" style="font-size:72px;font-family:Poppins-Regular, Poppins">DS = DaemonSet</text><text transform="translate(3827.9 3685.71)" style="font-size:72px;font-family:Poppins-Regular, Poppins">SS = StatefulSet</text><text transform="translate(5359.4 3696.96)" style="font-size:72px;font-family:Poppins-Regular, Poppins">PV = Persistent Volume</text><line x1="4206" y1="1250.04" x2="4206" y2="1341.54" style="fill:none;stroke:#000;stroke-miterlimit:10;stroke-width:3px"/><circle cx="6467.83" cy="2340.87" r="6" style="fill:none;stroke:#000;stroke-miterlimit:10;stroke-width:3px"/><polygon points="6454.45 2352.58 6436.27 2342.08 6436.27 2363.08 6454.45 2352.58"/><text transform="translate(6435.43 2335.63)" style="font-size:24px;font-family:Poppins-Regular, Poppins">R</text><line x1="6362.21" y1="2340.35" x2="6462.21" y2="2340.35" style="fill:none;stroke:#000;stroke-miterlimit:10;stroke-width:3px"/><line x1="6473.71" y1="2340.35" x2="6570.21" y2="2340.35" style="fill:none;stroke:#000;stroke-miterlimit:10;stroke-width:3px"/><circle cx="6466.83" cy="2514.87" r="6" style="fill:none;stroke:#000;stroke-miterlimit:10;stroke-width:3px"/><polygon points="6453.45 2526.58 6435.27 2516.08 6435.27 2537.08 6453.45 2526.58"/><text transform="translate(6434.43 2509.63)" style="font-size:24px;font-family:Poppins-Regular, Poppins">R</text><line x1="6361.21" y1="2514.35" x2="6461.21" y2="2514.35" style="fill:none;stroke:#000;stroke-miterlimit:10;stroke-width:3px"/><line x1="6472.71" y1="2514.35" x2="6569.21" y2="2514.35" style="fill:none;stroke:#000;stroke-miterlimit:10;stroke-width:3px"/><text transform="translate(604.8 508.54)" style="font-size:100px;font-family:Poppins-Regular, Poppins">Administrator</text><line x1="448.5" y1="140.04" x2="1442.5" y2="138.04" style="fill:none;stroke:#000;stroke-miterlimit:10;stroke-width:6px"/><line x1="2917" y1="146.04" x2="3726" y2="146.04" style="fill:none;stroke:#000;stroke-miterlimit:10;stroke-width:6px"/><line x1="5266" y1="146.04" x2="6151" y2="146.04" style="fill:none;stroke:#000;stroke-miterlimit:10;stroke-width:6px"/><path d="M932.2,1510.8c75.14,48.13,146.23,49,213.85,9.55" transform="translate(-92.29 -48.98)" style="fill:none;stroke:#000;stroke-miterlimit:10;stroke-width:3px"/><polygon points="1052.39 1485.15 1050.54 1473.22 1040.67 1466.28 1068.9 1461.81 1052.39 1485.15"/><path d="M1158.2,1453.44c-74.09-47.34-144.17-48.27-210.84-9.53" transform="translate(-92.29 -48.98)" style="fill:none;stroke:#000;stroke-miterlimit:10;stroke-width:3px"/><polygon points="856.44 1381.15 858.28 1393.08 868.14 1400.04 839.9 1404.46 856.44 1381.15"/><line x1="2219" y1="823.04" x2="2219" y2="3308.04" style="fill:none;stroke:#000;stroke-miterlimit:10;stroke-width:3px"/><line x1="2219" y1="3308.04" x2="2378" y2="3308.04" style="fill:none;stroke:#000;stroke-miterlimit:10;stroke-width:3px"/><line x1="3693" y1="2447.04" x2="4658" y2="2447.04" style="fill:none;stroke:#000;stroke-miterlimit:10;stroke-width:3px"/><line x1="5254" y1="881.04" x2="5254" y2="1188.04" style="fill:none;stroke:#000;stroke-miterlimit:10;stroke-width:3px"/></svg>