<?xml version="1.0" encoding="UTF-8"?>
<svg id="Layer_1" xmlns="http://www.w3.org/2000/svg" xmlns:xlink="http://www.w3.org/1999/xlink" version="1.1" viewBox="0 0 595.3 170.1">
  <!-- Generator: Adobe Illustrator 29.1.0, SVG Export Plug-In . SVG Version: 2.1.0 Build 142)  -->
  <defs>
    <style>
      .st0 {
        isolation: isolate;
        opacity: .3;
      }

      .st1 {
        fill: #009f76;
      }

      .st2 {
        fill: url(#linear-gradient);
      }

      .st2, .st3, .st4, .st5 {
        fill-rule: evenodd;
      }

      .st3 {
        fill: url(#linear-gradient1);
      }

      .st4 {
        fill: url(#linear-gradient2);
      }

      .st5 {
        fill: url(#linear-gradient3);
      }
    </style>
    <linearGradient id="linear-gradient" x1="-129.5" y1="657.9" x2="-128.5" y2="656.6" gradientTransform="translate(-3228.7 15868.5) rotate(-180) scale(25.9 24)" gradientUnits="userSpaceOnUse">
      <stop offset="0" stop-color="#fff"/>
      <stop offset="1" stop-color="#439246"/>
    </linearGradient>
    <linearGradient id="linear-gradient1" x1="-129.1" y1="657.6" x2="-127.9" y2="655.5" gradientTransform="translate(-3176 15861.4) rotate(-180) scale(25.4 24)" gradientUnits="userSpaceOnUse">
      <stop offset="0" stop-color="#fff"/>
      <stop offset="1" stop-color="#439246"/>
    </linearGradient>
    <linearGradient id="linear-gradient2" x1="-118.1" y1="664.6" x2="-117.3" y2="663.5" gradientTransform="translate(4927.1 23009.8) scale(41.1 -34.5)" gradientUnits="userSpaceOnUse">
      <stop offset="0" stop-color="#fff"/>
      <stop offset="1" stop-color="#439246"/>
    </linearGradient>
    <linearGradient id="linear-gradient3" x1="-117.4" y1="664.1" x2="-116.4" y2="662.5" gradientTransform="translate(4884.2 22864) scale(40.7 -34.3)" gradientUnits="userSpaceOnUse">
      <stop offset="0" stop-color="#fff"/>
      <stop offset="1" stop-color="#439246"/>
    </linearGradient>
  </defs>
  <g>
    <g>
      <path class="st1" d="M157.7,97.7l-9.9-43.2c-.3-1.4-1.6-3-2.9-3.6l-39.9-19.2c-1.3-.6-3.3-.6-4.6,0l-39.9,19.2c-1.3.6-2.6,2.2-2.9,3.6l-6.7,29.4,35.4-21.5,41.6,42.6-38.4,33.9h35.3c1.4,0,3.3-.9,4.1-2l27.6-34.7c.9-1.1,1.3-3.1,1-4.5Z"/>
      <path class="st1" d="M86.3,62.4l-35.4,21.5-3.2,13.8c-.3,1.4.1,3.4,1,4.5l27.6,34.7c.9,1.1,2.7,2,4.1,2h9l38.4-33.9-41.6-42.6Z"/>
      <path class="st0" d="M86.3,62.4l-35.4,21.5-3.2,13.8c-.3,1.4.1,3.4,1,4.5l27.6,34.7c.9,1.1,2.7,2,4.1,2h9l38.4-33.9-41.6-42.6Z"/>
    </g>
    <path id="Combined-Shape" class="st2" d="M85.2,80.5c.6,1.5,1.6,3,2.8,3.7l10.3,6.7c1.8,1.2,4.6,1.2,6.4,0l10.3-6.7c1.8-1.2,3.2-3.8,3.2-5.9v-14.2c0-.9-.3-2-.7-2.9l-32.2,19.3Z"/>
    <path id="Combined-Shape1" data-name="Combined-Shape" class="st3" d="M86,62.5c-.5,1-.7,2-.7,2.9v14.2c0,2.1,1.4,4.8,3.2,5.9l10.3,6.7c1.8,1.2,4.6,1.2,6.4,0l10.3-6.7c.9-.6,1.6-1.5,2.2-2.5l-31.7-20.5Z"/>
    <path id="Combined-Shape2" data-name="Combined-Shape" class="st4" d="M128.7,103.3c-.6,1.3-1.6,2.5-2.7,3.1l-19.9,11.5c-1.8,1.1-4.8,1.1-6.6,0l-19.9-11.5c-1.8-1.1-3.3-3.6-3.3-5.7v-23c0-1,.3-2.1.8-3l51.5,28.6Z"/>
    <path id="Combined-Shape3" data-name="Combined-Shape" class="st5" d="M128.6,75c.4.9.7,1.9.7,2.8v23c0,2.1-1.5,4.7-3.3,5.7l-19.9,11.5c-1.8,1.1-4.8,1.1-6.6,0l-19.9-11.5c-.8-.5-1.6-1.3-2.2-2.3l51.2-29.2Z"/>
  </g>
  <g>
    <path d="M187.6,87.2c0-4.9.6-9.4,1.9-13.4,1.3-4,3.1-7.3,5.5-10.1,2.4-2.8,5.2-4.9,8.4-6.4,3.2-1.5,6.8-2.2,10.7-2.2,6.1,0,11.1,1.6,15.1,4.7,4,3.1,6.8,8,8.5,14.6l-7.4,1.8c-1.5-5-3.4-8.6-6-10.9-2.5-2.3-6-3.4-10.3-3.4s-4.8.5-7.1,1.4c-2.3.9-4.3,2.5-6,4.5-1.7,2.1-3.1,4.7-4.2,7.8-1.1,3.1-1.6,6.9-1.6,11.3s.5,8.2,1.4,11.5,2.3,6,4,8.2c1.7,2.2,3.7,3.8,6.1,4.9,2.4,1.1,4.9,1.6,7.7,1.6,4.9,0,8.8-1.6,11.8-4.7,3-3.1,4.5-7.6,4.6-13.4h-14.2v-6.3h21.5v29.9h-6.5v-9.3h-.2c-.6,1.3-1.5,2.6-2.5,3.8-1,1.3-2.2,2.4-3.7,3.4s-3.1,1.8-5,2.4c-1.9.6-4.1.9-6.5.9-4.2,0-7.9-.8-11.1-2.5s-5.9-3.9-8.2-6.8c-2.2-2.9-3.9-6.3-5-10.3s-1.7-8.4-1.7-13.1Z"/>
    <path d="M248.2,108c0-2.2.5-4.3,1.6-6.2,1-1.9,2.7-3.6,5.1-5.2s5.4-2.9,9.2-4.1,8.5-2.2,14-2.9v-2c0-5.4-2.8-8.1-8.4-8.1s-6.4.6-8.9,1.9-5,2.8-7.2,4.7l-3.8-4.5c2.6-2.4,5.6-4.4,9-6,3.4-1.6,7.3-2.4,11.8-2.4s4.9.3,6.8,1c1.9.7,3.4,1.6,4.6,2.9,1.2,1.3,2.1,2.8,2.6,4.7s.8,4,.8,6.3v19.5c0,2.7,0,5,.3,6.7.2,1.8.5,3.2,1,4.3h-7.5c-.3-1-.6-1.9-.7-2.9-.2-.9-.3-2.1-.3-3.4-4.9,4.7-10.6,7-17.2,7s-7-1-9.2-2.9c-2.3-2-3.4-4.8-3.4-8.4ZM255.4,106.9c0,2.1.7,3.7,2,4.9,1.3,1.1,3.2,1.7,5.5,1.7s5.7-.6,8.2-1.7c2.5-1.1,4.8-2.7,6.9-4.7v-12.4c-4.2.7-7.8,1.4-10.6,2.3-2.9.8-5.2,1.8-7,2.8s-3,2.2-3.8,3.3-1.1,2.5-1.1,3.9Z"/>
    <path d="M297.6,118.6v-44.5h7.2v8.2h.2c1.6-2.6,3.8-4.8,6.6-6.5s6.3-2.7,10.6-2.7h.9l-.5,6.8c-.1,0-.5,0-1.1,0h-1c-3.5,0-6.6.9-9.3,2.6-2.6,1.7-4.8,4.2-6.4,7.4v28.7h-7.2Z"/>
    <path d="M326.5,96.5c0-3.9.5-7.3,1.4-10.2,1-2.9,2.3-5.3,4-7.3,1.7-1.9,3.7-3.4,6-4.4,2.3-1,4.8-1.5,7.5-1.5s5.2.6,7.7,1.8c2.4,1.2,4.5,2.8,6.2,4.8v-23.6h7.2v51.5c0,2.7,0,4.9.3,6.7.2,1.7.5,3.2,1.1,4.3h-7.6c-.3-.7-.5-1.7-.7-2.8-.2-1.2-.3-2.3-.3-3.4-1.8,2-3.9,3.6-6.2,4.9s-5.1,2-8.5,2-4.9-.5-7.1-1.4c-2.2-.9-4.1-2.3-5.8-4.2-1.6-1.9-2.9-4.2-3.9-7.1-.9-2.9-1.4-6.2-1.4-10.1ZM333.7,96.6c0,2.9.3,5.4,1,7.4.6,2.1,1.5,3.8,2.7,5.2,1.1,1.4,2.5,2.5,4,3.1,1.6.7,3.2,1,5,1,2.6,0,4.9-.6,7-1.9,2.1-1.3,4-2.9,5.9-4.9v-20.4c-2-2.2-4-3.8-6.1-5s-4.3-1.7-6.7-1.7c-3.9,0-7,1.4-9.3,4.2-2.3,2.8-3.5,7.1-3.5,13Z"/>
    <path d="M376.9,96.3c0-4,.6-7.5,1.8-10.4,1.2-2.9,2.8-5.3,4.7-7.2,1.9-1.9,4.1-3.3,6.5-4.2,2.4-.9,4.8-1.4,7.1-1.4s5.1.5,7.3,1.4c2.3.9,4.2,2.4,5.9,4.3,1.7,1.9,3,4.4,3.9,7.3.9,3,1.4,6.5,1.4,10.5v1.5h-31.5c0,2.6.5,4.8,1.2,6.7.7,1.9,1.7,3.5,2.9,4.8,1.2,1.3,2.6,2.3,4.2,3,1.6.7,3.3,1,5.2,1,3.2,0,5.8-.6,7.8-1.9,2-1.2,3.9-3,5.6-5.4l4.2,3.7c-2.1,3-4.6,5.3-7.5,7-2.9,1.7-6.4,2.5-10.6,2.5s-5.2-.5-7.6-1.4c-2.4-1-4.6-2.4-6.4-4.4-1.9-1.9-3.3-4.4-4.5-7.3-1.1-2.9-1.7-6.3-1.7-10.2ZM384.3,92.3h24.4c-.3-3.9-1.4-7-3.3-9.3-1.9-2.4-4.7-3.6-8.4-3.6s-3,.3-4.4.8c-1.4.5-2.7,1.3-3.8,2.4-1.1,1.1-2.1,2.4-2.9,4-.8,1.6-1.3,3.5-1.6,5.8Z"/>
    <path d="M426,118.6v-44.5h7.2v6.6c1-.9,2-1.9,3.2-2.8,1.2-.9,2.5-1.7,3.9-2.5,1.4-.7,2.9-1.3,4.5-1.7,1.6-.4,3.3-.6,5.1-.6,4.3,0,7.6,1.2,9.8,3.5,2.3,2.3,3.4,5.6,3.4,9.8v32.1h-7.2v-30.5c0-3-.7-5.2-2-6.6-1.3-1.4-3.4-2.1-6.2-2.1s-5.2.6-7.5,1.9c-2.3,1.3-4.6,3-7,5.2v32h-7.2Z"/>
    <path d="M473,96.3c0-4,.6-7.5,1.8-10.4,1.2-2.9,2.8-5.3,4.7-7.2,1.9-1.9,4.1-3.3,6.5-4.2,2.4-.9,4.8-1.4,7.1-1.4s5.1.5,7.3,1.4c2.3.9,4.2,2.4,5.9,4.3,1.7,1.9,3,4.4,3.9,7.3.9,3,1.4,6.5,1.4,10.5v1.5h-31.5c0,2.6.5,4.8,1.2,6.7.7,1.9,1.7,3.5,2.9,4.8,1.2,1.3,2.6,2.3,4.2,3,1.6.7,3.3,1,5.2,1,3.2,0,5.8-.6,7.8-1.9,2-1.2,3.9-3,5.6-5.4l4.2,3.7c-2.1,3-4.6,5.3-7.5,7-2.9,1.7-6.4,2.5-10.6,2.5s-5.2-.5-7.6-1.4c-2.4-1-4.6-2.4-6.4-4.4-1.9-1.9-3.3-4.4-4.5-7.3-1.1-2.9-1.7-6.3-1.7-10.2ZM480.4,92.3h24.4c-.3-3.9-1.4-7-3.3-9.3-1.9-2.4-4.7-3.6-8.4-3.6s-3,.3-4.4.8c-1.4.5-2.7,1.3-3.8,2.4-1.1,1.1-2.1,2.4-2.9,4-.8,1.6-1.3,3.5-1.6,5.8Z"/>
    <path d="M522.1,118.6v-44.5h7.2v8.2h.2c1.6-2.6,3.8-4.8,6.6-6.5s6.3-2.7,10.6-2.7h.9l-.5,6.8c-.1,0-.5,0-1.1,0h-1c-3.5,0-6.6.9-9.3,2.6-2.6,1.7-4.8,4.2-6.4,7.4v28.7h-7.2Z"/>
  </g>
</svg>