<?xml version="1.0" encoding="UTF-8"?>
<svg width="371px" height="362px" viewBox="0 0 371 362" version="1.1" xmlns="http://www.w3.org/2000/svg" xmlns:xlink="http://www.w3.org/1999/xlink">
    <title>Group</title>
    <defs>
        <path d="M49.108305,1.16930168 C50.2766682,0.605265438 52.1758086,0.607606508 53.3393225,1.16930168 L90.0600369,18.8965058 C91.2284001,19.460542 92.410669,20.9504569 92.6980331,22.2125744 L101.767301,62.0452405 C102.055862,63.3126185 101.630987,65.1681709 100.825811,66.1803105 L75.4142878,98.1236286 C74.6057554,99.1399868 72.8936757,99.9639078 71.6022728,99.9639078 L30.8453547,99.9639078 C29.5485693,99.9639078 27.8385161,99.1357683 27.0333396,98.1236286 L1.62181681,66.1803105 C0.813284365,65.1639524 0.392962639,63.3073581 0.680326833,62.0452405 L9.74959431,22.2125744 C10.0381562,20.9451966 11.2240767,19.458201 12.3875906,18.8965058 L49.108305,1.16930168 Z" id="path-1"></path>
        <linearGradient x1="12.7542673%" y1="-19.2223877%" x2="88.2666158%" y2="84.8901492%" id="linearGradient-3">
            <stop stop-color="#FFFFFF" offset="0%"></stop>
            <stop stop-color="#439246" offset="100%"></stop>
        </linearGradient>
        <linearGradient x1="50%" y1="6.03898894%" x2="148.756007%" y2="172.444427%" id="linearGradient-4">
            <stop stop-color="#FFFFFF" offset="0%"></stop>
            <stop stop-color="#439246" offset="100%"></stop>
        </linearGradient>
        <linearGradient x1="19.1574381%" y1="-11.0287688%" x2="82.2203149%" y2="78.8446158%" id="linearGradient-5">
            <stop stop-color="#FFFFFF" offset="0%"></stop>
            <stop stop-color="#439246" offset="100%"></stop>
        </linearGradient>
        <linearGradient x1="57.4403751%" y1="25.8198539%" x2="137.966711%" y2="160.339323%" id="linearGradient-6">
            <stop stop-color="#FFFFFF" offset="0%"></stop>
            <stop stop-color="#439246" offset="100%"></stop>
        </linearGradient>
    </defs>
    <g id="Page-1" stroke="none" stroke-width="1" fill="none" fill-rule="evenodd">
        <g id="Group">
            <text id="gardenadm" font-family="Silom" font-size="60" font-weight="bold" fill="#009F76">
                <tspan x="0" y="343">gardenadm</tspan>
            </text>
            <g transform="translate(127.000000, 92.000000)">
                <g id="Rectangle-2">
                    <g id="Mask" fill="#009F76" fill-rule="nonzero">
                        <path d="M49.108305,1.16930168 C50.2766682,0.605265438 52.1758086,0.607606508 53.3393225,1.16930168 L90.0600369,18.8965058 C91.2284001,19.460542 92.410669,20.9504569 92.6980331,22.2125744 L101.767301,62.0452405 C102.055862,63.3126185 101.630987,65.1681709 100.825811,66.1803105 L75.4142878,98.1236286 C74.6057554,99.1399868 72.8936757,99.9639078 71.6022728,99.9639078 L30.8453547,99.9639078 C29.5485693,99.9639078 27.8385161,99.1357683 27.0333396,98.1236286 L1.62181681,66.1803105 C0.813284365,65.1639524 0.392962639,63.3073581 0.680326833,62.0452405 L9.74959431,22.2125744 C10.0381562,20.9451966 11.2240767,19.458201 12.3875906,18.8965058 L49.108305,1.16930168 Z" id="path-1"></path>
                    </g>
                    <g id="Clipped">
                        <mask id="mask-2" fill="white">
                            <use xlink:href="#path-1"></use>
                        </mask>
                        <g id="path-1"></g>
                        <polygon id="Path" fill="#000000" fill-rule="nonzero" opacity="0.289628623" mask="url(#mask-2)" points="-20.6912716 64.0799115 36.1387393 29.4753132 74.4162176 68.7546887 28.9966326 108.913239"></polygon>
                    </g>
                </g>
                <path d="M65,46.6271157 C64.49923,48.0067124 63.5585921,49.3322867 62.4733142,50.0457305 L53.1035307,56.2052709 C51.4956922,57.2622373 48.8969963,57.2675787 47.2810325,56.2052709 L37.911249,50.0457305 C36.3034106,48.988764 35,46.564573 35,44.6298076 L35,31.6597308 C35,30.8145732 35.2473168,29.8767572 35.6606372,29 L65,46.6271157 Z" id="Combined-Shape" fill="url(#linearGradient-3)" fill-rule="nonzero" transform="translate(50.000000, 43.000000) scale(-1, 1) translate(-50.000000, -43.000000) "></path>
                <path d="M64.3330065,30 C64.7499193,30.873292 65,31.8064085 65,32.6471526 L65,45.6236673 C65,47.5587926 63.6825794,49.9794435 62.0390004,51.0422785 L52.5090958,57.2048765 C50.8737808,58.2623675 48.2306755,58.2677115 46.5870965,57.2048765 L37.0571919,51.0422785 C36.2579683,50.5254534 35.5327014,49.6818981 35,48.7284563 L64.3330065,30 Z" id="Combined-Shape" fill="url(#linearGradient-4)" fill-rule="nonzero" transform="translate(50.000000, 44.000000) scale(-1, 1) translate(-50.000000, -44.000000) "></path>
                <path d="M76,67.6680542 C75.4487441,68.8753503 74.5584028,69.9719157 73.555771,70.5604144 L55.3190341,81.2645398 C53.6470293,82.2459296 50.9335284,82.2443768 49.2641693,81.2645398 L31.0274324,70.5604144 C29.3554276,69.5790246 28,67.189198 28,65.229524 L28,43.8212731 C28,42.9113876 28.291846,41.9100646 28.771257,41 L76,67.6680542 Z" id="Combined-Shape" fill="url(#linearGradient-5)" fill-rule="nonzero"></path>
                <path d="M75.3647441,41 C75.7627296,41.8248994 76,42.7096202 76,43.519504 L76,64.5362305 C76,66.4631139 74.6585317,68.8077098 73.0095837,69.769627 L54.9958255,80.2779903 C53.3442642,81.241432 50.6639409,81.2399075 49.0149929,80.2779903 L31.0012347,69.769627 C30.2316503,69.3206883 29.5299643,68.5715263 29,67.7047631 L75.3647441,41 Z" id="Combined-Shape" fill="url(#linearGradient-6)" fill-rule="nonzero"></path>
            </g>
            <path d="M134.21159,202.52079 C107.03407,163.5441 86.57436,121.9322 83.62914,73.50079 C82.86199,60.88543 84.50314,48.52179 89.80296,36.85559 C93.51517,28.68408 98.45296,20.72832 107.14088,18.19096 C117.94038,15.0369 123.56626,5.17072 133.51709,2.03615 C137.697736,0.620749918 142.228034,0.620749918 146.40868,2.03615 C148.43089,2.60812405 150.374011,3.42967067 152.1932,4.48183 C160.3312,9.78654 164.4126,18.68188 162.76168,27.62397 C160.966287,36.7270419 153.86925,43.8552721 144.77414,45.69057 C135.90077,47.59523 126.75177,43.62357 121.46751,35.57279 C116.94462,28.68208 114.27801,28.31093 108.28965,34.56879 C98.99349,44.28325 97.08054,56.73279 96.96209,69.36779 C96.70609,96.67093 104.74336,122.14961 115.51357,146.84084 C123.490478,165.27787 133.538379,182.747863 145.46357,198.91403 C149.64847,204.55739 150.09832,203.35062 155.49315,211.44288 C158.95291,211.07049 153.42867,213.78049 156.10751,213.02563 C159.64666,216.90585 163.28219,220.99505 167.04251,224.96609 C168.66303,226.67746 171.03679,228.3179 167.90713,230.38964 C165.62691,231.89904 163.39174,236.54906 160.09806,232.48141" id="Path" fill="#66B98A" fill-rule="nonzero"></path>
            <g opacity="0.49" transform="translate(106.000000, 74.000000)" fill="#A8DABD" fill-rule="nonzero" id="Path">
                <path d="M68.57345,11.39207 C49.08376,11.92984 29.107,13.59266 9.39624,17.96796 C6.7906,18.54636 2.71955,22.65404 1.18937,16.16444 C-0.06086,10.86216 2.43351,9.02132 7.17171,7.85152 C38.32671,0.15985 69.9133,-1.46496 101.73246,1.32352 C127.38646,3.5717 152.41323,8.78011 175.78196,20.16845 C190.11528,27.15353 202.93513,35.98938 211.29234,50.12332 C213.54245,53.92878 215.44197,57.89781 215.99902,62.2478 C217.52693,74.17852 216.9243,84.71855 216.77819,98.29505 C215.9326,109.51005 206.1171,119.38398 194.50451,119.14336 C182.236291,118.878472 172.411865,108.889059 172.35131,96.61813 C172.251,84.3795 181.64454,73.90545 194.27961,74.30086 C203.39637,74.5862 203.04209,69.86124 201.77482,64.13955 C199.64614,54.52855 193.14041,47.71455 185.62182,42.02034 C166.82414,27.78384 144.89057,21.04628 122.17402,16.53951 C104.70942,13.07465 86.995,11.72386 68.57345,11.39207 Z"></path>
            </g>
            <g opacity="0.75" transform="translate(70.000000, 108.000000)" fill="#87C9A3" fill-rule="nonzero" id="Path">
                <path d="M136.89019,114.94005 C121.60127,132.34079 105.01167,148.28018 83.71536,158.06812 C63.85127,167.19783 44.00806,170.54579 26.63694,152.42236 C24.55954,150.25501 22.06954,150.32956 19.51854,149.87136 C6.19154,147.47753 -1.97453,134.68844 1.56605,121.92703 C5.15739,108.9827 18.66723,101.58317 31.06888,106.75127 C42.40218,111.47415 51.14359,126.05997 42.87134,138.23777 C37.29308,146.44961 42.50959,147.91577 48.11345,149.80569 C57.23045,152.88049 65.97251,150.31082 74.50015,147.2174 C85.57797,143.19895 95.20738,136.59581 104.11677,129.06601 C142.71937,96.44092 167.7232,54.87247 183.80949,7.44157 C184.73873,4.70157 183.04572,-1.05152 189.93964,0.90835 C196.46294,2.76283 194.81437,6.62278 193.52339,11.01264 C183.72503,44.33175 167.72969,74.48546 147.00148,102.20739"></path>
            </g>
            <g opacity="0.49" transform="translate(36.000000, 95.000000)" fill="#A8DABD" fill-rule="nonzero" id="Path">
                <path d="M0.21011,47.67787 C0.98085,28.19069 13.7264,16.97519 28.19045,6.96825 C30.0270944,5.54128652 32.0522196,4.37512114 34.2083,3.50288 C36.3783,2.77488 38.84698,-1.78417 41.03214,2.89011 C42.59571,6.23474 43.3382,9.84795 38.39568,12.27611 C31.6343347,15.6859625 25.4469556,20.1307746 20.05717,25.4499 C6.14926,38.8802 5.32661,54.85359 17.94783,69.57743 C24.2834192,76.8210247 32.0236913,82.7029254 40.69964,86.86673 C44.44637,88.72436 46.70721,91.40899 44.7247,94.98045 C42.55446,98.89011 39.46054,95.07345 37.44004,94.04145 C24.35181,87.356 12.64333,78.95393 4.9502,65.92006 C1.78124516,60.3669358 0.145359819,54.0712471 0.21011,47.67787 Z"></path>
            </g>
            <g opacity="0.75" transform="translate(185.000000, 15.000000)" fill="#87C9A3" fill-rule="nonzero" id="Path">
                <path d="M86.331,55.21852 C86.35793,56.4524 87.34957,63.39403 82.78775,63.3739835 C77.26921,63.34963 76.02616,59.7191 76.28233,54.473 C76.8288392,46.0387864 75.6339821,37.5823325 72.77209,29.62971 C67.06882,14.43517 55.21841,7.49909 39.25518,9.79121 C28.8840159,11.3939666 19.0141904,15.3380666 10.39468,21.32421 C6.85268,23.70181 3.47796,24.13513 1.49185,20.64221 C-0.6702,16.83993 4.03447,16.1303 6.05019,14.79973 C16.30319,8.03173 27.23845,2.8276 39.66281,1.31564 C60.00001,-1.15926 77.20042,10.04497 82.66381,29.77974 C84.8881347,38.0844265 86.1191379,46.623722 86.331,55.21852 L86.331,55.21852 Z"></path>
            </g>
            <path d="M270.24276,218.99254 C270.531169,228.015349 269.024342,237.005568 265.80976,245.44125 C257.68669,265.87146 239.33567,275.17545 218.00423,269.6349 C209.009144,267.264177 200.425238,263.544074 192.54484,258.60128 C190.84184,257.54446 186.15972,257.17943 189.38825,253.46364 C191.39018,251.15964 193.63265,247.54969 198.05405,250.59764 C204.55097,255.07643 211.83484,258.01515 219.36986,260.29743 C237.39369,265.75653 252.62291,258.03694 258.76167,240.23589 C261.772848,231.413633 263.067609,222.096567 262.57607,212.78755 C262.39326,208.87819 262.13876,204.25923 267.37677,204.45934 C271.98563,204.63544 269.50203,209.39176 270.13553,212.04819 C270.65981,214.24656 270.24276,216.66927 270.24276,218.99254 Z" id="Path" fill="#66B98A" fill-rule="nonzero"></path>
            <g opacity="0.75" transform="translate(87.000000, 161.000000)" fill="#87C9A3" fill-rule="nonzero" id="Path">
                <path d="M10.64337,0.20141 C14.67148,2.79277 13.80529,5.97847 12.86185,9.05424 C9.28836345,20.1460529 6.80106059,31.5588407 5.435,43.13174 C5.24292,44.97163 5.6026,47.96191 2.6603,47.55439 C-0.1976,47.15859 0.96482,44.28307 1.14041,42.53654 C2.51229986,28.080901 5.70524089,13.8565358 10.64337,0.20141 L10.64337,0.20141 Z"></path>
            </g>
            <path d="M203.31034,64.86113 C199.55058,66.84477 197.27016,65.55108 195.12914,63.23067 C186.6639,54.05611 177.79479,45.32057 167.53586,38.10651 C166.19593,37.16428 164.15351,36.10693 165.50114,34.08371 C166.90047,31.98291 168.58373,33.60794 169.91529,34.53493 C182.254224,43.2287731 193.470984,53.414765 203.31034,64.86113 L203.31034,64.86113 Z" id="Path" fill="#66B98A" fill-rule="nonzero"></path>
            <g opacity="0.49" transform="translate(233.000000, 185.000000)" fill="#A8DABD" fill-rule="nonzero" id="Path">
                <path d="M0.40879,19.471 C0.86479,14.00761 4.17764,13.45255 7.30449,12.74257 C18.6818154,10.2820957 29.8008132,6.75063469 40.51283,2.1954 C42.34856,1.39354 45.11477,-0.8946 46.43095,2.44068 C47.60082,5.40507 44.09207,5.25259 42.579,5.95225 C29.364,12.063 15.51321,16.19284 0.40879,19.471 Z"></path>
            </g>
            <g opacity="0.75" transform="translate(115.000000, 97.000000)" fill="#87C9A3" fill-rule="nonzero" id="Path">
                <path d="M0.6672,33.952 C-2.18053,22.24 9.50412,1.76859 19.67572,0.60967 C13.92023,10.353 6.9164,23.37313 0.6672,33.952 Z"></path>
            </g>
            <path d="M239.49123,128.45077 C233.82234,118.34238 228.62339,109.07193 223.3637,99.69318 C233.32024,100.51491 243.90982,118.24667 239.49123,128.45077 Z" id="Path" fill="#66B98A" fill-rule="nonzero"></path>
            <g opacity="0.75" transform="translate(151.000000, 49.000000)" fill="#87C9A3" fill-rule="nonzero" id="Path">
                <path d="M0.52624,16.07063 C5.13687,11.17508 9.14348,7.0571 12.98519,2.79063 C15.28494,0.23663 17.29024,0.47872 19.5178,2.78536 C22.36637,5.73507 19.14073,6.94029 17.74092,8.20781 C13.22728,12.2949 9.93018,18.93346 0.52624,16.07063 Z"></path>
            </g>
            <path d="M258.80617,159.62428 C262.01943,165.11683 262.91265,171.18861 264.69665,176.9525 C265.51005,179.5805 264.98353,181.44432 262.1528,182.36874 C258.77247,183.47267 258.0818,181.15362 257.67057,178.78651 C256.58655,172.54742 251.939,166.20055 258.80617,159.62428 Z" id="Path" fill="#66B98A" fill-rule="nonzero"></path>
            <g opacity="0.49" transform="translate(102.000000, 193.000000)" fill="#A8DABD" fill-rule="nonzero" id="Path">
                <path d="M22.27328,12.75514 C15.41845,11.05023 9.34123,9.48679 3.23577,8.04271 C0.31423,7.35171 -0.38859,5.69254 0.4783,2.98271 C1.34477,0.27426 3.2143,0.45822 5.29346,1.18097 C11.55613,3.35811 19.451,2.86125 22.27328,12.75514 Z"></path>
            </g>
        </g>
    </g>
</svg>