<?xml version="1.0" encoding="UTF-8"?>
<svg width="90px" height="90px" viewBox="0 0 90 90" version="1.1" xmlns="http://www.w3.org/2000/svg" xmlns:xlink="http://www.w3.org/1999/xlink">
    <!-- Generator: Sketch 43.2 (39069) - http://www.bohemiancoding.com/sketch -->
    <title>logo</title>
    <desc>Created with Sketch.</desc>
    <defs>
        <path d="M41.8864954,0.994901575 C42.8830405,0.514990742 44.5028956,0.516982644 45.4953045,0.994901575 L76.8159138,16.0781121 C77.8124589,16.5580229 78.8208647,17.8257185 79.0659694,18.8995926 L86.8015211,52.7912589 C87.0476474,53.8696088 86.6852538,55.4484075 85.9984855,56.3095876 L64.3239514,83.4885938 C63.6343208,84.3533632 62.1740175,85.0543973 61.0725268,85.0543973 L26.3092731,85.0543973 C25.2031915,85.0543973 23.7446167,84.3497739 23.0578485,83.4885938 L1.38331434,56.3095876 C0.693683723,55.4448182 0.335174016,53.865133 0.580278769,52.7912589 L8.31583044,18.8995926 C8.56195675,17.8212428 9.57347722,16.556031 10.5658861,16.0781121 L41.8864954,0.994901575 Z" id="path-1"></path>
        <linearGradient x1="12.7542673%" y1="-18.6617048%" x2="88.2666158%" y2="84.6075483%" id="linearGradient-3">
            <stop stop-color="#FFFFFF" offset="0%"></stop>
            <stop stop-color="#439246" offset="100%"></stop>
        </linearGradient>
        <linearGradient x1="50%" y1="4.93673768%" x2="148.756007%" y2="175.514523%" id="linearGradient-4">
            <stop stop-color="#FFFFFF" offset="0%"></stop>
            <stop stop-color="#439246" offset="100%"></stop>
        </linearGradient>
        <linearGradient x1="19.1574381%" y1="-9.04800713%" x2="82.2203149%" y2="77.9084293%" id="linearGradient-5">
            <stop stop-color="#FFFFFF" offset="0%"></stop>
            <stop stop-color="#439246" offset="100%"></stop>
        </linearGradient>
        <linearGradient x1="57.4403751%" y1="26.3148481%" x2="137.966711%" y2="158.080556%" id="linearGradient-6">
            <stop stop-color="#FFFFFF" offset="0%"></stop>
            <stop stop-color="#439246" offset="100%"></stop>
        </linearGradient>
    </defs>
    <g id="Page-1" stroke="none" stroke-width="1" fill="none" fill-rule="evenodd">
        <g id="logo">
            <g id="Rectangle-2" transform="translate(1.000000, 0.000000)">
                <mask id="mask-2" fill="white">
                    <use xlink:href="#path-1"></use>
                </mask>
                <use id="Mask" fill="#009F76" xlink:href="#path-1"></use>
                <polygon fill="#000000" opacity="0.289628623" mask="url(#mask-2)" points="-17.6484375 54.5224609 30.8242188 25.0791016 63.4726562 58.5 24.7324219 92.6689453"></polygon>
            </g>
            <path d="M56.8508631,39.260019 C56.4193519,40.443987 55.6088085,41.581593 54.6736295,42.1938694 L46.5997298,47.4799783 C45.2142627,48.3870654 42.9749783,48.3916494 41.5825097,47.4799783 L33.50861,42.1938694 C32.123143,41.2867823 31,39.206345 31,37.545932 L31,26.4150304 C31,25.6897174 31.2131118,24.884885 31.5692681,24.1324532 L56.8508631,39.260019 Z" id="Combined-Shape" fill="url(#linearGradient-3)" transform="translate(43.925432, 36.147233) scale(-1, 1) translate(-43.925432, -36.147233) "></path>
            <path d="M56.0774672,25.1412464 C56.4306829,25.8903325 56.6425556,26.6907345 56.6425556,27.4119019 L56.6425556,38.5428034 C56.6425556,40.2027013 55.5264141,42.2790698 54.1339456,43.1907408 L46.0600459,48.4768498 C44.6745788,49.3839368 42.4352943,49.3885208 41.0428258,48.4768498 L32.9689261,43.1907408 C32.2918101,42.7474223 31.6773514,42.0238435 31.2260376,41.206007 L56.0774672,25.1412464 Z" id="Combined-Shape" fill="url(#linearGradient-4)" transform="translate(43.821278, 37.246598) scale(-1, 1) translate(-43.821278, -37.246598) "></path>
            <path d="M65.0702134,57.1846889 C64.5985426,58.2007851 63.8367404,59.1236871 62.9788591,59.6189851 L47.37497,68.6278947 C45.9443535,69.4538615 43.6226022,69.4525546 42.1942494,68.6278947 L26.5903603,59.6189851 C25.1597438,58.7930183 24,56.7816693 24,55.1323495 L24,37.1145303 C24,36.3487436 24.249712,35.5060005 24.6599102,34.7400631 L65.0702134,57.1846889 Z" id="Combined-Shape" fill="url(#linearGradient-5)"></path>
            <path d="M65.0189476,34.954538 C65.3636909,35.6617313 65.5692194,36.42021 65.5692194,37.1145303 L65.5692194,55.1323495 C65.5692194,56.7842831 64.4072119,58.7943252 62.9788591,59.6189851 L47.37497,68.6278947 C45.9443535,69.4538615 43.6226022,69.4525546 42.1942494,68.6278947 L26.5903603,59.6189851 C25.9237304,59.2341061 25.3159155,58.5918431 24.8568495,57.8487596 L65.0189476,34.954538 Z" id="Combined-Shape" fill="url(#linearGradient-6)"></path>
        </g>
    </g>
</svg>