
<svg width="91px" height="91px" viewBox="0 0 91 91" version="1.1" xmlns="http://www.w3.org/2000/svg" xmlns:xlink="http://www.w3.org/1999/xlink">
    <defs>
        <path d="M41.8864954,0.994901575 C42.8830405,0.514990742 44.5028956,0.516982644 45.4953045,0.994901575 L76.8159138,16.0781121 C77.8124589,16.5580229 78.8208647,17.8257185 79.0659694,18.8995926 L86.8015211,52.7912589 C87.0476474,53.8696088 86.6852538,55.4484075 85.9984855,56.3095876 L64.3239514,83.4885938 C63.6343208,84.3533632 62.1740175,85.0543973 61.0725268,85.0543973 L26.3092731,85.0543973 C25.2031915,85.0543973 23.7446167,84.3497739 23.0578485,83.4885938 L1.38331434,56.3095876 C0.693683723,55.4448182 0.335174016,53.865133 0.580278769,52.7912589 L8.31583044,18.8995926 C8.56195675,17.8212428 9.57347722,16.556031 10.5658861,16.0781121 L41.8864954,0.994901575 Z" id="path-1"></path>
        <linearGradient x1="12.7542673%" y1="-18.6617048%" x2="88.2666158%" y2="84.6075483%" id="linearGradient-3">
            <stop stop-color="#FFFFFF" offset="0%"></stop>
            <stop stop-color="#439246" offset="100%"></stop>
        </linearGradient>
        <linearGradient x1="50%" y1="4.93673768%" x2="148.756007%" y2="175.514523%" id="linearGradient-4">
            <stop stop-color="#FFFFFF" offset="0%"></stop>
            <stop stop-color="#439246" offset="100%"></stop>
        </linearGradient>
        <linearGradient x1="19.1574381%" y1="-9.04800713%" x2="82.2203149%" y2="77.9084293%" id="linearGradient-5">
            <stop stop-color="#FFFFFF" offset="0%"></stop>
            <stop stop-color="#439246" offset="100%"></stop>
        </linearGradient>
        <linearGradient x1="57.4403751%" y1="26.3148481%" x2="137.966711%" y2="158.080556%" id="linearGradient-6">
            <stop stop-color="#FFFFFF" offset="0%"></stop>
            <stop stop-color="#439246" offset="100%"></stop>
        </linearGradient>
        <linearGradient x1="57.4403751%" y1="26.3148481%" x2="137.966711%" y2="158.080556%" id="linearGradient-7">
            <stop stop-color="#FFFFFF" offset="0%"></stop>
            <stop stop-color="#439246" offset="100%"></stop>
        </linearGradient>
    </defs>
    <g id="Page-1" stroke="none" stroke-width="1" fill="none" fill-rule="evenodd">
        <g id="Group" transform="translate(2.000000, 3.000000)">
            <g>
                <g id="Rectangle-2">
                    <g id="Mask" fill="#009F76" fill-rule="nonzero">
                        <path d="M41.8864954,0.994901575 C42.8830405,0.514990742 44.5028956,0.516982644 45.4953045,0.994901575 L76.8159138,16.0781121 C77.8124589,16.5580229 78.8208647,17.8257185 79.0659694,18.8995926 L86.8015211,52.7912589 C87.0476474,53.8696088 86.6852538,55.4484075 85.9984855,56.3095876 L64.3239514,83.4885938 C63.6343208,84.3533632 62.1740175,85.0543973 61.0725268,85.0543973 L26.3092731,85.0543973 C25.2031915,85.0543973 23.7446167,84.3497739 23.0578485,83.4885938 L1.38331434,56.3095876 C0.693683723,55.4448182 0.335174016,53.865133 0.580278769,52.7912589 L8.31583044,18.8995926 C8.56195675,17.8212428 9.57347722,16.556031 10.5658861,16.0781121 L41.8864954,0.994901575 Z" id="path-1"></path>
                    </g>
                    <g id="Clipped">
                        <g id="Path-Clipped">
                            <g>
                                <mask id="mask-2" fill="white">
                                    <use xlink:href="#path-1"></use>
                                </mask>
                                <g id="path-1"></g>
                                <polygon id="Path" fill="#000000" fill-rule="nonzero" opacity="0.289628623" mask="url(#mask-2)" points="-17.6484375 54.5224609 30.8242188 25.0791016 63.4726562 58.5 24.7324219 92.6689453"></polygon>
                            </g>
                        </g>
                    </g>
                </g>
                <path d="M55.8508631,39.260019 C55.4193519,40.443987 54.6088085,41.581593 53.6736295,42.1938694 L45.5997298,47.4799783 C44.2142627,48.3870654 41.9749783,48.3916494 40.5825097,47.4799783 L32.50861,42.1938694 C31.123143,41.2867823 30,39.206345 30,37.545932 L30,26.4150304 C30,25.6897174 30.2131118,24.884885 30.5692681,24.1324532 L55.8508631,39.260019 Z" id="Combined-Shape" fill="url(#linearGradient-3)" fill-rule="nonzero" transform="translate(42.925432, 36.147233) scale(-1, 1) translate(-42.925432, -36.147233) "></path>
                <path d="M54.8514292,25.1412464 C55.2046449,25.8903325 55.4165176,26.6907345 55.4165176,27.4119019 L55.4165176,38.5428034 C55.4165176,40.2027013 54.3003761,42.2790698 52.9079076,43.1907408 L44.8340079,48.4768498 C43.4485408,49.3839368 41.2092563,49.3885208 39.8167878,48.4768498 L31.7428881,43.1907408 C31.0657721,42.7474223 30.4513134,42.0238435 29.9999996,41.206007 L54.8514292,25.1412464 Z" id="Combined-Shape" fill="url(#linearGradient-4)" fill-rule="nonzero" transform="translate(42.708259, 37.150066) scale(-1, 1) translate(-42.708259, -37.150066) "></path>
                <path d="M64.0702134,57.1846889 C63.5985426,58.2007851 62.8367404,59.1236871 61.9788591,59.6189851 L46.37497,68.6278947 C44.9443535,69.4538615 42.6226022,69.4525546 41.1942494,68.6278947 L25.5903603,59.6189851 C24.1597438,58.7930183 23,56.7816693 23,55.1323495 L23,37.1145303 C23,36.3487436 23.249712,35.5060005 23.6599102,34.7400631 L64.0702134,57.1846889 Z" id="Combined-Shape" fill="url(#linearGradient-5)" fill-rule="nonzero"></path>
                <path d="M64.0189476,34.954538 C64.3636909,35.6617313 64.5692194,36.42021 64.5692194,37.1145303 L64.5692194,55.1323495 C64.5692194,56.7842831 63.4072119,58.7943252 61.9788591,59.6189851 L46.37497,68.6278947 C44.9443535,69.4538615 42.6226022,69.4525546 41.1942494,68.6278947 L25.5903603,59.6189851 C24.9237304,59.2341061 24.3159155,58.5918431 23.8568495,57.8487596 L64.0189476,34.954538 Z" id="Combined-Shape" fill="url(#linearGradient-6)" fill-rule="nonzero"></path>
            </g>
            <g id="puzzle" transform="translate(59.000000, 60.550000)" fill="url(#linearGradient-7)" fill-rule="nonzero" stroke="#009F76">
                <path d="M21.1428571,11.4285714 L19.4285714,11.4285714 L19.4285714,6.85714285 C19.4285714,5.58857143 18.4,4.57142857 17.1428572,4.57142857 L12.5714286,4.57142857 L12.5714286,2.85714286 C12.5714286,1.27918643 11.2922421,0 9.7142857,0 C8.13632929,0 6.85714285,1.27918643 6.85714285,2.85714286 L6.85714285,4.57142857 L2.28571428,4.57142857 C1.02334914,4.57142857 0,5.59477771 0,6.85714285 L0,11.2 L1.71428572,11.2 C3.42857143,11.2 4.8,12.5714286 4.8,14.2857143 C4.8,16 3.42857143,17.3714286 1.71428572,17.3714286 L0,17.3714286 L0,21.7142857 C0,22.9766508 1.02334914,24 2.28571428,24 L6.62857142,24 L6.62857142,22.2857143 C6.62857142,20.5714285 8,19.2 9.7142857,19.2 C11.4285714,19.2 12.8,20.5714285 12.8,22.2857143 L12.8,24 L17.1428572,24 C18.4052222,24 19.4285714,22.9766508 19.4285714,21.7142857 L19.4285714,17.1428572 L21.1428571,17.1428572 C22.7208135,17.1428572 24,15.8636707 24,14.2857143 C24,12.7077579 22.7208135,11.4285714 21.1428571,11.4285714 Z" id="Path"></path>
            </g>
        </g>
    </g>
</svg>