<?xml version="1.0" encoding="UTF-8"?>
<svg id="Layer_1" xmlns="http://www.w3.org/2000/svg" version="1.1" viewBox="0 0 194.9 170.1">
  <!-- Generator: Adobe Illustrator 29.1.0, SVG Export Plug-In . SVG Version: 2.1.0 Build 142)  -->
  <defs>
    <style>
      .st0 {
        fill: #fff;
      }
    </style>
  </defs>
  <path class="st0" d="M172.3,102.3l-13.4-58.9c-.4-1.9-2.2-4.1-3.9-4.9l-54.4-26.2c-1.7-.8-4.5-.8-6.3,0l-54.4,26.2c-1.7.8-3.5,3-3.9,4.9l-9.1,40-4.3,18.8c-.4,1.9.2,4.6,1.4,6.1l37.6,47.2c1.2,1.5,3.7,2.7,5.6,2.7h60.4c1.9,0,4.4-1.2,5.6-2.7l37.6-47.2c1.2-1.5,1.8-4.2,1.4-6.1ZM117.6,52.6c.6,1.3,1,2.7,1,4v19.3c0,1.1-.3,2.3-.7,3.4l-1.5.9-21.6-13.9,22.8-13.6ZM73.6,58.2c0-1.2.3-2.5.9-3.8,0,0,0-.1,0-.1l19.2,12.4,21.5,13.9-16.3,9.3-22.8-12.7-2.6-1.4v-17.6ZM61.5,106.4v-31.3c0-1.3.4-2.8,1.1-4.1l11,6.1h0s1.5.8,1.5.8l22.8,12.7h0s-.2.1-.2.1l-5.2,3h0l-1.2.7-28.6,16.3c-.7-1.4-1.2-2.9-1.2-4.2ZM133.7,106.4c0,.8-.2,1.7-.5,2.6-.1.3-.3.7-.4,1h0c0,.1-.1.2-.2.3,0,.2-.2.4-.3.5-.2.4-.4.7-.7,1.1-.1.2-.2.3-.4.5-.5.6-1,1-1.5,1.4-.2.1-.4.2-.5.4l-27.1,15.6c-2.5,1.4-6.5,1.4-9,0l-27.1-15.6c-.1,0-.3-.2-.4-.2-.1,0-.2-.1-.3-.2-.2-.1-.4-.3-.5-.4-.4-.3-.7-.7-1.1-1.2-.1-.2-.3-.3-.4-.5,0,0,0,0,0,0l29-16.6,1.6-.9,4.3-2.5.5-.3h.2c0-.1,0-.1,0-.1l1.1-.6,16.3-9.3,16.6-9.4c.4,1.1.7,2.2.7,3.2v31.3Z"/>
</svg>