<?xml version="1.0" encoding="UTF-8" standalone="no"?>
<!DOCTYPE svg PUBLIC "-//W3C//DTD SVG 1.1//EN"
 "http://www.w3.org/Graphics/SVG/1.1/DTD/svg11.dtd">
<!-- Generated by graphviz version 2.43.0 (0)
 -->
<!-- Title: autheflow Pages: 1 -->
<svg width="895pt" height="503pt"
 viewBox="0.00 0.00 895.18 503.00" xmlns="http://www.w3.org/2000/svg" xmlns:xlink="http://www.w3.org/1999/xlink">
<g id="graph0" class="graph" transform="scale(1 1) rotate(0) translate(4 499)">
<title>autheflow</title>
<polygon fill="white" stroke="transparent" points="-4,4 -4,-499 891.18,-499 891.18,4 -4,4"/>
<!-- user -->
<g id="node1" class="node">
<title>user</title>
<polygon fill="none" stroke="black" points="42.65,-495 -0.22,-495 -0.22,-445 42.65,-445 42.65,-495"/>
<text text-anchor="middle" x="21.22" y="-465.8" font-family="Times,serif" font-size="14.00">User</text>
</g>
<!-- aa1 -->
<g id="node6" class="node">
<title>aa1</title>
</g>
<!-- user&#45;&gt;aa1 -->
<g id="edge1" class="edge">
<title>user&#45;&gt;aa1</title>
<path fill="none" stroke="black" stroke-dasharray="5,2" d="M21.22,-444.89C21.22,-428.37 21.22,-409.24 21.22,-408.06"/>
</g>
<!-- idp -->
<g id="node2" class="node">
<title>idp</title>
<polygon fill="none" stroke="black" points="236.84,-495 151.59,-495 151.59,-445 236.84,-445 236.84,-495"/>
<text text-anchor="middle" x="194.22" y="-465.8" font-family="Times,serif" font-size="14.00">Custom IDP</text>
</g>
<!-- ba1 -->
<g id="node17" class="node">
<title>ba1</title>
</g>
<!-- idp&#45;&gt;ba1 -->
<g id="edge12" class="edge">
<title>idp&#45;&gt;ba1</title>
<path fill="none" stroke="black" stroke-dasharray="5,2" d="M194.22,-444.89C194.22,-428.37 194.22,-409.24 194.22,-408.06"/>
</g>
<!-- k8suath -->
<g id="node3" class="node">
<title>k8suath</title>
<polygon fill="none" stroke="black" points="437.85,-495 322.59,-495 322.59,-445 437.85,-445 437.85,-495"/>
<text text-anchor="middle" x="380.22" y="-472.8" font-family="Times,serif" font-size="14.00">Kube API Server</text>
<text text-anchor="middle" x="380.22" y="-458.8" font-family="Times,serif" font-size="14.00">for authentication</text>
</g>
<!-- ca1 -->
<g id="node28" class="node">
<title>ca1</title>
</g>
<!-- k8suath&#45;&gt;ca1 -->
<g id="edge23" class="edge">
<title>k8suath&#45;&gt;ca1</title>
<path fill="none" stroke="black" stroke-dasharray="5,2" d="M380.22,-444.89C380.22,-428.37 380.22,-409.24 380.22,-408.06"/>
</g>
<!-- k8s -->
<g id="node4" class="node">
<title>k8s</title>
<polygon fill="none" stroke="black" points="646.87,-495 535.56,-495 535.56,-445 646.87,-445 646.87,-495"/>
<text text-anchor="middle" x="591.22" y="-472.8" font-family="Times,serif" font-size="14.00">Kube API Server</text>
<text text-anchor="middle" x="591.22" y="-458.8" font-family="Times,serif" font-size="14.00">(Shoot cluster)</text>
</g>
<!-- da1 -->
<g id="node39" class="node">
<title>da1</title>
</g>
<!-- k8s&#45;&gt;da1 -->
<g id="edge34" class="edge">
<title>k8s&#45;&gt;da1</title>
<path fill="none" stroke="black" stroke-dasharray="5,2" d="M591.22,-444.89C591.22,-428.37 591.22,-409.24 591.22,-408.06"/>
</g>
<!-- auth -->
<g id="node5" class="node">
<title>auth</title>
<polygon fill="none" stroke="black" points="887.15,-495 757.29,-495 757.29,-445 887.15,-445 887.15,-495"/>
<text text-anchor="middle" x="822.22" y="-465.8" font-family="Times,serif" font-size="14.00">OIDC Authenticator</text>
</g>
<!-- ea1 -->
<g id="node50" class="node">
<title>ea1</title>
</g>
<!-- auth&#45;&gt;ea1 -->
<g id="edge45" class="edge">
<title>auth&#45;&gt;ea1</title>
<path fill="none" stroke="black" stroke-dasharray="5,2" d="M822.22,-444.89C822.22,-428.37 822.22,-409.24 822.22,-408.06"/>
</g>
<!-- aa2 -->
<g id="node7" class="node">
<title>aa2</title>
</g>
<!-- aa1&#45;&gt;aa2 -->
<g id="edge2" class="edge">
<title>aa1&#45;&gt;aa2</title>
<path fill="none" stroke="black" stroke-dasharray="5,2" d="M21.22,-406.89C21.22,-404.79 21.22,-372.14 21.22,-370.1"/>
</g>
<!-- aa1&#45;&gt;ba1 -->
<g id="edge56" class="edge">
<title>aa1&#45;&gt;ba1</title>
<path fill="none" stroke="black" d="M21.99,-407.5C32.48,-407.5 147.09,-407.5 183.31,-407.5"/>
<polygon fill="black" stroke="black" points="183.5,-411 193.5,-407.5 183.5,-404 183.5,-411"/>
<text text-anchor="middle" x="107.72" y="-413.3" font-family="Times,serif" font-size="14.00">authenticate</text>
</g>
<!-- aa3 -->
<g id="node8" class="node">
<title>aa3</title>
</g>
<!-- aa2&#45;&gt;aa3 -->
<g id="edge3" class="edge">
<title>aa2&#45;&gt;aa3</title>
<path fill="none" stroke="black" stroke-width="5" d="M21.22,-368.89C21.22,-366.79 21.22,-334.14 21.22,-332.1"/>
</g>
<!-- ba2 -->
<g id="node18" class="node">
<title>ba2</title>
</g>
<!-- aa2&#45;&gt;ba2 -->
<g id="edge57" class="edge">
<title>aa2&#45;&gt;ba2</title>
<path fill="none" stroke="black" d="M32.33,-369.5C68.84,-369.5 183.4,-369.5 193.5,-369.5"/>
<polygon fill="black" stroke="black" points="31.99,-366 21.99,-369.5 31.99,-373 31.99,-366"/>
<text text-anchor="middle" x="107.72" y="-375.3" font-family="Times,serif" font-size="14.00">id_token</text>
</g>
<!-- aa4 -->
<g id="node9" class="node">
<title>aa4</title>
</g>
<!-- aa3&#45;&gt;aa4 -->
<g id="edge4" class="edge">
<title>aa3&#45;&gt;aa4</title>
<path fill="none" stroke="black" stroke-dasharray="5,2" d="M21.22,-330.89C21.22,-328.79 21.22,-296.14 21.22,-294.1"/>
</g>
<!-- ba3 -->
<g id="node19" class="node">
<title>ba3</title>
</g>
<!-- aa3&#45;&gt;ba3 -->
<g id="edge58" class="edge">
<title>aa3&#45;&gt;ba3</title>
<path fill="none" stroke="black" d="M21.99,-331.5C33.98,-331.5 181.96,-331.5 193.5,-331.5"/>
<text text-anchor="middle" x="107.72" y="-351.3" font-family="Times,serif" font-size="14.00">API call with</text>
<text text-anchor="middle" x="107.72" y="-337.3" font-family="Times,serif" font-size="14.00">id_token</text>
</g>
<!-- aa5 -->
<g id="node10" class="node">
<title>aa5</title>
</g>
<!-- aa4&#45;&gt;aa5 -->
<g id="edge5" class="edge">
<title>aa4&#45;&gt;aa5</title>
<path fill="none" stroke="black" stroke-dasharray="5,2" d="M21.22,-292.89C21.22,-290.79 21.22,-258.14 21.22,-256.1"/>
</g>
<!-- aa6 -->
<g id="node11" class="node">
<title>aa6</title>
</g>
<!-- aa5&#45;&gt;aa6 -->
<g id="edge6" class="edge">
<title>aa5&#45;&gt;aa6</title>
<path fill="none" stroke="black" stroke-dasharray="5,2" d="M21.22,-254.89C21.22,-252.79 21.22,-220.14 21.22,-218.1"/>
</g>
<!-- aa7 -->
<g id="node12" class="node">
<title>aa7</title>
</g>
<!-- aa6&#45;&gt;aa7 -->
<g id="edge7" class="edge">
<title>aa6&#45;&gt;aa7</title>
<path fill="none" stroke="black" stroke-dasharray="5,2" d="M21.22,-216.89C21.22,-214.79 21.22,-182.14 21.22,-180.1"/>
</g>
<!-- aa8 -->
<g id="node13" class="node">
<title>aa8</title>
</g>
<!-- aa7&#45;&gt;aa8 -->
<g id="edge8" class="edge">
<title>aa7&#45;&gt;aa8</title>
<path fill="none" stroke="black" stroke-dasharray="5,2" d="M21.22,-178.89C21.22,-176.79 21.22,-144.14 21.22,-142.1"/>
</g>
<!-- aa9 -->
<g id="node14" class="node">
<title>aa9</title>
</g>
<!-- aa8&#45;&gt;aa9 -->
<g id="edge9" class="edge">
<title>aa8&#45;&gt;aa9</title>
<path fill="none" stroke="black" stroke-dasharray="5,2" d="M21.22,-140.95C21.22,-139.05 21.22,-78.92 21.22,-77.04"/>
</g>
<!-- aa10 -->
<g id="node15" class="node">
<title>aa10</title>
</g>
<!-- aa9&#45;&gt;aa10 -->
<g id="edge10" class="edge">
<title>aa9&#45;&gt;aa10</title>
<path fill="none" stroke="black" stroke-dasharray="5,2" d="M21.22,-75.89C21.22,-73.79 21.22,-41.14 21.22,-39.1"/>
</g>
<!-- aa11 -->
<g id="node16" class="node">
<title>aa11</title>
</g>
<!-- aa10&#45;&gt;aa11 -->
<g id="edge11" class="edge">
<title>aa10&#45;&gt;aa11</title>
<path fill="none" stroke="black" stroke-dasharray="5,2" d="M21.22,-37.89C21.22,-35.79 21.22,-3.14 21.22,-1.1"/>
</g>
<!-- ba10 -->
<g id="node26" class="node">
<title>ba10</title>
</g>
<!-- aa10&#45;&gt;ba10 -->
<g id="edge71" class="edge">
<title>aa10&#45;&gt;ba10</title>
<path fill="none" stroke="black" d="M31.95,-38.5C85.82,-38.5 139.68,-38.5 193.54,-38.5"/>
<polygon fill="black" stroke="black" points="31.89,-35 21.89,-38.5 31.89,-42 31.89,-35"/>
</g>
<!-- ba1&#45;&gt;ba2 -->
<g id="edge13" class="edge">
<title>ba1&#45;&gt;ba2</title>
<path fill="none" stroke="black" stroke-width="5" d="M194.22,-406.89C194.22,-404.79 194.22,-372.14 194.22,-370.1"/>
</g>
<!-- ba2&#45;&gt;ba3 -->
<g id="edge14" class="edge">
<title>ba2&#45;&gt;ba3</title>
<path fill="none" stroke="black" stroke-dasharray="5,2" d="M194.22,-368.89C194.22,-366.79 194.22,-334.14 194.22,-332.1"/>
</g>
<!-- ba4 -->
<g id="node20" class="node">
<title>ba4</title>
</g>
<!-- ba3&#45;&gt;ba4 -->
<g id="edge15" class="edge">
<title>ba3&#45;&gt;ba4</title>
<path fill="none" stroke="black" stroke-dasharray="5,2" d="M194.22,-330.89C194.22,-328.79 194.22,-296.14 194.22,-294.1"/>
</g>
<!-- ca3 -->
<g id="node30" class="node">
<title>ca3</title>
</g>
<!-- ba3&#45;&gt;ca3 -->
<g id="edge59" class="edge">
<title>ba3&#45;&gt;ca3</title>
<path fill="none" stroke="black" d="M194.94,-331.5C256.46,-331.5 317.98,-331.5 379.49,-331.5"/>
</g>
<!-- ba5 -->
<g id="node21" class="node">
<title>ba5</title>
</g>
<!-- ba4&#45;&gt;ba5 -->
<g id="edge16" class="edge">
<title>ba4&#45;&gt;ba5</title>
<path fill="none" stroke="black" stroke-dasharray="5,2" d="M194.22,-292.89C194.22,-290.79 194.22,-258.14 194.22,-256.1"/>
</g>
<!-- ba6 -->
<g id="node22" class="node">
<title>ba6</title>
</g>
<!-- ba5&#45;&gt;ba6 -->
<g id="edge17" class="edge">
<title>ba5&#45;&gt;ba6</title>
<path fill="none" stroke="black" stroke-dasharray="5,2" d="M194.22,-254.89C194.22,-252.79 194.22,-220.14 194.22,-218.1"/>
</g>
<!-- ba7 -->
<g id="node23" class="node">
<title>ba7</title>
</g>
<!-- ba6&#45;&gt;ba7 -->
<g id="edge18" class="edge">
<title>ba6&#45;&gt;ba7</title>
<path fill="none" stroke="black" stroke-dasharray="5,2" d="M194.22,-216.89C194.22,-214.79 194.22,-182.14 194.22,-180.1"/>
</g>
<!-- ba8 -->
<g id="node24" class="node">
<title>ba8</title>
</g>
<!-- ba7&#45;&gt;ba8 -->
<g id="edge19" class="edge">
<title>ba7&#45;&gt;ba8</title>
<path fill="none" stroke="black" stroke-dasharray="5,2" d="M194.22,-178.89C194.22,-176.79 194.22,-144.14 194.22,-142.1"/>
</g>
<!-- ba9 -->
<g id="node25" class="node">
<title>ba9</title>
</g>
<!-- ba8&#45;&gt;ba9 -->
<g id="edge20" class="edge">
<title>ba8&#45;&gt;ba9</title>
<path fill="none" stroke="black" stroke-dasharray="5,2" d="M194.22,-140.95C194.22,-139.05 194.22,-78.92 194.22,-77.04"/>
</g>
<!-- ba9&#45;&gt;ba10 -->
<g id="edge21" class="edge">
<title>ba9&#45;&gt;ba10</title>
<path fill="none" stroke="black" stroke-dasharray="5,2" d="M194.22,-75.89C194.22,-73.79 194.22,-41.14 194.22,-39.1"/>
</g>
<!-- ba11 -->
<g id="node27" class="node">
<title>ba11</title>
</g>
<!-- ba10&#45;&gt;ba11 -->
<g id="edge22" class="edge">
<title>ba10&#45;&gt;ba11</title>
<path fill="none" stroke="black" stroke-dasharray="5,2" d="M194.22,-37.89C194.22,-35.79 194.22,-3.14 194.22,-1.1"/>
</g>
<!-- ca10 -->
<g id="node37" class="node">
<title>ca10</title>
</g>
<!-- ba10&#45;&gt;ca10 -->
<g id="edge72" class="edge">
<title>ba10&#45;&gt;ca10</title>
<path fill="none" stroke="black" d="M194.94,-38.5C256.46,-38.5 317.98,-38.5 379.49,-38.5"/>
</g>
<!-- ca2 -->
<g id="node29" class="node">
<title>ca2</title>
</g>
<!-- ca1&#45;&gt;ca2 -->
<g id="edge24" class="edge">
<title>ca1&#45;&gt;ca2</title>
<path fill="none" stroke="black" stroke-dasharray="5,2" d="M380.22,-406.89C380.22,-404.79 380.22,-372.14 380.22,-370.1"/>
</g>
<!-- ca2&#45;&gt;ca3 -->
<g id="edge25" class="edge">
<title>ca2&#45;&gt;ca3</title>
<path fill="none" stroke="black" stroke-dasharray="5,2" d="M380.22,-368.89C380.22,-366.79 380.22,-334.14 380.22,-332.1"/>
</g>
<!-- ca4 -->
<g id="node31" class="node">
<title>ca4</title>
</g>
<!-- ca3&#45;&gt;ca4 -->
<g id="edge26" class="edge">
<title>ca3&#45;&gt;ca4</title>
<path fill="none" stroke="black" stroke-dasharray="5,2" d="M380.22,-330.89C380.22,-328.79 380.22,-296.14 380.22,-294.1"/>
</g>
<!-- da3 -->
<g id="node41" class="node">
<title>da3</title>
</g>
<!-- ca3&#45;&gt;da3 -->
<g id="edge60" class="edge">
<title>ca3&#45;&gt;da3</title>
<path fill="none" stroke="black" d="M381.04,-331.5C447.42,-331.5 513.8,-331.5 580.17,-331.5"/>
<polygon fill="black" stroke="black" points="580.4,-335 590.4,-331.5 580.4,-328 580.4,-335"/>
</g>
<!-- ca5 -->
<g id="node32" class="node">
<title>ca5</title>
</g>
<!-- ca4&#45;&gt;ca5 -->
<g id="edge27" class="edge">
<title>ca4&#45;&gt;ca5</title>
<path fill="none" stroke="black" stroke-dasharray="5,2" d="M380.22,-292.89C380.22,-290.79 380.22,-258.14 380.22,-256.1"/>
</g>
<!-- ca6 -->
<g id="node33" class="node">
<title>ca6</title>
</g>
<!-- ca5&#45;&gt;ca6 -->
<g id="edge28" class="edge">
<title>ca5&#45;&gt;ca6</title>
<path fill="none" stroke="black" stroke-width="5" d="M380.22,-254.89C380.22,-252.79 380.22,-220.14 380.22,-218.1"/>
</g>
<!-- da5 -->
<g id="node43" class="node">
<title>da5</title>
</g>
<!-- ca5&#45;&gt;da5 -->
<g id="edge62" class="edge">
<title>ca5&#45;&gt;da5</title>
<path fill="none" stroke="black" d="M391.26,-255.5C457.64,-255.5 524.02,-255.5 590.4,-255.5"/>
<polygon fill="black" stroke="black" points="391.04,-252 381.04,-255.5 391.04,-259 391.04,-252"/>
</g>
<!-- ca7 -->
<g id="node34" class="node">
<title>ca7</title>
</g>
<!-- ca6&#45;&gt;ca7 -->
<g id="edge29" class="edge">
<title>ca6&#45;&gt;ca7</title>
<path fill="none" stroke="black" stroke-dasharray="5,2" d="M380.22,-216.89C380.22,-214.79 380.22,-182.14 380.22,-180.1"/>
</g>
<!-- da6 -->
<g id="node44" class="node">
<title>da6</title>
</g>
<!-- ca6&#45;&gt;da6 -->
<g id="edge64" class="edge">
<title>ca6&#45;&gt;da6</title>
<path fill="none" stroke="black" d="M380.82,-217.5C392.81,-217.5 579.02,-217.5 590.65,-217.5"/>
<text text-anchor="middle" x="485.72" y="-237.3" font-family="Times,serif" font-size="14.00">TokenReview&#45;2</text>
<text text-anchor="middle" x="485.72" y="-223.3" font-family="Times,serif" font-size="14.00">response</text>
</g>
<!-- ca8 -->
<g id="node35" class="node">
<title>ca8</title>
</g>
<!-- ca7&#45;&gt;ca8 -->
<g id="edge30" class="edge">
<title>ca7&#45;&gt;ca8</title>
<path fill="none" stroke="black" stroke-width="5" d="M380.22,-178.89C380.22,-176.79 380.22,-144.14 380.22,-142.1"/>
</g>
<!-- da7 -->
<g id="node45" class="node">
<title>da7</title>
</g>
<!-- ca7&#45;&gt;da7 -->
<g id="edge66" class="edge">
<title>ca7&#45;&gt;da7</title>
<path fill="none" stroke="black" d="M391.26,-179.5C457.64,-179.5 524.02,-179.5 590.4,-179.5"/>
<polygon fill="black" stroke="black" points="391.04,-176 381.04,-179.5 391.04,-183 391.04,-176"/>
</g>
<!-- ca9 -->
<g id="node36" class="node">
<title>ca9</title>
</g>
<!-- ca8&#45;&gt;ca9 -->
<g id="edge31" class="edge">
<title>ca8&#45;&gt;ca9</title>
<path fill="none" stroke="black" stroke-dasharray="5,2" d="M380.22,-140.95C380.22,-139.05 380.22,-78.92 380.22,-77.04"/>
</g>
<!-- da8 -->
<g id="node46" class="node">
<title>da8</title>
</g>
<!-- ca8&#45;&gt;da8 -->
<g id="edge68" class="edge">
<title>ca8&#45;&gt;da8</title>
<path fill="none" stroke="black" d="M380.82,-141.5C392.81,-141.5 579.02,-141.5 590.65,-141.5"/>
<text text-anchor="middle" x="485.72" y="-161.3" font-family="Times,serif" font-size="14.00">SubjectAccessReview</text>
<text text-anchor="middle" x="485.72" y="-147.3" font-family="Times,serif" font-size="14.00">response</text>
</g>
<!-- ca9&#45;&gt;ca10 -->
<g id="edge32" class="edge">
<title>ca9&#45;&gt;ca10</title>
<path fill="none" stroke="black" stroke-dasharray="5,2" d="M380.22,-75.89C380.22,-73.79 380.22,-41.14 380.22,-39.1"/>
</g>
<!-- ca11 -->
<g id="node38" class="node">
<title>ca11</title>
</g>
<!-- ca10&#45;&gt;ca11 -->
<g id="edge33" class="edge">
<title>ca10&#45;&gt;ca11</title>
<path fill="none" stroke="black" stroke-dasharray="5,2" d="M380.22,-37.89C380.22,-35.79 380.22,-3.14 380.22,-1.1"/>
</g>
<!-- da10 -->
<g id="node48" class="node">
<title>da10</title>
</g>
<!-- ca10&#45;&gt;da10 -->
<g id="edge73" class="edge">
<title>ca10&#45;&gt;da10</title>
<path fill="none" stroke="black" d="M380.82,-38.5C392.81,-38.5 579.02,-38.5 590.65,-38.5"/>
<text text-anchor="middle" x="485.72" y="-58.3" font-family="Times,serif" font-size="14.00">API call</text>
<text text-anchor="middle" x="485.72" y="-44.3" font-family="Times,serif" font-size="14.00">response</text>
</g>
<!-- da2 -->
<g id="node40" class="node">
<title>da2</title>
</g>
<!-- da1&#45;&gt;da2 -->
<g id="edge35" class="edge">
<title>da1&#45;&gt;da2</title>
<path fill="none" stroke="black" stroke-dasharray="5,2" d="M591.22,-406.89C591.22,-404.79 591.22,-372.14 591.22,-370.1"/>
</g>
<!-- da2&#45;&gt;da3 -->
<g id="edge36" class="edge">
<title>da2&#45;&gt;da3</title>
<path fill="none" stroke="black" stroke-dasharray="5,2" d="M591.22,-368.89C591.22,-366.79 591.22,-334.14 591.22,-332.1"/>
</g>
<!-- da4 -->
<g id="node42" class="node">
<title>da4</title>
</g>
<!-- da3&#45;&gt;da4 -->
<g id="edge37" class="edge">
<title>da3&#45;&gt;da4</title>
<path fill="none" stroke="black" stroke-width="5" d="M591.22,-330.89C591.22,-328.79 591.22,-296.14 591.22,-294.1"/>
</g>
<!-- da4&#45;&gt;da5 -->
<g id="edge38" class="edge">
<title>da4&#45;&gt;da5</title>
<path fill="none" stroke="black" stroke-dasharray="5,2" d="M591.22,-292.89C591.22,-290.79 591.22,-258.14 591.22,-256.1"/>
</g>
<!-- ea4 -->
<g id="node53" class="node">
<title>ea4</title>
</g>
<!-- da4&#45;&gt;ea4 -->
<g id="edge61" class="edge">
<title>da4&#45;&gt;ea4</title>
<path fill="none" stroke="black" d="M591.88,-293.5C603.6,-293.5 767.27,-293.5 811.35,-293.5"/>
<polygon fill="black" stroke="black" points="811.6,-297 821.59,-293.5 811.59,-290 811.6,-297"/>
<text text-anchor="middle" x="706.72" y="-313.3" font-family="Times,serif" font-size="14.00">TokenReview&#45;1 for</text>
<text text-anchor="middle" x="706.72" y="-299.3" font-family="Times,serif" font-size="14.00">id_token</text>
</g>
<!-- da5&#45;&gt;da6 -->
<g id="edge39" class="edge">
<title>da5&#45;&gt;da6</title>
<path fill="none" stroke="black" stroke-dasharray="5,2" d="M591.22,-254.89C591.22,-252.79 591.22,-220.14 591.22,-218.1"/>
</g>
<!-- ea5 -->
<g id="node54" class="node">
<title>ea5</title>
</g>
<!-- da5&#45;&gt;ea5 -->
<g id="edge63" class="edge">
<title>da5&#45;&gt;ea5</title>
<path fill="none" stroke="black" d="M591.88,-255.5C605.01,-255.5 808.87,-255.5 821.59,-255.5"/>
<text text-anchor="middle" x="706.72" y="-275.3" font-family="Times,serif" font-size="14.00">TokenReview&#45;2 for</text>
<text text-anchor="middle" x="706.72" y="-261.3" font-family="Times,serif" font-size="14.00">API Server Identity</text>
</g>
<!-- da6&#45;&gt;da7 -->
<g id="edge40" class="edge">
<title>da6&#45;&gt;da7</title>
<path fill="none" stroke="black" stroke-dasharray="5,2" d="M591.22,-216.89C591.22,-214.79 591.22,-182.14 591.22,-180.1"/>
</g>
<!-- ea6 -->
<g id="node55" class="node">
<title>ea6</title>
</g>
<!-- da6&#45;&gt;ea6 -->
<g id="edge65" class="edge">
<title>da6&#45;&gt;ea6</title>
<path fill="none" stroke="black" d="M592.12,-217.5C665.09,-217.5 738.05,-217.5 811.02,-217.5"/>
<polygon fill="black" stroke="black" points="811.32,-221 821.32,-217.5 811.32,-214 811.32,-221"/>
</g>
<!-- da7&#45;&gt;da8 -->
<g id="edge41" class="edge">
<title>da7&#45;&gt;da8</title>
<path fill="none" stroke="black" stroke-dasharray="5,2" d="M591.22,-178.89C591.22,-176.79 591.22,-144.14 591.22,-142.1"/>
</g>
<!-- ea7 -->
<g id="node56" class="node">
<title>ea7</title>
</g>
<!-- da7&#45;&gt;ea7 -->
<g id="edge67" class="edge">
<title>da7&#45;&gt;ea7</title>
<path fill="none" stroke="black" d="M591.88,-179.5C605.01,-179.5 808.87,-179.5 821.59,-179.5"/>
<text text-anchor="middle" x="706.72" y="-199.3" font-family="Times,serif" font-size="14.00">SubjectAccessReview for</text>
<text text-anchor="middle" x="706.72" y="-185.3" font-family="Times,serif" font-size="14.00">API Server Identity</text>
</g>
<!-- da9 -->
<g id="node47" class="node">
<title>da9</title>
</g>
<!-- da8&#45;&gt;da9 -->
<g id="edge42" class="edge">
<title>da8&#45;&gt;da9</title>
<path fill="none" stroke="black" stroke-dasharray="5,2" d="M591.22,-140.95C591.22,-139.05 591.22,-78.92 591.22,-77.04"/>
</g>
<!-- ea8 -->
<g id="node57" class="node">
<title>ea8</title>
</g>
<!-- da8&#45;&gt;ea8 -->
<g id="edge69" class="edge">
<title>da8&#45;&gt;ea8</title>
<path fill="none" stroke="black" d="M592.12,-141.5C665.09,-141.5 738.05,-141.5 811.02,-141.5"/>
<polygon fill="black" stroke="black" points="811.32,-145 821.32,-141.5 811.32,-138 811.32,-145"/>
</g>
<!-- da9&#45;&gt;da10 -->
<g id="edge43" class="edge">
<title>da9&#45;&gt;da10</title>
<path fill="none" stroke="black" stroke-width="5" d="M591.22,-75.89C591.22,-73.79 591.22,-41.14 591.22,-39.1"/>
</g>
<!-- ea9 -->
<g id="node58" class="node">
<title>ea9</title>
</g>
<!-- da9&#45;&gt;ea9 -->
<g id="edge70" class="edge">
<title>da9&#45;&gt;ea9</title>
<path fill="none" stroke="black" d="M601.95,-76.5C645.88,-76.5 810.21,-76.5 821.59,-76.5"/>
<polygon fill="black" stroke="black" points="601.88,-73 591.88,-76.5 601.88,-80 601.88,-73"/>
<text text-anchor="middle" x="706.72" y="-96.3" font-family="Times,serif" font-size="14.00">TokenReview&#45;1</text>
<text text-anchor="middle" x="706.72" y="-82.3" font-family="Times,serif" font-size="14.00">response</text>
</g>
<!-- da11 -->
<g id="node49" class="node">
<title>da11</title>
</g>
<!-- da10&#45;&gt;da11 -->
<g id="edge44" class="edge">
<title>da10&#45;&gt;da11</title>
<path fill="none" stroke="black" stroke-dasharray="5,2" d="M591.22,-37.89C591.22,-35.79 591.22,-3.14 591.22,-1.1"/>
</g>
<!-- ea2 -->
<g id="node51" class="node">
<title>ea2</title>
</g>
<!-- ea1&#45;&gt;ea2 -->
<g id="edge46" class="edge">
<title>ea1&#45;&gt;ea2</title>
<path fill="none" stroke="black" stroke-dasharray="5,2" d="M822.22,-406.89C822.22,-404.79 822.22,-372.14 822.22,-370.1"/>
</g>
<!-- ea3 -->
<g id="node52" class="node">
<title>ea3</title>
</g>
<!-- ea2&#45;&gt;ea3 -->
<g id="edge47" class="edge">
<title>ea2&#45;&gt;ea3</title>
<path fill="none" stroke="black" stroke-dasharray="5,2" d="M822.22,-368.89C822.22,-366.79 822.22,-334.14 822.22,-332.1"/>
</g>
<!-- ea3&#45;&gt;ea4 -->
<g id="edge48" class="edge">
<title>ea3&#45;&gt;ea4</title>
<path fill="none" stroke="black" stroke-dasharray="5,2" d="M822.22,-330.89C822.22,-328.79 822.22,-296.14 822.22,-294.1"/>
</g>
<!-- ea4&#45;&gt;ea5 -->
<g id="edge49" class="edge">
<title>ea4&#45;&gt;ea5</title>
<path fill="none" stroke="black" stroke-width="5" d="M822.22,-292.89C822.22,-290.79 822.22,-258.14 822.22,-256.1"/>
</g>
<!-- ea5&#45;&gt;ea6 -->
<g id="edge50" class="edge">
<title>ea5&#45;&gt;ea6</title>
<path fill="none" stroke="black" stroke-dasharray="5,2" d="M822.22,-254.89C822.22,-252.79 822.22,-220.14 822.22,-218.1"/>
</g>
<!-- ea6&#45;&gt;ea7 -->
<g id="edge51" class="edge">
<title>ea6&#45;&gt;ea7</title>
<path fill="none" stroke="black" stroke-width="5" d="M822.22,-216.89C822.22,-214.79 822.22,-182.14 822.22,-180.1"/>
</g>
<!-- ea7&#45;&gt;ea8 -->
<g id="edge52" class="edge">
<title>ea7&#45;&gt;ea8</title>
<path fill="none" stroke="black" stroke-dasharray="5,2" d="M822.22,-178.89C822.22,-176.79 822.22,-144.14 822.22,-142.1"/>
</g>
<!-- ea8&#45;&gt;ea9 -->
<g id="edge53" class="edge">
<title>ea8&#45;&gt;ea9</title>
<path fill="none" stroke="black" stroke-width="5" d="M822.22,-140.95C822.22,-139.52 822.22,-104.99 822.22,-87.28"/>
<polygon fill="black" stroke="black" stroke-width="5" points="826.59,-87.04 822.22,-77.04 817.84,-87.04 826.59,-87.04"/>
<text text-anchor="middle" x="851.96" y="-111.8" font-family="Times,serif" font-size="14.00"> &#160;validate</text>
<text text-anchor="middle" x="851.96" y="-97.8" font-family="Times,serif" font-size="14.00"> &#160;&#160;id_token</text>
</g>
<!-- ea10 -->
<g id="node59" class="node">
<title>ea10</title>
</g>
<!-- ea9&#45;&gt;ea10 -->
<g id="edge54" class="edge">
<title>ea9&#45;&gt;ea10</title>
<path fill="none" stroke="black" stroke-dasharray="5,2" d="M822.22,-75.89C822.22,-73.79 822.22,-41.14 822.22,-39.1"/>
</g>
<!-- ea11 -->
<g id="node60" class="node">
<title>ea11</title>
</g>
<!-- ea10&#45;&gt;ea11 -->
<g id="edge55" class="edge">
<title>ea10&#45;&gt;ea11</title>
<path fill="none" stroke="black" stroke-dasharray="5,2" d="M822.22,-37.89C822.22,-35.79 822.22,-3.14 822.22,-1.1"/>
</g>
</g>
</svg>
