<?xml version="1.0" encoding="UTF-8" standalone="no"?>
<!DOCTYPE svg PUBLIC "-//W3C//DTD SVG 1.1//EN"
 "http://www.w3.org/Graphics/SVG/1.1/DTD/svg11.dtd">
<!-- Generated by graphviz version 2.40.1 (20161225.0304)
 -->
<!-- Title: oidc_registration Pages: 1 -->
<svg width="874pt" height="558pt"
 viewBox="0.00 0.00 874.27 558.40" xmlns="http://www.w3.org/2000/svg" xmlns:xlink="http://www.w3.org/1999/xlink">
<g id="graph0" class="graph" transform="scale(1 1) rotate(0) translate(4 554.4)">
<title>oidc_registration</title>
<polygon fill="#ffffff" stroke="transparent" points="-4,4 -4,-554.4 870.2707,-554.4 870.2707,4 -4,4"/>
<!-- admin -->
<g id="node1" class="node">
<title>admin</title>
<polygon fill="none" stroke="#000000" points="54.8318,-550.4 .056,-550.4 .056,-500.4 54.8318,-500.4 54.8318,-550.4"/>
<text text-anchor="middle" x="27.4439" y="-521.2" font-family="Times,serif" font-size="14.00" fill="#000000">Admin</text>
</g>
<!-- ar1 -->
<g id="node5" class="node">
<title>ar1</title>
</g>
<!-- admin&#45;&gt;ar1 -->
<g id="edge1" class="edge">
<title>admin&#45;&gt;ar1</title>
<path fill="none" stroke="#000000" stroke-dasharray="5,2" d="M27.4439,-500.339C27.4439,-484.5811 27.4439,-466.6362 27.4439,-463.41"/>
</g>
<!-- idpr -->
<g id="node2" class="node">
<title>idpr</title>
<polygon fill="none" stroke="#000000" points="315.057,-550.4 229.8308,-550.4 229.8308,-500.4 315.057,-500.4 315.057,-550.4"/>
<text text-anchor="middle" x="272.4439" y="-521.2" font-family="Times,serif" font-size="14.00" fill="#000000">Custom IDP</text>
</g>
<!-- br1 -->
<g id="node15" class="node">
<title>br1</title>
</g>
<!-- idpr&#45;&gt;br1 -->
<g id="edge11" class="edge">
<title>idpr&#45;&gt;br1</title>
<path fill="none" stroke="#000000" stroke-dasharray="5,2" d="M272.4439,-500.339C272.4439,-484.5811 272.4439,-466.6362 272.4439,-463.41"/>
</g>
<!-- k8sr -->
<g id="node3" class="node">
<title>k8sr</title>
<polygon fill="none" stroke="#000000" points="573.8486,-550.4 461.0392,-550.4 461.0392,-500.4 573.8486,-500.4 573.8486,-550.4"/>
<text text-anchor="middle" x="517.4439" y="-521.2" font-family="Times,serif" font-size="14.00" fill="#000000">Kube API Server</text>
</g>
<!-- cr1 -->
<g id="node25" class="node">
<title>cr1</title>
</g>
<!-- k8sr&#45;&gt;cr1 -->
<g id="edge21" class="edge">
<title>k8sr&#45;&gt;cr1</title>
<path fill="none" stroke="#000000" stroke-dasharray="5,2" d="M517.4439,-500.339C517.4439,-484.5811 517.4439,-466.6362 517.4439,-463.41"/>
</g>
<!-- authr -->
<g id="node4" class="node">
<title>authr</title>
<polygon fill="none" stroke="#000000" points="827.6281,-550.4 697.2597,-550.4 697.2597,-500.4 827.6281,-500.4 827.6281,-550.4"/>
<text text-anchor="middle" x="762.4439" y="-521.2" font-family="Times,serif" font-size="14.00" fill="#000000">OIDC Authenticator</text>
</g>
<!-- dr1 -->
<g id="node36" class="node">
<title>dr1</title>
</g>
<!-- authr&#45;&gt;dr1 -->
<g id="edge31" class="edge">
<title>authr&#45;&gt;dr1</title>
<path fill="none" stroke="#000000" stroke-dasharray="5,2" d="M762.4439,-500.339C762.4439,-484.5811 762.4439,-466.6362 762.4439,-463.41"/>
</g>
<!-- ar2 -->
<g id="node6" class="node">
<title>ar2</title>
</g>
<!-- ar1&#45;&gt;ar2 -->
<g id="edge2" class="edge">
<title>ar1&#45;&gt;ar2</title>
<path fill="none" stroke="#000000" stroke-dasharray="5,2" d="M27.4439,-462.2404C27.4439,-457.6675 27.4439,-430.7157 27.4439,-425.7025"/>
</g>
<!-- ar1&#45;&gt;br1 -->
<g id="edge41" class="edge">
<title>ar1&#45;&gt;br1</title>
<path fill="none" stroke="#000000" d="M28.1467,-462.9C42.0681,-462.9 258.284,-462.9 271.7839,-462.9"/>
<text text-anchor="middle" x="149.9439" y="-486.9" font-family="Times,serif" font-size="14.00" fill="#000000">create</text>
<text text-anchor="middle" x="149.9439" y="-470.1" font-family="Times,serif" font-size="14.00" fill="#000000">OpenIDConnect</text>
</g>
<!-- ar3 -->
<g id="node7" class="node">
<title>ar3</title>
</g>
<!-- ar2&#45;&gt;ar3 -->
<g id="edge3" class="edge">
<title>ar2&#45;&gt;ar3</title>
<path fill="none" stroke="#000000" stroke-dasharray="5,2" d="M27.4439,-424.2404C27.4439,-419.6675 27.4439,-392.7157 27.4439,-387.7025"/>
</g>
<!-- ar4 -->
<g id="node8" class="node">
<title>ar4</title>
</g>
<!-- ar3&#45;&gt;ar4 -->
<g id="edge4" class="edge">
<title>ar3&#45;&gt;ar4</title>
<path fill="none" stroke="#000000" stroke-dasharray="5,2" d="M27.4439,-386.2404C27.4439,-381.6675 27.4439,-354.7157 27.4439,-349.7025"/>
</g>
<!-- ar5 -->
<g id="node9" class="node">
<title>ar5</title>
</g>
<!-- ar4&#45;&gt;ar5 -->
<g id="edge5" class="edge">
<title>ar4&#45;&gt;ar5</title>
<path fill="none" stroke="#000000" stroke-dasharray="5,2" d="M27.4439,-348.2404C27.4439,-343.6675 27.4439,-316.7157 27.4439,-311.7025"/>
</g>
<!-- ar6 -->
<g id="node10" class="node">
<title>ar6</title>
</g>
<!-- ar5&#45;&gt;ar6 -->
<g id="edge6" class="edge">
<title>ar5&#45;&gt;ar6</title>
<path fill="none" stroke="#000000" stroke-dasharray="5,2" d="M27.4439,-310.2404C27.4439,-305.6675 27.4439,-278.7157 27.4439,-273.7025"/>
</g>
<!-- ar7 -->
<g id="node11" class="node">
<title>ar7</title>
</g>
<!-- ar6&#45;&gt;ar7 -->
<g id="edge7" class="edge">
<title>ar6&#45;&gt;ar7</title>
<path fill="none" stroke="#000000" stroke-dasharray="5,2" d="M27.4439,-272.1152C27.4439,-262.1388 27.4439,-160.2447 27.4439,-150.714"/>
</g>
<!-- ar8 -->
<g id="node12" class="node">
<title>ar8</title>
</g>
<!-- ar7&#45;&gt;ar8 -->
<g id="edge8" class="edge">
<title>ar7&#45;&gt;ar8</title>
<path fill="none" stroke="#000000" stroke-dasharray="5,2" d="M27.4439,-149.1746C27.4439,-141.6043 27.4439,-84.3542 27.4439,-77.2275"/>
</g>
<!-- ar9 -->
<g id="node13" class="node">
<title>ar9</title>
</g>
<!-- ar8&#45;&gt;ar9 -->
<g id="edge9" class="edge">
<title>ar8&#45;&gt;ar9</title>
<path fill="none" stroke="#000000" stroke-dasharray="5,2" d="M27.4439,-75.8404C27.4439,-71.2675 27.4439,-44.3157 27.4439,-39.3025"/>
</g>
<!-- ar10 -->
<g id="node14" class="node">
<title>ar10</title>
</g>
<!-- ar9&#45;&gt;ar10 -->
<g id="edge10" class="edge">
<title>ar9&#45;&gt;ar10</title>
<path fill="none" stroke="#000000" stroke-dasharray="5,2" d="M27.4439,-37.8404C27.4439,-33.2675 27.4439,-6.3157 27.4439,-1.3025"/>
</g>
<!-- br2 -->
<g id="node16" class="node">
<title>br2</title>
</g>
<!-- br1&#45;&gt;br2 -->
<g id="edge12" class="edge">
<title>br1&#45;&gt;br2</title>
<path fill="none" stroke="#000000" stroke-dasharray="5,2" d="M272.4439,-462.2404C272.4439,-457.6675 272.4439,-430.7157 272.4439,-425.7025"/>
</g>
<!-- br1&#45;&gt;cr1 -->
<g id="edge42" class="edge">
<title>br1&#45;&gt;cr1</title>
<path fill="none" stroke="#000000" d="M273.4009,-462.9C350.9491,-462.9 428.4972,-462.9 506.0453,-462.9"/>
<polygon fill="#000000" stroke="#000000" points="506.4906,-466.4001 516.4906,-462.9 506.4906,-459.4001 506.4906,-466.4001"/>
</g>
<!-- br3 -->
<g id="node17" class="node">
<title>br3</title>
</g>
<!-- br2&#45;&gt;br3 -->
<g id="edge13" class="edge">
<title>br2&#45;&gt;br3</title>
<path fill="none" stroke="#000000" stroke-dasharray="5,2" d="M272.4439,-424.2404C272.4439,-419.6675 272.4439,-392.7157 272.4439,-387.7025"/>
</g>
<!-- br4 -->
<g id="node18" class="node">
<title>br4</title>
</g>
<!-- br3&#45;&gt;br4 -->
<g id="edge14" class="edge">
<title>br3&#45;&gt;br4</title>
<path fill="none" stroke="#000000" stroke-width="5" d="M272.4439,-386.2404C272.4439,-381.6675 272.4439,-354.7157 272.4439,-349.7025"/>
</g>
<!-- cr3 -->
<g id="node27" class="node">
<title>cr3</title>
</g>
<!-- br3&#45;&gt;cr3 -->
<g id="edge44" class="edge">
<title>br3&#45;&gt;cr3</title>
<path fill="none" stroke="#000000" d="M283.8462,-386.9C361.3943,-386.9 438.9425,-386.9 516.4906,-386.9"/>
<polygon fill="#000000" stroke="#000000" points="283.401,-383.4001 273.4009,-386.9 283.4009,-390.4001 283.401,-383.4001"/>
</g>
<!-- br5 -->
<g id="node19" class="node">
<title>br5</title>
</g>
<!-- br4&#45;&gt;br5 -->
<g id="edge15" class="edge">
<title>br4&#45;&gt;br5</title>
<path fill="none" stroke="#000000" stroke-dasharray="5,2" d="M272.4439,-348.2404C272.4439,-343.6675 272.4439,-316.7157 272.4439,-311.7025"/>
</g>
<!-- cr4 -->
<g id="node28" class="node">
<title>cr4</title>
</g>
<!-- br4&#45;&gt;cr4 -->
<g id="edge48" class="edge">
<title>br4&#45;&gt;cr4</title>
<path fill="none" stroke="#000000" d="M273.1467,-348.9C287.0681,-348.9 503.284,-348.9 516.7839,-348.9"/>
<text text-anchor="middle" x="394.9439" y="-372.9" font-family="Times,serif" font-size="14.00" fill="#000000">OIDC discovery</text>
<text text-anchor="middle" x="394.9439" y="-356.1" font-family="Times,serif" font-size="14.00" fill="#000000"> response</text>
</g>
<!-- br6 -->
<g id="node20" class="node">
<title>br6</title>
</g>
<!-- br5&#45;&gt;br6 -->
<g id="edge16" class="edge">
<title>br5&#45;&gt;br6</title>
<path fill="none" stroke="#000000" stroke-width="5" d="M272.4439,-310.2404C272.4439,-305.6675 272.4439,-278.7157 272.4439,-273.7025"/>
</g>
<!-- cr5 -->
<g id="node29" class="node">
<title>cr5</title>
</g>
<!-- br5&#45;&gt;cr5 -->
<g id="edge46" class="edge">
<title>br5&#45;&gt;cr5</title>
<path fill="none" stroke="#000000" d="M283.8462,-310.9C361.3943,-310.9 438.9425,-310.9 516.4906,-310.9"/>
<polygon fill="#000000" stroke="#000000" points="283.401,-307.4001 273.4009,-310.9 283.4009,-314.4001 283.401,-307.4001"/>
</g>
<!-- br7 -->
<g id="node21" class="node">
<title>br7</title>
</g>
<!-- br6&#45;&gt;br7 -->
<g id="edge17" class="edge">
<title>br6&#45;&gt;br7</title>
<path fill="none" stroke="#000000" stroke-dasharray="5,2" d="M272.4439,-272.1152C272.4439,-262.1388 272.4439,-160.2447 272.4439,-150.714"/>
</g>
<!-- cr6 -->
<g id="node30" class="node">
<title>cr6</title>
</g>
<!-- br6&#45;&gt;cr6 -->
<g id="edge50" class="edge">
<title>br6&#45;&gt;cr6</title>
<path fill="none" stroke="#000000" d="M273.1467,-272.9C287.0681,-272.9 503.284,-272.9 516.7839,-272.9"/>
<text text-anchor="middle" x="394.9439" y="-296.9" font-family="Times,serif" font-size="14.00" fill="#000000">jwks_uri</text>
<text text-anchor="middle" x="394.9439" y="-280.1" font-family="Times,serif" font-size="14.00" fill="#000000"> response</text>
</g>
<!-- br8 -->
<g id="node22" class="node">
<title>br8</title>
</g>
<!-- br7&#45;&gt;br8 -->
<g id="edge18" class="edge">
<title>br7&#45;&gt;br8</title>
<path fill="none" stroke="#000000" stroke-dasharray="5,2" d="M272.4439,-149.1746C272.4439,-141.6043 272.4439,-84.3542 272.4439,-77.2275"/>
</g>
<!-- br9 -->
<g id="node23" class="node">
<title>br9</title>
</g>
<!-- br8&#45;&gt;br9 -->
<g id="edge19" class="edge">
<title>br8&#45;&gt;br9</title>
<path fill="none" stroke="#000000" stroke-dasharray="5,2" d="M272.4439,-75.8404C272.4439,-71.2675 272.4439,-44.3157 272.4439,-39.3025"/>
</g>
<!-- br10 -->
<g id="node24" class="node">
<title>br10</title>
</g>
<!-- br9&#45;&gt;br10 -->
<g id="edge20" class="edge">
<title>br9&#45;&gt;br10</title>
<path fill="none" stroke="#000000" stroke-dasharray="5,2" d="M272.4439,-37.8404C272.4439,-33.2675 272.4439,-6.3157 272.4439,-1.3025"/>
</g>
<!-- cr2 -->
<g id="node26" class="node">
<title>cr2</title>
</g>
<!-- cr1&#45;&gt;cr2 -->
<g id="edge22" class="edge">
<title>cr1&#45;&gt;cr2</title>
<path fill="none" stroke="#000000" stroke-width="5" d="M517.4439,-462.2404C517.4439,-457.6675 517.4439,-430.7157 517.4439,-425.7025"/>
</g>
<!-- cr2&#45;&gt;cr3 -->
<g id="edge23" class="edge">
<title>cr2&#45;&gt;cr3</title>
<path fill="none" stroke="#000000" stroke-dasharray="5,2" d="M517.4439,-424.2404C517.4439,-419.6675 517.4439,-392.7157 517.4439,-387.7025"/>
</g>
<!-- dr2 -->
<g id="node37" class="node">
<title>dr2</title>
</g>
<!-- cr2&#45;&gt;dr2 -->
<g id="edge43" class="edge">
<title>cr2&#45;&gt;dr2</title>
<path fill="none" stroke="#000000" d="M518.1467,-424.9C530.627,-424.9 705.6882,-424.9 751.5242,-424.9"/>
<polygon fill="#000000" stroke="#000000" points="751.7839,-428.4001 761.7839,-424.9 751.7838,-421.4001 751.7839,-428.4001"/>
<text text-anchor="middle" x="639.9439" y="-432.1" font-family="Times,serif" font-size="14.00" fill="#000000">watch</text>
</g>
<!-- cr3&#45;&gt;cr4 -->
<g id="edge24" class="edge">
<title>cr3&#45;&gt;cr4</title>
<path fill="none" stroke="#000000" stroke-dasharray="5,2" d="M517.4439,-386.2404C517.4439,-381.6675 517.4439,-354.7157 517.4439,-349.7025"/>
</g>
<!-- dr3 -->
<g id="node38" class="node">
<title>dr3</title>
</g>
<!-- cr3&#45;&gt;dr3 -->
<g id="edge45" class="edge">
<title>cr3&#45;&gt;dr3</title>
<path fill="none" stroke="#000000" d="M518.1467,-386.9C532.0681,-386.9 748.284,-386.9 761.7839,-386.9"/>
<text text-anchor="middle" x="639.9439" y="-410.9" font-family="Times,serif" font-size="14.00" fill="#000000">OIDCdiscovery</text>
<text text-anchor="middle" x="639.9439" y="-394.1" font-family="Times,serif" font-size="14.00" fill="#000000"> request</text>
</g>
<!-- cr4&#45;&gt;cr5 -->
<g id="edge25" class="edge">
<title>cr4&#45;&gt;cr5</title>
<path fill="none" stroke="#000000" stroke-dasharray="5,2" d="M517.4439,-348.2404C517.4439,-343.6675 517.4439,-316.7157 517.4439,-311.7025"/>
</g>
<!-- dr4 -->
<g id="node39" class="node">
<title>dr4</title>
</g>
<!-- cr4&#45;&gt;dr4 -->
<g id="edge49" class="edge">
<title>cr4&#45;&gt;dr4</title>
<path fill="none" stroke="#000000" d="M518.4009,-348.9C595.9491,-348.9 673.4972,-348.9 751.0453,-348.9"/>
<polygon fill="#000000" stroke="#000000" points="751.4906,-352.4001 761.4906,-348.9 751.4906,-345.4001 751.4906,-352.4001"/>
</g>
<!-- cr5&#45;&gt;cr6 -->
<g id="edge26" class="edge">
<title>cr5&#45;&gt;cr6</title>
<path fill="none" stroke="#000000" stroke-dasharray="5,2" d="M517.4439,-310.2404C517.4439,-305.6675 517.4439,-278.7157 517.4439,-273.7025"/>
</g>
<!-- dr5 -->
<g id="node40" class="node">
<title>dr5</title>
</g>
<!-- cr5&#45;&gt;dr5 -->
<g id="edge47" class="edge">
<title>cr5&#45;&gt;dr5</title>
<path fill="none" stroke="#000000" d="M518.1467,-310.9C532.0681,-310.9 748.284,-310.9 761.7839,-310.9"/>
<text text-anchor="middle" x="639.9439" y="-334.9" font-family="Times,serif" font-size="14.00" fill="#000000">jwks_uri</text>
<text text-anchor="middle" x="639.9439" y="-318.1" font-family="Times,serif" font-size="14.00" fill="#000000"> request</text>
</g>
<!-- cr7 -->
<g id="node31" class="node">
<title>cr7</title>
</g>
<!-- cr6&#45;&gt;cr7 -->
<g id="edge27" class="edge">
<title>cr6&#45;&gt;cr7</title>
<path fill="none" stroke="#000000" stroke-dasharray="5,2" d="M517.4439,-272.1152C517.4439,-262.1388 517.4439,-160.2447 517.4439,-150.714"/>
</g>
<!-- dr6 -->
<g id="node41" class="node">
<title>dr6</title>
</g>
<!-- cr6&#45;&gt;dr6 -->
<g id="edge51" class="edge">
<title>cr6&#45;&gt;dr6</title>
<path fill="none" stroke="#000000" d="M518.4009,-272.9C595.9491,-272.9 673.4972,-272.9 751.0453,-272.9"/>
<polygon fill="#000000" stroke="#000000" points="751.4906,-276.4001 761.4906,-272.9 751.4906,-269.4001 751.4906,-276.4001"/>
</g>
<!-- cr8 -->
<g id="node32" class="node">
<title>cr8</title>
</g>
<!-- cr7&#45;&gt;cr8 -->
<g id="edge28" class="edge">
<title>cr7&#45;&gt;cr8</title>
<path fill="none" stroke="#000000" stroke-dasharray="5,2" d="M517.4439,-149.1746C517.4439,-141.6043 517.4439,-84.3542 517.4439,-77.2275"/>
</g>
<!-- cr9 -->
<g id="node33" class="node">
<title>cr9</title>
</g>
<!-- cr8&#45;&gt;cr9 -->
<g id="edge29" class="edge">
<title>cr8&#45;&gt;cr9</title>
<path fill="none" stroke="#000000" stroke-dasharray="5,2" d="M517.4439,-75.8404C517.4439,-71.2675 517.4439,-44.3157 517.4439,-39.3025"/>
</g>
<!-- cr10 -->
<g id="node34" class="node">
<title>cr10</title>
</g>
<!-- cr9&#45;&gt;cr10 -->
<g id="edge30" class="edge">
<title>cr9&#45;&gt;cr10</title>
<path fill="none" stroke="#000000" stroke-dasharray="5,2" d="M517.4439,-37.8404C517.4439,-33.2675 517.4439,-6.3157 517.4439,-1.3025"/>
</g>
<!-- dr7 -->
<g id="node35" class="node">
<title>dr7</title>
<polygon fill="none" stroke="#000000" points="786.0338,-186 738.854,-186 738.854,-114 786.0338,-114 786.0338,-186"/>
<text text-anchor="middle" x="762.4439" y="-145.8" font-family="Times,serif" font-size="14.00" fill="#000000">ready</text>
</g>
<!-- dr8 -->
<g id="node42" class="node">
<title>dr8</title>
</g>
<!-- dr7&#45;&gt;dr8 -->
<g id="edge38" class="edge">
<title>dr7&#45;&gt;dr8</title>
<path fill="none" stroke="#000000" stroke-dasharray="5,2" d="M762.4439,-113.6807C762.4439,-97.4779 762.4439,-81.1635 762.4439,-77.3381"/>
</g>
<!-- dr1&#45;&gt;dr2 -->
<g id="edge32" class="edge">
<title>dr1&#45;&gt;dr2</title>
<path fill="none" stroke="#000000" stroke-dasharray="5,2" d="M762.4439,-462.2404C762.4439,-457.6675 762.4439,-430.7157 762.4439,-425.7025"/>
</g>
<!-- dr2&#45;&gt;dr3 -->
<g id="edge33" class="edge">
<title>dr2&#45;&gt;dr3</title>
<path fill="none" stroke="#000000" stroke-width="5" d="M762.4439,-424.2404C762.4439,-419.6675 762.4439,-392.7157 762.4439,-387.7025"/>
</g>
<!-- dr3&#45;&gt;dr4 -->
<g id="edge34" class="edge">
<title>dr3&#45;&gt;dr4</title>
<path fill="none" stroke="#000000" stroke-dasharray="5,2" d="M762.4439,-386.2404C762.4439,-381.6675 762.4439,-354.7157 762.4439,-349.7025"/>
</g>
<!-- dr4&#45;&gt;dr5 -->
<g id="edge35" class="edge">
<title>dr4&#45;&gt;dr5</title>
<path fill="none" stroke="#000000" stroke-width="5" d="M762.4439,-348.2404C762.4439,-343.6675 762.4439,-316.7157 762.4439,-311.7025"/>
</g>
<!-- dr5&#45;&gt;dr6 -->
<g id="edge36" class="edge">
<title>dr5&#45;&gt;dr6</title>
<path fill="none" stroke="#000000" stroke-dasharray="5,2" d="M762.4439,-310.2404C762.4439,-305.6675 762.4439,-278.7157 762.4439,-273.7025"/>
</g>
<!-- dr6&#45;&gt;dr7 -->
<g id="edge37" class="edge">
<title>dr6&#45;&gt;dr7</title>
<path fill="none" stroke="#000000" stroke-width="5" d="M762.4439,-272.1152C762.4439,-266.2306 762.4439,-228.3655 762.4439,-196.3389"/>
<polygon fill="#000000" stroke="#000000" stroke-width="5" points="766.819,-196.1937 762.4439,-186.1938 758.069,-196.1938 766.819,-196.1937"/>
<text text-anchor="middle" x="814.3573" y="-241.8" font-family="Times,serif" font-size="14.00" fill="#000000"> &#160;&#160;add Custom IDP</text>
<text text-anchor="middle" x="814.3573" y="-225" font-family="Times,serif" font-size="14.00" fill="#000000"> &#160;to list of OIDC</text>
<text text-anchor="middle" x="814.3573" y="-208.2" font-family="Times,serif" font-size="14.00" fill="#000000"> &#160;authenticators</text>
</g>
<!-- dr9 -->
<g id="node43" class="node">
<title>dr9</title>
</g>
<!-- dr8&#45;&gt;dr9 -->
<g id="edge39" class="edge">
<title>dr8&#45;&gt;dr9</title>
<path fill="none" stroke="#000000" stroke-dasharray="5,2" d="M762.4439,-75.8404C762.4439,-71.2675 762.4439,-44.3157 762.4439,-39.3025"/>
</g>
<!-- dr10 -->
<g id="node44" class="node">
<title>dr10</title>
</g>
<!-- dr9&#45;&gt;dr10 -->
<g id="edge40" class="edge">
<title>dr9&#45;&gt;dr10</title>
<path fill="none" stroke="#000000" stroke-dasharray="5,2" d="M762.4439,-37.8404C762.4439,-33.2675 762.4439,-6.3157 762.4439,-1.3025"/>
</g>
</g>
</svg>
