<?xml version="1.0" encoding="UTF-8" standalone="no"?>
<!DOCTYPE svg PUBLIC "-//W3C//DTD SVG 1.1//EN"
 "http://www.w3.org/Graphics/SVG/1.1/DTD/svg11.dtd">
<!-- Generated by graphviz version 2.43.0 (0)
 -->
<!-- Title: oidc_registration Pages: 1 -->
<svg width="874pt" height="550pt"
 viewBox="0.00 0.00 874.28 550.00" xmlns="http://www.w3.org/2000/svg" xmlns:xlink="http://www.w3.org/1999/xlink">
<g id="graph0" class="graph" transform="scale(1 1) rotate(0) translate(4 546)">
<title>oidc_registration</title>
<polygon fill="white" stroke="transparent" points="-4,4 -4,-546 870.28,-546 870.28,4 -4,4"/>
<!-- admin -->
<g id="node1" class="node">
<title>admin</title>
<polygon fill="none" stroke="black" points="54.83,-542 0.06,-542 0.06,-492 54.83,-492 54.83,-542"/>
<text text-anchor="middle" x="27.44" y="-512.8" font-family="Times,serif" font-size="14.00">Admin</text>
</g>
<!-- ar1 -->
<g id="node5" class="node">
<title>ar1</title>
</g>
<!-- admin&#45;&gt;ar1 -->
<g id="edge1" class="edge">
<title>admin&#45;&gt;ar1</title>
<path fill="none" stroke="black" stroke-dasharray="5,2" d="M27.44,-491.89C27.44,-475.37 27.44,-456.24 27.44,-455.06"/>
</g>
<!-- idpr -->
<g id="node2" class="node">
<title>idpr</title>
<polygon fill="none" stroke="black" points="315.07,-542 229.82,-542 229.82,-492 315.07,-492 315.07,-542"/>
<text text-anchor="middle" x="272.44" y="-512.8" font-family="Times,serif" font-size="14.00">Custom IDP</text>
</g>
<!-- br1 -->
<g id="node15" class="node">
<title>br1</title>
</g>
<!-- idpr&#45;&gt;br1 -->
<g id="edge11" class="edge">
<title>idpr&#45;&gt;br1</title>
<path fill="none" stroke="black" stroke-dasharray="5,2" d="M272.44,-491.89C272.44,-475.37 272.44,-456.24 272.44,-455.06"/>
</g>
<!-- k8sr -->
<g id="node3" class="node">
<title>k8sr</title>
<polygon fill="none" stroke="black" points="573.1,-542 461.79,-542 461.79,-492 573.1,-492 573.1,-542"/>
<text text-anchor="middle" x="517.44" y="-512.8" font-family="Times,serif" font-size="14.00">Kube API Server</text>
</g>
<!-- cr1 -->
<g id="node25" class="node">
<title>cr1</title>
</g>
<!-- k8sr&#45;&gt;cr1 -->
<g id="edge21" class="edge">
<title>k8sr&#45;&gt;cr1</title>
<path fill="none" stroke="black" stroke-dasharray="5,2" d="M517.44,-491.89C517.44,-475.37 517.44,-456.24 517.44,-455.06"/>
</g>
<!-- authr -->
<g id="node4" class="node">
<title>authr</title>
<polygon fill="none" stroke="black" points="827.37,-542 697.52,-542 697.52,-492 827.37,-492 827.37,-542"/>
<text text-anchor="middle" x="762.44" y="-512.8" font-family="Times,serif" font-size="14.00">OIDC Authenticator</text>
</g>
<!-- dr1 -->
<g id="node36" class="node">
<title>dr1</title>
</g>
<!-- authr&#45;&gt;dr1 -->
<g id="edge31" class="edge">
<title>authr&#45;&gt;dr1</title>
<path fill="none" stroke="black" stroke-dasharray="5,2" d="M762.44,-491.89C762.44,-475.37 762.44,-456.24 762.44,-455.06"/>
</g>
<!-- ar2 -->
<g id="node6" class="node">
<title>ar2</title>
</g>
<!-- ar1&#45;&gt;ar2 -->
<g id="edge2" class="edge">
<title>ar1&#45;&gt;ar2</title>
<path fill="none" stroke="black" stroke-dasharray="5,2" d="M27.44,-453.89C27.44,-451.79 27.44,-419.14 27.44,-417.1"/>
</g>
<!-- ar1&#45;&gt;br1 -->
<g id="edge41" class="edge">
<title>ar1&#45;&gt;br1</title>
<path fill="none" stroke="black" d="M28.15,-454.5C42.07,-454.5 258.28,-454.5 271.78,-454.5"/>
<text text-anchor="middle" x="149.94" y="-474.3" font-family="Times,serif" font-size="14.00">create</text>
<text text-anchor="middle" x="149.94" y="-460.3" font-family="Times,serif" font-size="14.00">OpenIDConnect</text>
</g>
<!-- ar3 -->
<g id="node7" class="node">
<title>ar3</title>
</g>
<!-- ar2&#45;&gt;ar3 -->
<g id="edge3" class="edge">
<title>ar2&#45;&gt;ar3</title>
<path fill="none" stroke="black" stroke-dasharray="5,2" d="M27.44,-415.89C27.44,-413.79 27.44,-381.14 27.44,-379.1"/>
</g>
<!-- ar4 -->
<g id="node8" class="node">
<title>ar4</title>
</g>
<!-- ar3&#45;&gt;ar4 -->
<g id="edge4" class="edge">
<title>ar3&#45;&gt;ar4</title>
<path fill="none" stroke="black" stroke-dasharray="5,2" d="M27.44,-377.89C27.44,-375.79 27.44,-343.14 27.44,-341.1"/>
</g>
<!-- ar5 -->
<g id="node9" class="node">
<title>ar5</title>
</g>
<!-- ar4&#45;&gt;ar5 -->
<g id="edge5" class="edge">
<title>ar4&#45;&gt;ar5</title>
<path fill="none" stroke="black" stroke-dasharray="5,2" d="M27.44,-339.89C27.44,-337.79 27.44,-305.14 27.44,-303.1"/>
</g>
<!-- ar6 -->
<g id="node10" class="node">
<title>ar6</title>
</g>
<!-- ar5&#45;&gt;ar6 -->
<g id="edge6" class="edge">
<title>ar5&#45;&gt;ar6</title>
<path fill="none" stroke="black" stroke-dasharray="5,2" d="M27.44,-301.89C27.44,-299.79 27.44,-267.14 27.44,-265.1"/>
</g>
<!-- ar7 -->
<g id="node11" class="node">
<title>ar7</title>
</g>
<!-- ar6&#45;&gt;ar7 -->
<g id="edge7" class="edge">
<title>ar6&#45;&gt;ar7</title>
<path fill="none" stroke="black" stroke-dasharray="5,2" d="M27.44,-263.89C27.44,-261.79 27.44,-229.14 27.44,-227.1"/>
</g>
<!-- ar8 -->
<g id="node12" class="node">
<title>ar8</title>
</g>
<!-- ar7&#45;&gt;ar8 -->
<g id="edge8" class="edge">
<title>ar7&#45;&gt;ar8</title>
<path fill="none" stroke="black" stroke-dasharray="5,2" d="M27.44,-225.89C27.44,-223.79 27.44,-191.14 27.44,-189.1"/>
</g>
<!-- ar9 -->
<g id="node13" class="node">
<title>ar9</title>
</g>
<!-- ar8&#45;&gt;ar9 -->
<g id="edge9" class="edge">
<title>ar8&#45;&gt;ar9</title>
<path fill="none" stroke="black" stroke-dasharray="5,2" d="M27.44,-187.92C27.44,-184.55 27.44,-78.4 27.44,-75.08"/>
</g>
<!-- ar10 -->
<g id="node14" class="node">
<title>ar10</title>
</g>
<!-- ar9&#45;&gt;ar10 -->
<g id="edge10" class="edge">
<title>ar9&#45;&gt;ar10</title>
<path fill="none" stroke="black" stroke-dasharray="5,2" d="M27.44,-72.95C27.44,-70.8 27.44,-3.16 27.44,-1.05"/>
</g>
<!-- br2 -->
<g id="node16" class="node">
<title>br2</title>
</g>
<!-- br1&#45;&gt;br2 -->
<g id="edge12" class="edge">
<title>br1&#45;&gt;br2</title>
<path fill="none" stroke="black" stroke-dasharray="5,2" d="M272.44,-453.89C272.44,-451.79 272.44,-419.14 272.44,-417.1"/>
</g>
<!-- br1&#45;&gt;cr1 -->
<g id="edge42" class="edge">
<title>br1&#45;&gt;cr1</title>
<path fill="none" stroke="black" d="M273.4,-454.5C350.95,-454.5 428.5,-454.5 506.05,-454.5"/>
<polygon fill="black" stroke="black" points="506.49,-458 516.49,-454.5 506.49,-451 506.49,-458"/>
</g>
<!-- br3 -->
<g id="node17" class="node">
<title>br3</title>
</g>
<!-- br2&#45;&gt;br3 -->
<g id="edge13" class="edge">
<title>br2&#45;&gt;br3</title>
<path fill="none" stroke="black" stroke-dasharray="5,2" d="M272.44,-415.89C272.44,-413.79 272.44,-381.14 272.44,-379.1"/>
</g>
<!-- br4 -->
<g id="node18" class="node">
<title>br4</title>
</g>
<!-- br3&#45;&gt;br4 -->
<g id="edge14" class="edge">
<title>br3&#45;&gt;br4</title>
<path fill="none" stroke="black" stroke-width="5" d="M272.44,-377.89C272.44,-375.79 272.44,-343.14 272.44,-341.1"/>
</g>
<!-- cr3 -->
<g id="node27" class="node">
<title>cr3</title>
</g>
<!-- br3&#45;&gt;cr3 -->
<g id="edge44" class="edge">
<title>br3&#45;&gt;cr3</title>
<path fill="none" stroke="black" d="M283.85,-378.5C361.4,-378.5 438.94,-378.5 516.49,-378.5"/>
<polygon fill="black" stroke="black" points="283.4,-375 273.4,-378.5 283.4,-382 283.4,-375"/>
</g>
<!-- br5 -->
<g id="node19" class="node">
<title>br5</title>
</g>
<!-- br4&#45;&gt;br5 -->
<g id="edge15" class="edge">
<title>br4&#45;&gt;br5</title>
<path fill="none" stroke="black" stroke-dasharray="5,2" d="M272.44,-339.89C272.44,-337.79 272.44,-305.14 272.44,-303.1"/>
</g>
<!-- cr4 -->
<g id="node28" class="node">
<title>cr4</title>
</g>
<!-- br4&#45;&gt;cr4 -->
<g id="edge48" class="edge">
<title>br4&#45;&gt;cr4</title>
<path fill="none" stroke="black" d="M273.15,-340.5C287.07,-340.5 503.28,-340.5 516.78,-340.5"/>
<text text-anchor="middle" x="394.94" y="-360.3" font-family="Times,serif" font-size="14.00">OIDC discovery</text>
<text text-anchor="middle" x="394.94" y="-346.3" font-family="Times,serif" font-size="14.00"> response</text>
</g>
<!-- br6 -->
<g id="node20" class="node">
<title>br6</title>
</g>
<!-- br5&#45;&gt;br6 -->
<g id="edge16" class="edge">
<title>br5&#45;&gt;br6</title>
<path fill="none" stroke="black" stroke-width="5" d="M272.44,-301.89C272.44,-299.79 272.44,-267.14 272.44,-265.1"/>
</g>
<!-- cr5 -->
<g id="node29" class="node">
<title>cr5</title>
</g>
<!-- br5&#45;&gt;cr5 -->
<g id="edge46" class="edge">
<title>br5&#45;&gt;cr5</title>
<path fill="none" stroke="black" d="M283.85,-302.5C361.4,-302.5 438.94,-302.5 516.49,-302.5"/>
<polygon fill="black" stroke="black" points="283.4,-299 273.4,-302.5 283.4,-306 283.4,-299"/>
</g>
<!-- br7 -->
<g id="node21" class="node">
<title>br7</title>
</g>
<!-- br6&#45;&gt;br7 -->
<g id="edge17" class="edge">
<title>br6&#45;&gt;br7</title>
<path fill="none" stroke="black" stroke-dasharray="5,2" d="M272.44,-263.89C272.44,-261.79 272.44,-229.14 272.44,-227.1"/>
</g>
<!-- cr6 -->
<g id="node30" class="node">
<title>cr6</title>
</g>
<!-- br6&#45;&gt;cr6 -->
<g id="edge50" class="edge">
<title>br6&#45;&gt;cr6</title>
<path fill="none" stroke="black" d="M273.15,-264.5C287.07,-264.5 503.28,-264.5 516.78,-264.5"/>
<text text-anchor="middle" x="394.94" y="-284.3" font-family="Times,serif" font-size="14.00">jwks_uri</text>
<text text-anchor="middle" x="394.94" y="-270.3" font-family="Times,serif" font-size="14.00"> response</text>
</g>
<!-- br8 -->
<g id="node22" class="node">
<title>br8</title>
</g>
<!-- br7&#45;&gt;br8 -->
<g id="edge18" class="edge">
<title>br7&#45;&gt;br8</title>
<path fill="none" stroke="black" stroke-dasharray="5,2" d="M272.44,-225.89C272.44,-223.79 272.44,-191.14 272.44,-189.1"/>
</g>
<!-- br9 -->
<g id="node23" class="node">
<title>br9</title>
</g>
<!-- br8&#45;&gt;br9 -->
<g id="edge19" class="edge">
<title>br8&#45;&gt;br9</title>
<path fill="none" stroke="black" stroke-dasharray="5,2" d="M272.44,-187.92C272.44,-184.55 272.44,-78.4 272.44,-75.08"/>
</g>
<!-- br10 -->
<g id="node24" class="node">
<title>br10</title>
</g>
<!-- br9&#45;&gt;br10 -->
<g id="edge20" class="edge">
<title>br9&#45;&gt;br10</title>
<path fill="none" stroke="black" stroke-dasharray="5,2" d="M272.44,-72.95C272.44,-70.8 272.44,-3.16 272.44,-1.05"/>
</g>
<!-- cr2 -->
<g id="node26" class="node">
<title>cr2</title>
</g>
<!-- cr1&#45;&gt;cr2 -->
<g id="edge22" class="edge">
<title>cr1&#45;&gt;cr2</title>
<path fill="none" stroke="black" stroke-width="5" d="M517.44,-453.89C517.44,-451.79 517.44,-419.14 517.44,-417.1"/>
</g>
<!-- cr2&#45;&gt;cr3 -->
<g id="edge23" class="edge">
<title>cr2&#45;&gt;cr3</title>
<path fill="none" stroke="black" stroke-dasharray="5,2" d="M517.44,-415.89C517.44,-413.79 517.44,-381.14 517.44,-379.1"/>
</g>
<!-- dr2 -->
<g id="node37" class="node">
<title>dr2</title>
</g>
<!-- cr2&#45;&gt;dr2 -->
<g id="edge43" class="edge">
<title>cr2&#45;&gt;dr2</title>
<path fill="none" stroke="black" d="M518.15,-416.5C530.63,-416.5 705.69,-416.5 751.53,-416.5"/>
<polygon fill="black" stroke="black" points="751.78,-420 761.78,-416.5 751.78,-413 751.78,-420"/>
<text text-anchor="middle" x="639.94" y="-422.3" font-family="Times,serif" font-size="14.00">watch</text>
</g>
<!-- cr3&#45;&gt;cr4 -->
<g id="edge24" class="edge">
<title>cr3&#45;&gt;cr4</title>
<path fill="none" stroke="black" stroke-dasharray="5,2" d="M517.44,-377.89C517.44,-375.79 517.44,-343.14 517.44,-341.1"/>
</g>
<!-- dr3 -->
<g id="node38" class="node">
<title>dr3</title>
</g>
<!-- cr3&#45;&gt;dr3 -->
<g id="edge45" class="edge">
<title>cr3&#45;&gt;dr3</title>
<path fill="none" stroke="black" d="M518.15,-378.5C532.07,-378.5 748.28,-378.5 761.78,-378.5"/>
<text text-anchor="middle" x="639.94" y="-398.3" font-family="Times,serif" font-size="14.00">OIDCdiscovery</text>
<text text-anchor="middle" x="639.94" y="-384.3" font-family="Times,serif" font-size="14.00"> request</text>
</g>
<!-- cr4&#45;&gt;cr5 -->
<g id="edge25" class="edge">
<title>cr4&#45;&gt;cr5</title>
<path fill="none" stroke="black" stroke-dasharray="5,2" d="M517.44,-339.89C517.44,-337.79 517.44,-305.14 517.44,-303.1"/>
</g>
<!-- dr4 -->
<g id="node39" class="node">
<title>dr4</title>
</g>
<!-- cr4&#45;&gt;dr4 -->
<g id="edge49" class="edge">
<title>cr4&#45;&gt;dr4</title>
<path fill="none" stroke="black" d="M518.4,-340.5C595.95,-340.5 673.5,-340.5 751.05,-340.5"/>
<polygon fill="black" stroke="black" points="751.49,-344 761.49,-340.5 751.49,-337 751.49,-344"/>
</g>
<!-- cr5&#45;&gt;cr6 -->
<g id="edge26" class="edge">
<title>cr5&#45;&gt;cr6</title>
<path fill="none" stroke="black" stroke-dasharray="5,2" d="M517.44,-301.89C517.44,-299.79 517.44,-267.14 517.44,-265.1"/>
</g>
<!-- dr5 -->
<g id="node40" class="node">
<title>dr5</title>
</g>
<!-- cr5&#45;&gt;dr5 -->
<g id="edge47" class="edge">
<title>cr5&#45;&gt;dr5</title>
<path fill="none" stroke="black" d="M518.15,-302.5C532.07,-302.5 748.28,-302.5 761.78,-302.5"/>
<text text-anchor="middle" x="639.94" y="-322.3" font-family="Times,serif" font-size="14.00">jwks_uri</text>
<text text-anchor="middle" x="639.94" y="-308.3" font-family="Times,serif" font-size="14.00"> request</text>
</g>
<!-- cr7 -->
<g id="node31" class="node">
<title>cr7</title>
</g>
<!-- cr6&#45;&gt;cr7 -->
<g id="edge27" class="edge">
<title>cr6&#45;&gt;cr7</title>
<path fill="none" stroke="black" stroke-dasharray="5,2" d="M517.44,-263.89C517.44,-261.79 517.44,-229.14 517.44,-227.1"/>
</g>
<!-- dr6 -->
<g id="node41" class="node">
<title>dr6</title>
</g>
<!-- cr6&#45;&gt;dr6 -->
<g id="edge51" class="edge">
<title>cr6&#45;&gt;dr6</title>
<path fill="none" stroke="black" d="M518.4,-264.5C595.95,-264.5 673.5,-264.5 751.05,-264.5"/>
<polygon fill="black" stroke="black" points="751.49,-268 761.49,-264.5 751.49,-261 751.49,-268"/>
</g>
<!-- cr8 -->
<g id="node32" class="node">
<title>cr8</title>
</g>
<!-- cr7&#45;&gt;cr8 -->
<g id="edge28" class="edge">
<title>cr7&#45;&gt;cr8</title>
<path fill="none" stroke="black" stroke-width="5" d="M517.44,-225.89C517.44,-223.79 517.44,-191.14 517.44,-189.1"/>
</g>
<!-- dr7 -->
<g id="node42" class="node">
<title>dr7</title>
</g>
<!-- cr7&#45;&gt;dr7 -->
<g id="edge52" class="edge">
<title>cr7&#45;&gt;dr7</title>
<path fill="none" stroke="black" d="M528.22,-226.5C573.9,-226.5 749.66,-226.5 761.78,-226.5"/>
<polygon fill="black" stroke="black" points="528.15,-223 518.15,-226.5 528.15,-230 528.15,-223"/>
<text text-anchor="middle" x="639.94" y="-246.3" font-family="Times,serif" font-size="14.00">OpenIDConnect</text>
<text text-anchor="middle" x="639.94" y="-232.3" font-family="Times,serif" font-size="14.00"> update status</text>
</g>
<!-- cr9 -->
<g id="node33" class="node">
<title>cr9</title>
</g>
<!-- cr8&#45;&gt;cr9 -->
<g id="edge29" class="edge">
<title>cr8&#45;&gt;cr9</title>
<path fill="none" stroke="black" stroke-dasharray="5,2" d="M517.44,-187.92C517.44,-184.55 517.44,-78.4 517.44,-75.08"/>
</g>
<!-- dr8 -->
<g id="node43" class="node">
<title>dr8</title>
</g>
<!-- cr8&#45;&gt;dr8 -->
<g id="edge53" class="edge">
<title>cr8&#45;&gt;dr8</title>
<path fill="none" stroke="black" d="M518.15,-188.5C530.63,-188.5 705.69,-188.5 751.53,-188.5"/>
<polygon fill="black" stroke="black" points="751.78,-192 761.78,-188.5 751.78,-185 751.78,-192"/>
<text text-anchor="middle" x="639.94" y="-194.3" font-family="Times,serif" font-size="14.00">watch</text>
</g>
<!-- cr10 -->
<g id="node34" class="node">
<title>cr10</title>
</g>
<!-- cr9&#45;&gt;cr10 -->
<g id="edge30" class="edge">
<title>cr9&#45;&gt;cr10</title>
<path fill="none" stroke="black" stroke-dasharray="5,2" d="M517.44,-72.95C517.44,-70.8 517.44,-3.16 517.44,-1.05"/>
</g>
<!-- dr9 -->
<g id="node35" class="node">
<title>dr9</title>
<polygon fill="none" stroke="black" points="786.03,-110 738.85,-110 738.85,-38 786.03,-38 786.03,-110"/>
<text text-anchor="middle" x="762.44" y="-69.8" font-family="Times,serif" font-size="14.00">ready</text>
</g>
<!-- dr10 -->
<g id="node44" class="node">
<title>dr10</title>
</g>
<!-- dr9&#45;&gt;dr10 -->
<g id="edge40" class="edge">
<title>dr9&#45;&gt;dr10</title>
<path fill="none" stroke="black" stroke-dasharray="5,2" d="M762.44,-37.84C762.44,-20.14 762.44,-2.16 762.44,-1.05"/>
</g>
<!-- dr1&#45;&gt;dr2 -->
<g id="edge32" class="edge">
<title>dr1&#45;&gt;dr2</title>
<path fill="none" stroke="black" stroke-dasharray="5,2" d="M762.44,-453.89C762.44,-451.79 762.44,-419.14 762.44,-417.1"/>
</g>
<!-- dr2&#45;&gt;dr3 -->
<g id="edge33" class="edge">
<title>dr2&#45;&gt;dr3</title>
<path fill="none" stroke="black" stroke-width="5" d="M762.44,-415.89C762.44,-413.79 762.44,-381.14 762.44,-379.1"/>
</g>
<!-- dr3&#45;&gt;dr4 -->
<g id="edge34" class="edge">
<title>dr3&#45;&gt;dr4</title>
<path fill="none" stroke="black" stroke-dasharray="5,2" d="M762.44,-377.89C762.44,-375.79 762.44,-343.14 762.44,-341.1"/>
</g>
<!-- dr4&#45;&gt;dr5 -->
<g id="edge35" class="edge">
<title>dr4&#45;&gt;dr5</title>
<path fill="none" stroke="black" stroke-width="5" d="M762.44,-339.89C762.44,-337.79 762.44,-305.14 762.44,-303.1"/>
</g>
<!-- dr5&#45;&gt;dr6 -->
<g id="edge36" class="edge">
<title>dr5&#45;&gt;dr6</title>
<path fill="none" stroke="black" stroke-dasharray="5,2" d="M762.44,-301.89C762.44,-299.79 762.44,-267.14 762.44,-265.1"/>
</g>
<!-- dr6&#45;&gt;dr7 -->
<g id="edge37" class="edge">
<title>dr6&#45;&gt;dr7</title>
<path fill="none" stroke="black" stroke-width="5" d="M762.44,-263.89C762.44,-261.79 762.44,-229.14 762.44,-227.1"/>
</g>
<!-- dr7&#45;&gt;dr8 -->
<g id="edge38" class="edge">
<title>dr7&#45;&gt;dr8</title>
<path fill="none" stroke="black" stroke-dasharray="5,2" d="M762.44,-225.89C762.44,-223.79 762.44,-191.14 762.44,-189.1"/>
</g>
<!-- dr8&#45;&gt;dr9 -->
<g id="edge39" class="edge">
<title>dr8&#45;&gt;dr9</title>
<path fill="none" stroke="black" stroke-width="5" d="M762.44,-187.92C762.44,-186 762.44,-150.85 762.44,-120.27"/>
<polygon fill="black" stroke="black" stroke-width="5" points="766.82,-120.13 762.44,-110.13 758.07,-120.13 766.82,-120.13"/>
<text text-anchor="middle" x="814.36" y="-158.8" font-family="Times,serif" font-size="14.00"> &#160;&#160;add Custom IDP</text>
<text text-anchor="middle" x="814.36" y="-144.8" font-family="Times,serif" font-size="14.00"> &#160;to list of OIDC</text>
<text text-anchor="middle" x="814.36" y="-130.8" font-family="Times,serif" font-size="14.00"> &#160;authenticators</text>
</g>
</g>
</svg>
