<?xml version="1.0" encoding="UTF-8"?>
<svg id="Layer_1" data-name="Layer 1" xmlns="http://www.w3.org/2000/svg" width="286.82" height="250.26" xmlns:xlink="http://www.w3.org/1999/xlink" viewBox="0 0 286.82 250.26">
  <defs>
    <style>
      .cls-1 {
        fill: url(#linear-gradient-2);
      }

      .cls-1, .cls-2, .cls-3, .cls-4 {
        fill-rule: evenodd;
      }

      .cls-2 {
        fill: url(#linear-gradient-3);
      }

      .cls-3 {
        fill: url(#linear-gradient-4);
      }

      .cls-5 {
        isolation: isolate;
        opacity: .3;
      }

      .cls-6 {
        fill: #009f76;
      }

      .cls-4 {
        fill: url(#linear-gradient);
      }
    </style>
    <linearGradient id="linear-gradient" x1="-892.06" y1="-277.55" x2="-890.53" y2="-275.44" gradientTransform="translate(-22934.8 6720.5) rotate(-180) scale(25.9 -24)" gradientUnits="userSpaceOnUse">
      <stop offset="0" stop-color="#fff"/>
      <stop offset="1" stop-color="#439246"/>
    </linearGradient>
    <linearGradient id="linear-gradient-2" x1="-893.36" y1="-275.88" x2="-891.37" y2="-272.48" gradientTransform="translate(-22556.4 6713.4) rotate(-180) scale(25.4 -24)" xlink:href="#linear-gradient"/>
    <linearGradient id="linear-gradient-3" x1="-832.93" y1="-284.89" x2="-831.64" y2="-283.13" gradientTransform="translate(34330.4 9913.8) scale(41.1 34.5)" xlink:href="#linear-gradient"/>
    <linearGradient id="linear-gradient-4" x1="-832.45" y1="-283.73" x2="-830.8" y2="-281.03" gradientTransform="translate(34020.4 9843.2) scale(40.7 34.3)" xlink:href="#linear-gradient"/>
  </defs>
  <g>
    <path d="M53.17,210.88c.64-1.98,1.55-3.6,2.69-4.95s2.54-2.4,4.1-3.11c1.63-.71,3.32-1.06,5.23-1.06,2.97,0,5.44.78,7.42,2.33,1.98,1.55,3.32,3.96,4.17,7.14l-3.6.85c-.71-2.47-1.7-4.24-2.97-5.3-1.27-1.13-2.9-1.64-5.02-1.63-3.75.02-6.85,2.43-8.48,6.72-.49,1.55-.78,3.39-.78,5.51s.21,4.03.71,5.65,1.13,2.97,1.98,4.03,1.84,1.91,2.97,2.4c1.13.57,2.4.78,3.75.78,2.4,0,4.31-.78,5.8-2.33,1.48-1.55,2.19-3.75,2.26-6.57h-7v-3.04h10.53v14.63h-3.18v-4.59h-.07c-.28.64-.7,1.28-1.2,1.91-.66.83-1.7,1.93-4.31,2.83-.92.28-1.98.42-3.18.42-2.05,0-3.89-.42-5.44-1.2s-2.9-1.91-4.03-3.32c-2.41-3.58-3.34-6.32-3.32-11.52,0-2.13.33-4.6.97-6.58h0Z"/>
    <path d="M82,227.63c0-1.13.28-2.12.78-3.04.49-.92,1.34-1.77,2.47-2.54s2.69-1.41,4.52-2.05,4.17-1.06,6.86-1.41v-.99c0-2.69-1.41-3.96-4.17-3.96s-3.11.28-4.38.92-2.4,1.41-3.53,2.33l-1.91-2.19c1.27-1.2,2.76-2.19,4.38-2.97s3.6-1.2,5.8-1.2,2.4.14,3.32.49,1.7.78,2.26,1.41.99,1.41,1.27,2.33.42,1.91.42,3.11v9.54c0,1.34,0,2.4.14,3.32.07.85.28,1.55.49,2.12h-3.68c-.14-.49-.28-.99-.35-1.41-.07-.49-.14-1.06-.14-1.7-2.4,2.26-5.23,3.46-8.41,3.46-2.44,0-3.39-.49-4.52-1.41-1.52-1.39-1.62-3.13-1.62-4.16ZM85.61,227.14c0,1.06.35,1.84.99,2.4.64.57,1.55.85,2.69.85s2.83-.28,4.03-.85,2.33-1.34,3.39-2.33v-6.08c-2.05.35-3.82.71-5.23,1.13s-2.54.85-3.46,1.34-1.48,1.06-1.84,1.63-.57,1.2-.57,1.91h0Z"/>
    <path d="M106.24,211.02h3.53v4.03h.07c.78-1.27,1.84-2.33,3.25-3.18,1.41-.85,3.11-1.27,5.23-1.27h.42l-.21,3.32h-.99c-1.77,0-3.25.42-4.52,1.27s-2.33,2.05-3.11,3.68v14.14h-3.67s0-21.99,0-21.99Z"/>
    <path d="M120.45,222.05c0-1.91.21-3.6.71-5.02s1.13-2.61,1.98-3.53c.85-.92,1.84-1.7,2.97-2.19s2.4-.71,3.68-.71,2.54.28,3.75.92c1.2.57,2.19,1.41,3.04,2.4v-11.59h3.53v25.23c0,1.34,0,2.4.14,3.25.07.85.28,1.55.49,2.12h-3.75c-.14-.35-.28-.85-.35-1.41s-.14-1.13-.14-1.7c-.92.99-1.91,1.77-3.04,2.4s-2.54.99-4.17.99-2.4-.21-3.53-.71c-1.06-.42-2.05-1.13-2.83-2.05s-1.46-2.03-1.91-3.46c-.65-2.07-.57-4.95-.57-4.95h0ZM123.98,222.05c0,1.41.14,2.61.49,3.68.28.99.78,1.84,1.27,2.54.57.71,1.2,1.2,1.98,1.55.78.35,1.55.49,2.47.49,1.27,0,2.4-.28,3.39-.92s1.98-1.41,2.9-2.4v-10.04c-.99-1.06-1.98-1.91-2.97-2.47s-2.12-.85-3.25-.85c-1.91,0-3.46.71-4.59,2.05s-1.7,3.46-1.7,6.36h.01Z"/>
    <path d="M145.18,221.91c0-1.98.28-3.68.92-5.09.57-1.41,1.34-2.61,2.33-3.53s2.05-1.63,3.18-2.05c1.2-.42,2.33-.64,3.46-.64s2.47.21,3.6.71c1.13.42,2.05,1.13,2.9,2.12.85.92,1.48,2.12,1.91,3.6.49,1.41.71,3.18.71,5.16v.71h-15.41c0,1.27.21,2.33.57,3.32.35.92.85,1.7,1.41,2.33.57.64,1.27,1.13,2.05,1.41.78.35,1.63.49,2.54.49,1.55,0,2.83-.28,3.82-.92s1.91-1.48,2.76-2.69l2.05,1.84c-.99,1.48-2.26,2.61-3.68,3.39s-3.18,1.2-5.23,1.2-2.54-.21-3.75-.71c-1.2-.49-2.26-1.2-3.11-2.12-.92-.92-1.63-2.12-2.19-3.53-.57-1.41-.85-3.11-.85-5.02h0v.02h0ZM160.73,219.93c-.14-1.91-.64-3.39-1.63-4.59-.92-1.13-2.33-1.79-4.1-1.77-2.08.03-3.46.99-4.03,1.48-.57.49-1.06,1.2-1.41,1.98-.7,1.47-.78,2.9-.78,2.9h11.95Z"/>
    <path d="M169.28,211.02h3.53v3.25c.49-.42.99-.92,1.55-1.34.57-.42,1.2-.85,1.91-1.2s1.41-.64,2.19-.85,1.63-.28,2.47-.28c2.12,0,3.68.57,4.81,1.7,1.13,1.13,1.63,2.76,1.63,4.81v15.76h-3.53v-14.98c0-1.48-.35-2.54-.99-3.25s-1.7-1.06-3.04-1.06-2.54.28-3.68.92c-1.13.64-2.26,1.48-3.39,2.54v15.69h-3.46v-21.71h0Z"/>
    <path d="M192.32,221.91c0-1.98.28-3.68.92-5.09.57-1.41,1.34-2.61,2.33-3.53s2.05-1.63,3.18-2.05c1.2-.42,2.33-.64,3.46-.64s2.47.21,3.6.71c1.13.42,2.05,1.13,2.9,2.12.85.92,1.48,2.12,1.91,3.6.49,1.41.71,3.18.71,5.16v.71h-15.41c0,1.27.21,2.33.57,3.32.35.92.85,1.7,1.41,2.33.57.64,1.27,1.13,2.05,1.41.78.35,1.63.49,2.54.49,1.55,0,2.83-.28,3.82-.92s1.91-1.48,2.76-2.69l2.05,1.84c-.99,1.48-2.26,2.61-3.68,3.39s-3.18,1.2-5.23,1.2-2.54-.21-3.75-.71c-1.2-.49-2.26-1.2-3.11-2.12-.92-.92-1.63-2.12-2.19-3.53-.57-1.41-.85-3.11-.85-5.02h0v.02h0ZM196,219.93h11.94c-.14-1.91-.64-3.39-1.63-4.59-.92-1.13-2.33-1.77-4.1-1.77s-1.48.14-2.19.35c-.71.28-1.27.64-1.84,1.13-.57.49-1.06,1.2-1.41,1.98-.42.78-.64,1.77-.78,2.83v.07h.01Z"/>
    <path d="M216.42,211.02h3.53v4.03h.07c.78-1.27,1.84-2.33,3.25-3.18,1.41-.85,3.11-1.27,5.23-1.27h.42l-.21,3.32h-.99c-1.77,0-3.25.42-4.52,1.27s-2.33,2.05-3.11,3.68v14.14h-3.67"/>
  </g>
  <g>
    <path class="cls-6" d="M228.54,125.88l-15.76-69.27c-.47-2.23-2.59-4.82-4.59-5.76l-63.97-30.81c-2-.94-5.29-.94-7.41,0l-63.97,30.81c-2,.94-4.12,3.53-4.59,5.76l-10.7,47.04,56.68-34.46,66.68,68.21-61.5,54.21h56.56c2.23,0,5.17-1.41,6.59-3.18l44.22-55.51c1.41-1.76,2.12-4.94,1.65-7.17l.12.12Z"/>
    <path class="cls-6" d="M114.24,69.2l-56.68,34.46-5.06,22.23c-.47,2.23.24,5.41,1.65,7.17l44.22,55.51c1.41,1.76,4.35,3.18,6.59,3.18h14.46l61.5-54.33s-66.68-68.21-66.68-68.21Z"/>
    <path class="cls-5" d="M113.62,69.5l-56.07,34.28-5.06,22.11c-.47,2.23.24,5.41,1.65,7.17l44.22,55.51c1.41,1.76,4.35,3.18,6.59,3.18h14.46l59.93-52.94s-65.72-69.3-65.72-69.3Z"/>
  </g>
  <path id="Combined-Shape" class="cls-4" d="M112.59,98.25c.82,2.47,2.59,4.7,4.47,6l16.46,10.82c2.82,1.88,7.41,1.88,10.23,0l16.46-10.82c2.82-1.88,5.17-6.12,5.17-9.53v-22.7c0-1.53-.47-3.18-1.18-4.7l-51.63,30.93Z"/>
  <path id="Combined-Shape1" class="cls-1" d="M113.62,69.5c-.71,1.53-1.15,3.11-1.15,4.53v22.7c0,3.41,2.23,7.64,5.17,9.53l16.46,10.82c2.82,1.88,7.41,1.88,10.23,0l16.46-10.82c1.41-.94,2.59-2.35,3.53-4"/>
  <path id="Combined-Shape2" class="cls-2" d="M182.09,134.82c-.94,2.12-2.47,4-4.23,4.94l-31.87,18.35c-2.94,1.65-7.64,1.65-10.58,0l-31.87-18.35c-2.94-1.65-5.29-5.76-5.29-9.17v-36.81c0-1.53.47-3.29,1.29-4.82l82.55,45.86h0Z"/>
  <path id="Combined-Shape3" class="cls-3" d="M181.97,89.43c.71,1.41,1.18,2.94,1.18,4.47v36.81c0,3.41-2.35,7.53-5.29,9.17l-31.87,18.35c-2.94,1.65-7.64,1.65-10.58,0l-31.87-18.35c-1.41-.82-2.57-2.12-3.51-3.65l81.95-46.8h0Z"/>
</svg>