<?xml version="1.0" encoding="UTF-8"?>
<svg id="Layer_1" xmlns="http://www.w3.org/2000/svg" version="1.1" viewBox="0 0 595.3 170.1">
  <!-- Generator: Adobe Illustrator 29.1.0, SVG Export Plug-In . SVG Version: 2.1.0 Build 142)  -->
  <g>
    <path d="M187.6,87.2c0-4.9.6-9.4,1.9-13.4,1.3-4,3.1-7.3,5.5-10.1,2.4-2.8,5.2-4.9,8.4-6.4,3.2-1.5,6.8-2.2,10.7-2.2,6.1,0,11.1,1.6,15.1,4.7,4,3.1,6.8,8,8.5,14.6l-7.4,1.8c-1.5-5-3.4-8.6-6-10.9-2.5-2.3-6-3.4-10.3-3.4s-4.8.5-7.1,1.4c-2.3.9-4.3,2.5-6,4.5-1.7,2.1-3.1,4.7-4.2,7.8-1.1,3.1-1.6,6.9-1.6,11.3s.5,8.2,1.4,11.5,2.3,6,4,8.2c1.7,2.2,3.7,3.8,6.1,4.9,2.4,1.1,4.9,1.6,7.7,1.6,4.9,0,8.8-1.6,11.8-4.7,3-3.1,4.5-7.6,4.6-13.4h-14.2v-6.3h21.5v29.9h-6.5v-9.3h-.2c-.6,1.3-1.5,2.6-2.5,3.8-1,1.3-2.2,2.4-3.7,3.4s-3.1,1.8-5,2.4c-1.9.6-4.1.9-6.5.9-4.2,0-7.9-.8-11.1-2.5s-5.9-3.9-8.2-6.8c-2.2-2.9-3.9-6.3-5-10.3s-1.7-8.4-1.7-13.1Z"/>
    <path d="M248.2,108c0-2.2.5-4.3,1.6-6.2,1-1.9,2.7-3.6,5.1-5.2s5.4-2.9,9.2-4.1c3.8-1.2,8.5-2.2,14-2.9v-2c0-5.4-2.8-8.1-8.4-8.1s-6.4.6-8.9,1.9-5,2.8-7.2,4.7l-3.8-4.5c2.6-2.4,5.6-4.4,9-6,3.4-1.6,7.3-2.4,11.8-2.4s4.9.3,6.8,1c1.9.7,3.4,1.6,4.6,2.9,1.2,1.3,2.1,2.8,2.6,4.7s.8,4,.8,6.3v19.5c0,2.7,0,5,.3,6.7.2,1.8.5,3.2,1,4.3h-7.5c-.3-1-.6-1.9-.7-2.9-.2-.9-.3-2.1-.3-3.4-4.9,4.7-10.6,7-17.2,7s-7-1-9.2-2.9c-2.3-2-3.4-4.8-3.4-8.4ZM255.4,106.9c0,2.1.7,3.7,2,4.9,1.3,1.1,3.2,1.7,5.5,1.7s5.7-.6,8.2-1.7c2.5-1.1,4.8-2.7,6.9-4.7v-12.4c-4.2.7-7.8,1.4-10.6,2.3-2.9.8-5.2,1.8-7,2.8s-3,2.2-3.8,3.3-1.1,2.5-1.1,3.9Z"/>
    <path d="M297.6,118.6v-44.5h7.2v8.2h.2c1.6-2.6,3.8-4.8,6.6-6.5s6.3-2.7,10.6-2.7h.9l-.5,6.8c-.1,0-.5,0-1.1,0h-1c-3.5,0-6.6.9-9.3,2.6-2.6,1.7-4.8,4.2-6.4,7.4v28.7h-7.2Z"/>
    <path d="M326.5,96.5c0-3.9.5-7.3,1.4-10.2,1-2.9,2.3-5.3,4-7.3,1.7-1.9,3.7-3.4,6-4.4,2.3-1,4.8-1.5,7.5-1.5s5.2.6,7.7,1.8c2.4,1.2,4.5,2.8,6.2,4.8v-23.6h7.2v51.5c0,2.7,0,4.9.3,6.7.2,1.7.5,3.2,1.1,4.3h-7.6c-.3-.7-.5-1.7-.7-2.8-.2-1.2-.3-2.3-.3-3.4-1.8,2-3.9,3.6-6.2,4.9s-5.1,2-8.5,2-4.9-.5-7.1-1.4c-2.2-.9-4.1-2.3-5.8-4.2-1.6-1.9-2.9-4.2-3.9-7.1-.9-2.9-1.4-6.2-1.4-10.1ZM333.7,96.6c0,2.9.3,5.4,1,7.4.6,2.1,1.5,3.8,2.7,5.2,1.1,1.4,2.5,2.5,4,3.1,1.6.7,3.2,1,5,1,2.6,0,4.9-.6,7-1.9,2.1-1.3,4-2.9,5.9-4.9v-20.4c-2-2.2-4-3.8-6.1-5s-4.3-1.7-6.7-1.7c-3.9,0-7,1.4-9.3,4.2-2.3,2.8-3.5,7.1-3.5,13Z"/>
    <path d="M376.9,96.3c0-4,.6-7.5,1.8-10.4,1.2-2.9,2.8-5.3,4.7-7.2,1.9-1.9,4.1-3.3,6.5-4.2,2.4-.9,4.8-1.4,7.1-1.4s5.1.5,7.3,1.4c2.3.9,4.2,2.4,5.9,4.3,1.7,1.9,3,4.4,3.9,7.3.9,3,1.4,6.5,1.4,10.5v1.5h-31.5c0,2.6.5,4.8,1.2,6.7.7,1.9,1.7,3.5,2.9,4.8,1.2,1.3,2.6,2.3,4.2,3,1.6.7,3.3,1,5.2,1,3.2,0,5.8-.6,7.8-1.9,2-1.2,3.9-3,5.6-5.4l4.2,3.7c-2.1,3-4.6,5.3-7.5,7-2.9,1.7-6.4,2.5-10.6,2.5s-5.2-.5-7.6-1.4c-2.4-1-4.6-2.4-6.4-4.4-1.9-1.9-3.3-4.4-4.5-7.3-1.1-2.9-1.7-6.3-1.7-10.2ZM384.3,92.3h24.4c-.3-3.9-1.4-7-3.3-9.3-1.9-2.4-4.7-3.6-8.4-3.6s-3,.3-4.4.8c-1.4.5-2.7,1.3-3.8,2.4-1.1,1.1-2.1,2.4-2.9,4-.8,1.6-1.3,3.5-1.6,5.8Z"/>
    <path d="M426,118.6v-44.5h7.2v6.6c1-.9,2-1.9,3.2-2.8,1.2-.9,2.5-1.7,3.9-2.5,1.4-.7,2.9-1.3,4.5-1.7,1.6-.4,3.3-.6,5.1-.6,4.3,0,7.6,1.2,9.8,3.5,2.3,2.3,3.4,5.6,3.4,9.8v32.1h-7.2v-30.5c0-3-.7-5.2-2-6.6-1.3-1.4-3.4-2.1-6.2-2.1s-5.2.6-7.5,1.9c-2.3,1.3-4.6,3-7,5.2v32h-7.2Z"/>
    <path d="M473,96.3c0-4,.6-7.5,1.8-10.4,1.2-2.9,2.8-5.3,4.7-7.2,1.9-1.9,4.1-3.3,6.5-4.2,2.4-.9,4.8-1.4,7.1-1.4s5.1.5,7.3,1.4c2.3.9,4.2,2.4,5.9,4.3,1.7,1.9,3,4.4,3.9,7.3.9,3,1.4,6.5,1.4,10.5v1.5h-31.5c0,2.6.5,4.8,1.2,6.7.7,1.9,1.7,3.5,2.9,4.8,1.2,1.3,2.6,2.3,4.2,3,1.6.7,3.3,1,5.2,1,3.2,0,5.8-.6,7.8-1.9,2-1.2,3.9-3,5.6-5.4l4.2,3.7c-2.1,3-4.6,5.3-7.5,7-2.9,1.7-6.4,2.5-10.6,2.5s-5.2-.5-7.6-1.4c-2.4-1-4.6-2.4-6.4-4.4-1.9-1.9-3.3-4.4-4.5-7.3-1.1-2.9-1.7-6.3-1.7-10.2ZM480.4,92.3h24.4c-.3-3.9-1.4-7-3.3-9.3-1.9-2.4-4.7-3.6-8.4-3.6s-3,.3-4.4.8c-1.4.5-2.7,1.3-3.8,2.4-1.1,1.1-2.1,2.4-2.9,4-.8,1.6-1.3,3.5-1.6,5.8Z"/>
    <path d="M522.1,118.6v-44.5h7.2v8.2h.2c1.6-2.6,3.8-4.8,6.6-6.5s6.3-2.7,10.6-2.7h.9l-.5,6.8c-.1,0-.5,0-1.1,0h-1c-3.5,0-6.6.9-9.3,2.6-2.6,1.7-4.8,4.2-6.4,7.4v28.7h-7.2Z"/>
  </g>
  <path d="M157.2,97.6l-9.8-42.9c-.3-1.4-1.6-3-2.8-3.6l-39.6-19.1c-1.3-.6-3.3-.6-4.6,0l-39.6,19.1c-1.3.6-2.5,2.2-2.8,3.6l-6.7,29.2-3.1,13.7c-.3,1.4.1,3.4,1,4.5l27.4,34.4c.9,1.1,2.7,2,4.1,2h44c1.4,0,3.2-.9,4.1-2l27.4-34.4c.9-1.1,1.3-3.1,1-4.5ZM117.4,61.4c.4,1,.7,2,.7,2.9v14.1c0,.8-.2,1.6-.5,2.5l-1.1.6-15.7-10.1,16.6-9.9ZM85.4,65.5c0-.9.3-1.9.7-2.8,0,0,0,0,0-.1l14,9.1,15.7,10.1-11.9,6.8-16.6-9.2-1.9-1v-12.8ZM76.5,100.6v-22.8c0-1,.3-2,.8-3l8,4.5h0s1.1.6,1.1.6l16.6,9.2h0s-.1,0-.1,0l-3.8,2.2h0l-.9.5-20.8,11.9c-.5-1-.9-2.1-.9-3.1ZM129.1,100.6c0,.6-.1,1.2-.3,1.9,0,.3-.2.5-.3.7h0c0,0,0,.2-.1.3,0,.1-.1.3-.2.4-.2.3-.3.5-.5.8,0,.1-.2.3-.3.4-.3.4-.7.8-1.1,1-.1,0-.3.2-.4.3l-19.7,11.4c-1.8,1-4.8,1-6.6,0l-19.7-11.4c0,0-.2-.1-.3-.2,0,0-.1,0-.2-.1-.1-.1-.3-.2-.4-.3-.3-.3-.5-.5-.8-.8,0-.1-.2-.2-.3-.4,0,0,0,0,0,0l21.2-12.1,1.2-.7,3.2-1.8.4-.2h.2c0-.1,0-.1,0-.1l.8-.4,11.8-6.7,12.1-6.9c.3.8.5,1.6.5,2.4v22.8Z"/>
</svg>