<?xml version="1.0" encoding="UTF-8"?>
<svg id="Layer_1" xmlns="http://www.w3.org/2000/svg" version="1.1" viewBox="0 0 595.3 170.1">
  <!-- Generator: Adobe Illustrator 29.1.0, SVG Export Plug-In . SVG Version: 2.1.0 Build 142)  -->
  <defs>
    <style>
      .st0 {
        fill: #fff;
      }
    </style>
  </defs>
  <g>
    <path class="st0" d="M172.6,133.2c0-3.4.4-6.5,1.3-9.3.9-2.8,2.2-5.1,3.8-7,1.6-1.9,3.6-3.4,5.8-4.4,2.3-1,4.7-1.5,7.4-1.5,4.2,0,7.7,1.1,10.5,3.3,2.8,2.2,4.7,5.6,5.9,10.1l-5.1,1.2c-1-3.5-2.4-6-4.2-7.5-1.8-1.6-4.1-2.3-7.1-2.3s-3.4.3-4.9,1c-1.6.7-3,1.7-4.2,3.1-1.2,1.4-2.2,3.2-2.9,5.4-.7,2.2-1.1,4.8-1.1,7.8s.3,5.7,1,8,1.6,4.2,2.8,5.7c1.2,1.5,2.6,2.7,4.2,3.4,1.6.8,3.4,1.1,5.3,1.1,3.4,0,6.1-1.1,8.2-3.3,2.1-2.2,3.1-5.3,3.2-9.3h-9.9v-4.3h14.9v20.7h-4.5v-6.5h-.1c-.4.9-1,1.8-1.7,2.7-.7.9-1.6,1.7-2.6,2.3s-2.2,1.2-3.5,1.7c-1.3.4-2.8.6-4.5.6-2.9,0-5.5-.6-7.7-1.7-2.2-1.1-4.1-2.7-5.7-4.7-1.5-2-2.7-4.4-3.5-7.2-.8-2.8-1.2-5.8-1.2-9.1Z"/>
    <path class="st0" d="M214.7,147.6c0-1.6.4-3,1.1-4.3.7-1.3,1.9-2.5,3.5-3.6s3.8-2,6.4-2.9,5.9-1.5,9.7-2v-1.4c0-3.8-2-5.6-5.9-5.6s-4.4.4-6.2,1.3-3.4,2-5,3.3l-2.7-3.1c1.8-1.7,3.9-3.1,6.2-4.2,2.3-1.1,5.1-1.7,8.2-1.7s3.4.2,4.7.7c1.3.5,2.4,1.1,3.2,2,.8.9,1.4,2,1.8,3.3s.6,2.7.6,4.4v13.5c0,1.9,0,3.4.2,4.7.1,1.2.4,2.2.7,3h-5.2c-.2-.7-.4-1.4-.5-2-.1-.7-.2-1.5-.2-2.4-3.4,3.2-7.4,4.9-11.9,4.9s-4.8-.7-6.4-2c-1.6-1.4-2.4-3.3-2.4-5.8ZM219.8,146.9c0,1.5.5,2.6,1.4,3.4.9.8,2.2,1.2,3.8,1.2s4-.4,5.7-1.2c1.7-.8,3.3-1.9,4.8-3.3v-8.6c-2.9.5-5.4,1-7.4,1.6-2,.6-3.6,1.2-4.9,1.9s-2.1,1.5-2.6,2.3-.8,1.7-.8,2.7Z"/>
    <path class="st0" d="M249,155v-30.9h5v5.7h.1c1.1-1.8,2.6-3.3,4.6-4.5s4.4-1.8,7.4-1.8h.6l-.3,4.7c0,0-.3,0-.7,0h-.7c-2.5,0-4.6.6-6.4,1.8-1.8,1.2-3.3,2.9-4.4,5.2v20h-5Z"/>
    <path class="st0" d="M269.1,139.7c0-2.7.3-5.1,1-7.1.7-2,1.6-3.7,2.8-5,1.2-1.3,2.6-2.4,4.2-3.1,1.6-.7,3.4-1,5.2-1s3.6.4,5.3,1.3c1.7.8,3.1,2,4.3,3.4v-16.4h5v35.7c0,1.9,0,3.4.2,4.6.1,1.2.4,2.2.7,3h-5.3c-.2-.5-.4-1.2-.5-2-.1-.8-.2-1.6-.2-2.4-1.3,1.4-2.7,2.5-4.3,3.4s-3.6,1.4-5.9,1.4-3.4-.3-5-1c-1.5-.6-2.9-1.6-4-2.9-1.1-1.3-2-2.9-2.7-4.9-.6-2-1-4.3-1-7ZM274.1,139.7c0,2,.2,3.7.7,5.2.4,1.4,1.1,2.6,1.8,3.6.8,1,1.7,1.7,2.8,2.2,1.1.5,2.2.7,3.5.7,1.8,0,3.4-.4,4.8-1.3,1.4-.9,2.8-2,4.1-3.4v-14.2c-1.4-1.5-2.8-2.7-4.2-3.5s-3-1.2-4.6-1.2c-2.7,0-4.9,1-6.5,2.9-1.6,1.9-2.4,4.9-2.4,9Z"/>
    <path class="st0" d="M304.1,139.5c0-2.8.4-5.2,1.3-7.2.8-2,1.9-3.7,3.3-5,1.4-1.3,2.9-2.3,4.5-2.9,1.7-.6,3.3-.9,4.9-.9s3.5.3,5.1,1c1.6.6,2.9,1.6,4.1,3,1.2,1.3,2.1,3,2.7,5.1.7,2,1,4.5,1,7.3v1h-21.8c0,1.8.3,3.3.8,4.7.5,1.3,1.2,2.4,2,3.3.8.9,1.8,1.6,2.9,2,1.1.5,2.3.7,3.6.7,2.2,0,4-.4,5.4-1.3,1.4-.9,2.7-2.1,3.9-3.8l2.9,2.6c-1.4,2.1-3.2,3.7-5.2,4.8-2,1.1-4.5,1.7-7.4,1.7s-3.6-.3-5.3-1c-1.7-.7-3.2-1.7-4.4-3-1.3-1.3-2.3-3-3.1-5-.8-2-1.2-4.4-1.2-7.1ZM309.2,136.7h16.9c-.2-2.7-.9-4.8-2.3-6.5-1.3-1.6-3.3-2.5-5.8-2.5s-2.1.2-3.1.5c-1,.4-1.8.9-2.6,1.6-.8.7-1.5,1.7-2,2.8-.6,1.1-.9,2.5-1.1,4Z"/>
    <path class="st0" d="M338.2,155v-30.9h5v4.6c.7-.6,1.4-1.3,2.2-1.9.8-.6,1.7-1.2,2.7-1.7,1-.5,2-.9,3.1-1.2,1.1-.3,2.3-.4,3.5-.4,3,0,5.2.8,6.8,2.4,1.6,1.6,2.3,3.9,2.3,6.8v22.3h-5v-21.2c0-2.1-.5-3.6-1.4-4.6-.9-1-2.4-1.5-4.3-1.5s-3.6.4-5.2,1.3c-1.6.9-3.2,2.1-4.8,3.6v22.2h-5Z"/>
    <path class="st0" d="M370.8,139.5c0-2.8.4-5.2,1.3-7.2.8-2,1.9-3.7,3.3-5,1.4-1.3,2.9-2.3,4.5-2.9,1.7-.6,3.3-.9,4.9-.9s3.5.3,5.1,1c1.6.6,2.9,1.6,4.1,3,1.2,1.3,2.1,3,2.7,5.1.7,2,1,4.5,1,7.3v1h-21.8c0,1.8.3,3.3.8,4.7.5,1.3,1.2,2.4,2,3.3.8.9,1.8,1.6,2.9,2,1.1.5,2.3.7,3.6.7,2.2,0,4-.4,5.4-1.3,1.4-.9,2.7-2.1,3.9-3.8l2.9,2.6c-1.4,2.1-3.2,3.7-5.2,4.8-2,1.1-4.5,1.7-7.4,1.7s-3.6-.3-5.3-1c-1.7-.7-3.2-1.7-4.4-3-1.3-1.3-2.3-3-3.1-5-.8-2-1.2-4.4-1.2-7.1ZM376,136.7h16.9c-.2-2.7-.9-4.8-2.3-6.5-1.3-1.6-3.3-2.5-5.8-2.5s-2.1.2-3.1.5c-1,.4-1.8.9-2.6,1.6-.8.7-1.5,1.7-2,2.8-.6,1.1-.9,2.5-1.1,4Z"/>
    <path class="st0" d="M404.9,155v-30.9h5v5.7h.1c1.1-1.8,2.6-3.3,4.6-4.5s4.4-1.8,7.4-1.8h.6l-.3,4.7c0,0-.3,0-.7,0h-.7c-2.5,0-4.6.6-6.4,1.8-1.8,1.2-3.3,2.9-4.4,5.2v20h-5Z"/>
  </g>
  <path class="st0" d="M331.6,63.9l-7.4-32.3c-.2-1-1.2-2.2-2.1-2.7l-29.8-14.4c-1-.4-2.5-.5-3.4,0l-29.8,14.4c-1,.4-1.9,1.7-2.1,2.7l-5,22-2.4,10.3c-.2,1,.1,2.5.8,3.4l20.7,25.9c.6.8,2,1.5,3.1,1.5h33.1c1,0,2.4-.7,3.1-1.5l20.7-25.9c.7-.8,1-2.3.8-3.4ZM301.6,36.6c.3.7.5,1.5.5,2.2v10.6c0,.6-.1,1.2-.4,1.9l-.8.5-11.8-7.6,12.5-7.5ZM277.5,39.7c0-.7.2-1.4.5-2.1,0,0,0,0,0,0l10.5,6.8,11.8,7.6-9,5.1-12.5-7-1.4-.8v-9.7ZM270.8,66.2v-17.2c0-.7.2-1.5.6-2.3l6,3.4h0s.8.4.8.4l12.5,6.9h0s0,0,0,0l-2.9,1.6h0l-.7.4-15.7,8.9c-.4-.7-.7-1.6-.7-2.3ZM310.4,66.2c0,.4,0,.9-.3,1.4,0,.2-.1.4-.2.6h0c0,0,0,.1,0,.2,0,0-.1.2-.2.3-.1.2-.2.4-.4.6,0,0-.1.2-.2.3-.3.3-.5.6-.8.8,0,0-.2.1-.3.2l-14.9,8.6c-1.4.8-3.6.8-4.9,0l-14.9-8.6c0,0-.1,0-.2-.1,0,0-.1,0-.2-.1-.1,0-.2-.2-.3-.2-.2-.2-.4-.4-.6-.6,0,0-.1-.2-.2-.3,0,0,0,0,0,0l15.9-9.1.9-.5,2.4-1.4h.3c0-.1.1-.2.1-.2h0l.6-.3,8.9-5.1,9.1-5.2c.2.6.4,1.2.4,1.8v17.2Z"/>
</svg>