<?xml version="1.0" encoding="UTF-8"?>
<svg id="Layer_1" data-name="Layer 1" xmlns="http://www.w3.org/2000/svg" viewBox="0 0 286.82 250.26">
  <defs>
    <style>
      .cls-1 {
        fill: #fff;
      }
    </style>
  </defs>
  <g>
    <path class="cls-1" d="M62.71,210.88c.64-1.98,1.55-3.6,2.69-4.95s2.54-2.4,4.1-3.11c1.63-.71,3.32-1.06,5.23-1.06,2.97,0,5.44.78,7.42,2.33,1.98,1.55,3.32,3.96,4.17,7.14l-3.6.85c-.71-2.47-1.7-4.24-2.97-5.3-1.27-1.13-2.9-1.64-5.02-1.63-3.75.02-6.85,2.43-8.48,6.72-.49,1.55-.78,3.39-.78,5.51s.21,4.03.71,5.65,1.13,2.97,1.98,4.03,1.84,1.91,2.97,2.4c1.13.57,2.4.78,3.75.78,2.4,0,4.31-.78,5.8-2.33,1.48-1.55,2.19-3.75,2.26-6.57h-7v-3.04h10.53v14.63h-3.18v-4.59h-.07c-.28.64-.7,1.28-1.2,1.91-.66.83-1.7,1.93-4.31,2.83-.92.28-1.98.42-3.18.42-2.05,0-3.89-.42-5.44-1.2s-2.9-1.91-4.03-3.32c-2.41-3.58-3.34-6.32-3.32-11.52,0-2.13.33-4.6.97-6.58Z"/>
    <path class="cls-1" d="M91.54,227.63c0-1.13.28-2.12.78-3.04.49-.92,1.34-1.77,2.47-2.54s2.69-1.41,4.52-2.05,4.17-1.06,6.86-1.41v-.99c0-2.69-1.41-3.96-4.17-3.96s-3.11.28-4.38.92-2.4,1.41-3.53,2.33l-1.91-2.19c1.27-1.2,2.76-2.19,4.38-2.97s3.6-1.2,5.8-1.2,2.4.14,3.32.49,1.7.78,2.26,1.41.99,1.41,1.27,2.33.42,1.91.42,3.11v9.54c0,1.34,0,2.4.14,3.32.07.85.28,1.55.49,2.12h-3.68c-.14-.49-.28-.99-.35-1.41-.07-.49-.14-1.06-.14-1.7-2.4,2.26-5.23,3.46-8.41,3.46-2.44,0-3.39-.49-4.52-1.41-1.52-1.39-1.62-3.13-1.62-4.16ZM95.15,227.14c0,1.06.35,1.84.99,2.4.64.57,1.55.85,2.69.85s2.83-.28,4.03-.85,2.33-1.34,3.39-2.33v-6.08c-2.05.35-3.82.71-5.23,1.13s-2.54.85-3.46,1.34-1.48,1.06-1.84,1.63-.57,1.2-.57,1.91h0Z"/>
    <path class="cls-1" d="M115.78,211.02h3.53v4.03h.07c.78-1.27,1.84-2.33,3.25-3.18,1.41-.85,3.11-1.27,5.23-1.27h.42l-.21,3.32h-.99c-1.77,0-3.25.42-4.52,1.27s-2.33,2.05-3.11,3.68v14.14h-3.67s0-21.99,0-21.99Z"/>
    <path class="cls-1" d="M129.99,222.05c0-1.91.21-3.6.71-5.02s1.13-2.61,1.98-3.53c.85-.92,1.84-1.7,2.97-2.19s2.4-.71,3.68-.71,2.54.28,3.75.92c1.2.57,2.19,1.41,3.04,2.4v-11.59h3.53v25.23c0,1.34,0,2.4.14,3.25.07.85.28,1.55.49,2.12h-3.75c-.14-.35-.28-.85-.35-1.41s-.14-1.13-.14-1.7c-.92.99-1.91,1.77-3.04,2.4s-2.54.99-4.17.99-2.4-.21-3.53-.71c-1.06-.42-2.05-1.13-2.83-2.05s-1.46-2.03-1.91-3.46c-.65-2.07-.57-4.95-.57-4.95h0ZM133.52,222.05c0,1.41.14,2.61.49,3.68.28.99.78,1.84,1.27,2.54.57.71,1.2,1.2,1.98,1.55.78.35,1.55.49,2.47.49,1.27,0,2.4-.28,3.39-.92s1.98-1.41,2.9-2.4v-10.04c-.99-1.06-1.98-1.91-2.97-2.47s-2.12-.85-3.25-.85c-1.91,0-3.46.71-4.59,2.05s-1.7,3.46-1.7,6.36h.01Z"/>
    <path class="cls-1" d="M154.72,221.91c0-1.98.28-3.68.92-5.09.57-1.41,1.34-2.61,2.33-3.53s2.05-1.63,3.18-2.05c1.2-.42,2.33-.64,3.46-.64s2.47.21,3.6.71c1.13.42,2.05,1.13,2.9,2.12.85.92,1.48,2.12,1.91,3.6.49,1.41.71,3.18.71,5.16v.71h-15.41c0,1.27.21,2.33.57,3.32.35.92.85,1.7,1.41,2.33.57.64,1.27,1.13,2.05,1.41.78.35,1.63.49,2.54.49,1.55,0,2.83-.28,3.82-.92s1.91-1.48,2.76-2.69l2.05,1.84c-.99,1.48-2.26,2.61-3.68,3.39s-3.18,1.2-5.23,1.2-2.54-.21-3.75-.71c-1.2-.49-2.26-1.2-3.11-2.12-.92-.92-1.63-2.12-2.19-3.53-.57-1.41-.85-3.11-.85-5.02h0v.02ZM170.27,219.93c-.14-1.91-.64-3.39-1.63-4.59-.92-1.13-2.33-1.79-4.1-1.77-2.08.03-3.46.99-4.03,1.48-.57.49-1.06,1.2-1.41,1.98-.7,1.47-.78,2.9-.78,2.9h11.95Z"/>
    <path class="cls-1" d="M178.82,211.02h3.53v3.25c.49-.42.99-.92,1.55-1.34.57-.42,1.2-.85,1.91-1.2s1.41-.64,2.19-.85,1.63-.28,2.47-.28c2.12,0,3.68.57,4.81,1.7,1.13,1.13,1.63,2.76,1.63,4.81v15.76h-3.53v-14.98c0-1.48-.35-2.54-.99-3.25s-1.7-1.06-3.04-1.06-2.54.28-3.68.92c-1.13.64-2.26,1.48-3.39,2.54v15.69h-3.46v-21.71Z"/>
    <path class="cls-1" d="M201.86,221.91c0-1.98.28-3.68.92-5.09.57-1.41,1.34-2.61,2.33-3.53s2.05-1.63,3.18-2.05c1.2-.42,2.33-.64,3.46-.64s2.47.21,3.6.71c1.13.42,2.05,1.13,2.9,2.12.85.92,1.48,2.12,1.91,3.6.49,1.41.71,3.18.71,5.16v.71h-15.41c0,1.27.21,2.33.57,3.32.35.92.85,1.7,1.41,2.33.57.64,1.27,1.13,2.05,1.41.78.35,1.63.49,2.54.49,1.55,0,2.83-.28,3.82-.92s1.91-1.48,2.76-2.69l2.05,1.84c-.99,1.48-2.26,2.61-3.68,3.39s-3.18,1.2-5.23,1.2-2.54-.21-3.75-.71c-1.2-.49-2.26-1.2-3.11-2.12-.92-.92-1.63-2.12-2.19-3.53-.57-1.41-.85-3.11-.85-5.02h0v.02ZM205.54,219.93h11.94c-.14-1.91-.64-3.39-1.63-4.59-.92-1.13-2.33-1.77-4.1-1.77s-1.48.14-2.19.35c-.71.28-1.27.64-1.84,1.13-.57.49-1.06,1.2-1.41,1.98-.42.78-.64,1.77-.78,2.83v.07h.01Z"/>
    <path class="cls-1" d="M225.96,211.02h3.53v4.03h.07c.78-1.27,1.84-2.33,3.25-3.18,1.41-.85,3.11-1.27,5.23-1.27h.42l-.21,3.32h-.99c-1.77,0-3.25.42-4.52,1.27s-2.33,2.05-3.11,3.68v14.14h-3.67"/>
  </g>
  <path class="cls-1" d="M237.72,125.23l-15.91-69.94c-.47-2.26-2.61-4.87-4.63-5.82l-64.6-31.11c-2.02-.95-5.34-.95-7.48,0l-64.6,31.11c-2.02.95-4.16,3.56-4.63,5.82l-10.81,47.5-5.11,22.33c-.48,2.26.24,5.46,1.66,7.24l44.65,56.05c1.43,1.78,4.39,3.21,6.65,3.21h71.73c2.26,0,5.23-1.43,6.65-3.21l44.65-56.05c1.43-1.78,2.14-4.99,1.66-7.24l.12.12ZM172.81,66.3c.71,1.54,1.15,3.11,1.15,4.66v22.92c0,1.31-.31,2.6-.78,3.91l-1.92,1.14-25.56-16.45,27.12-16.18ZM120.52,72.86c-.02-2.8,1.07-4.63,1.07-4.63l48.52,31.35-19.38,11.01-30.33-16.84.12-20.9ZM106.15,130.1v-37.17c0-1.54.48-3.33,1.31-4.87l41.92,23.28h0l-41.8,23.87c-.83-1.66-1.43-3.44-1.43-4.99v-.12ZM191.29,133.18c-.57,1.85-1.55,3.53-4.75,6.18s-32.18,18.53-32.18,18.53c-2.97,1.66-7.72,1.66-10.69,0,0,0-27.42-15.37-32.18-18.53-.81-.54-2.72-2.28-3.21-2.97h0l62.94-35.98,19.71-11.16c.47,1.31.83,2.61.83,3.8,0,0,.16,27.74,0,37.17-.01.75-.14,1.89-.48,2.97Z"/>
</svg>